<svg width="581" height="844" viewBox="0 0 581 844" fill="none" xmlns="http://www.w3.org/2000/svg">
<g clip-path="url(#clip0_157_534)">
<rect x="125" width="390" height="844" rx="20" fill="#212427"/>
<rect x="145" y="594" width="350" height="150" rx="20" fill="#89B782"/>
<rect x="145" y="404" width="350" height="150" rx="20" fill="#DFB921"/>
<g filter="url(#filter0_d_157_534)">
<rect x="125" y="784" width="390" height="60" fill="#212427"/>
</g>
<path d="M380.45 801.452C378.805 799.807 382.095 803.097 383.192 804.194C383.747 804.749 384.021 805.164 384.014 805.58M380.45 809.677C378.805 811.322 382.095 808.032 383.192 806.936C383.733 806.394 384.007 805.986 384.014 805.58M384.014 805.58H364" stroke="#D9D9D9" stroke-width="1.2"/>
<path d="M367.564 820.548C369.209 822.193 365.919 818.903 364.822 817.806C364.267 817.251 363.993 816.836 364 816.42M367.564 812.323C369.209 810.678 365.919 813.968 364.822 815.064C364.281 815.606 364.007 816.014 364 816.42M364 816.42H384.014" stroke="#D9D9D9" stroke-width="1.2"/>
<line x1="162" y1="785" x2="187" y2="785" stroke="white" stroke-width="2"/>
<path d="M181.643 141H177.441V129.398H165.594V141H161.375V115.301H165.594V125.812H177.441V115.301H181.643V141ZM195.775 121.172C197.51 121.172 198.998 121.529 200.24 122.244C201.482 122.959 202.438 123.973 203.105 125.285C203.773 126.598 204.107 128.168 204.107 129.996V132.211H191.117C191.164 134.098 191.668 135.551 192.629 136.57C193.602 137.59 194.961 138.1 196.707 138.1C197.949 138.1 199.062 137.982 200.047 137.748C201.043 137.502 202.068 137.145 203.123 136.676V140.033C202.15 140.49 201.16 140.824 200.152 141.035C199.145 141.246 197.938 141.352 196.531 141.352C194.621 141.352 192.939 140.982 191.486 140.244C190.045 139.494 188.914 138.381 188.094 136.904C187.285 135.428 186.881 133.594 186.881 131.402C186.881 129.223 187.25 127.371 187.988 125.848C188.727 124.324 189.764 123.164 191.1 122.367C192.436 121.57 193.994 121.172 195.775 121.172ZM195.775 124.283C194.475 124.283 193.42 124.705 192.611 125.549C191.814 126.393 191.346 127.629 191.205 129.258H200.064C200.053 128.285 199.889 127.424 199.572 126.674C199.268 125.924 198.799 125.338 198.166 124.916C197.545 124.494 196.748 124.283 195.775 124.283ZM212.914 141H208.766V113.648H212.914V141ZM222.969 141H218.82V113.648H222.969V141ZM246.102 131.227C246.102 132.844 245.891 134.279 245.469 135.533C245.047 136.787 244.432 137.848 243.623 138.715C242.814 139.57 241.842 140.227 240.705 140.684C239.568 141.129 238.285 141.352 236.855 141.352C235.52 141.352 234.295 141.129 233.182 140.684C232.068 140.227 231.102 139.57 230.281 138.715C229.473 137.848 228.846 136.787 228.4 135.533C227.955 134.279 227.732 132.844 227.732 131.227C227.732 129.082 228.102 127.266 228.84 125.777C229.59 124.277 230.656 123.135 232.039 122.35C233.422 121.564 235.068 121.172 236.979 121.172C238.771 121.172 240.354 121.564 241.725 122.35C243.096 123.135 244.168 124.277 244.941 125.777C245.715 127.277 246.102 129.094 246.102 131.227ZM231.986 131.227C231.986 132.645 232.156 133.857 232.496 134.865C232.848 135.873 233.387 136.646 234.113 137.186C234.84 137.713 235.777 137.977 236.926 137.977C238.074 137.977 239.012 137.713 239.738 137.186C240.465 136.646 240.998 135.873 241.338 134.865C241.678 133.857 241.848 132.645 241.848 131.227C241.848 129.809 241.678 128.607 241.338 127.623C240.998 126.627 240.465 125.871 239.738 125.355C239.012 124.828 238.068 124.564 236.908 124.564C235.197 124.564 233.949 125.139 233.164 126.287C232.379 127.436 231.986 129.082 231.986 131.227ZM257.422 148.154C256.777 148.154 256.215 148.113 255.734 148.031C255.242 147.961 254.82 147.861 254.469 147.732V144.199C254.844 144.293 255.248 144.375 255.682 144.445C256.115 144.516 256.578 144.551 257.07 144.551C257.715 144.551 258.301 144.428 258.828 144.182C259.355 143.936 259.771 143.49 260.076 142.846C260.393 142.201 260.551 141.293 260.551 140.121V115.301H264.77V139.98C264.77 141.891 264.465 143.443 263.855 144.639C263.246 145.846 262.391 146.73 261.289 147.293C260.188 147.867 258.898 148.154 257.422 148.154ZM288.219 131.227C288.219 132.844 288.008 134.279 287.586 135.533C287.164 136.787 286.549 137.848 285.74 138.715C284.932 139.57 283.959 140.227 282.822 140.684C281.686 141.129 280.402 141.352 278.973 141.352C277.637 141.352 276.412 141.129 275.299 140.684C274.186 140.227 273.219 139.57 272.398 138.715C271.59 137.848 270.963 136.787 270.518 135.533C270.072 134.279 269.85 132.844 269.85 131.227C269.85 129.082 270.219 127.266 270.957 125.777C271.707 124.277 272.773 123.135 274.156 122.35C275.539 121.564 277.186 121.172 279.096 121.172C280.889 121.172 282.471 121.564 283.842 122.35C285.213 123.135 286.285 124.277 287.059 125.777C287.832 127.277 288.219 129.094 288.219 131.227ZM274.104 131.227C274.104 132.645 274.273 133.857 274.613 134.865C274.965 135.873 275.504 136.646 276.23 137.186C276.957 137.713 277.895 137.977 279.043 137.977C280.191 137.977 281.129 137.713 281.855 137.186C282.582 136.646 283.115 135.873 283.455 134.865C283.795 133.857 283.965 132.645 283.965 131.227C283.965 129.809 283.795 128.607 283.455 127.623C283.115 126.627 282.582 125.871 281.855 125.355C281.129 124.828 280.186 124.564 279.025 124.564C277.314 124.564 276.066 125.139 275.281 126.287C274.496 127.436 274.104 129.082 274.104 131.227ZM300.717 121.172C302.451 121.172 303.939 121.529 305.182 122.244C306.424 122.959 307.379 123.973 308.047 125.285C308.715 126.598 309.049 128.168 309.049 129.996V132.211H296.059C296.105 134.098 296.609 135.551 297.57 136.57C298.543 137.59 299.902 138.1 301.648 138.1C302.891 138.1 304.004 137.982 304.988 137.748C305.984 137.502 307.01 137.145 308.064 136.676V140.033C307.092 140.49 306.102 140.824 305.094 141.035C304.086 141.246 302.879 141.352 301.473 141.352C299.562 141.352 297.881 140.982 296.428 140.244C294.986 139.494 293.855 138.381 293.035 136.904C292.227 135.428 291.822 133.594 291.822 131.402C291.822 129.223 292.191 127.371 292.93 125.848C293.668 124.324 294.705 123.164 296.041 122.367C297.377 121.57 298.936 121.172 300.717 121.172ZM300.717 124.283C299.416 124.283 298.361 124.705 297.553 125.549C296.756 126.393 296.287 127.629 296.146 129.258H305.006C304.994 128.285 304.83 127.424 304.514 126.674C304.209 125.924 303.74 125.338 303.107 124.916C302.486 124.494 301.689 124.283 300.717 124.283Z" fill="white"/>
<path d="M172.539 157.578L169.484 169H168.148L165.883 161.312C165.815 161.094 165.75 160.875 165.688 160.656C165.63 160.432 165.576 160.221 165.523 160.023C165.471 159.82 165.427 159.643 165.391 159.492C165.359 159.336 165.336 159.219 165.32 159.141C165.31 159.219 165.289 159.333 165.258 159.484C165.232 159.635 165.195 159.81 165.148 160.008C165.107 160.206 165.055 160.417 164.992 160.641C164.935 160.865 164.872 161.091 164.805 161.32L162.602 169H161.266L158.234 157.578H159.617L161.453 164.742C161.516 164.982 161.573 165.219 161.625 165.453C161.682 165.682 161.732 165.906 161.773 166.125C161.82 166.344 161.862 166.557 161.898 166.766C161.935 166.974 161.969 167.177 162 167.375C162.026 167.172 162.06 166.961 162.102 166.742C162.143 166.518 162.188 166.292 162.234 166.062C162.286 165.833 162.341 165.602 162.398 165.367C162.461 165.133 162.526 164.898 162.594 164.664L164.648 157.578H166.016L168.156 164.719C168.229 164.964 168.297 165.206 168.359 165.445C168.422 165.685 168.477 165.919 168.523 166.148C168.576 166.372 168.62 166.589 168.656 166.797C168.698 167 168.734 167.193 168.766 167.375C168.802 167.12 168.846 166.852 168.898 166.57C168.951 166.289 169.01 165.995 169.078 165.688C169.151 165.38 169.229 165.062 169.312 164.734L171.148 157.578H172.539ZM177.445 160.281C178.174 160.281 178.799 160.443 179.32 160.766C179.841 161.089 180.24 161.542 180.516 162.125C180.792 162.703 180.93 163.38 180.93 164.156V164.961H175.016C175.031 165.966 175.281 166.732 175.766 167.258C176.25 167.784 176.932 168.047 177.812 168.047C178.354 168.047 178.833 167.997 179.25 167.898C179.667 167.799 180.099 167.654 180.547 167.461V168.602C180.115 168.794 179.685 168.935 179.258 169.023C178.836 169.112 178.336 169.156 177.758 169.156C176.935 169.156 176.216 168.99 175.602 168.656C174.992 168.318 174.518 167.823 174.18 167.172C173.841 166.521 173.672 165.724 173.672 164.781C173.672 163.859 173.826 163.062 174.133 162.391C174.445 161.714 174.883 161.193 175.445 160.828C176.013 160.464 176.68 160.281 177.445 160.281ZM177.43 161.344C176.737 161.344 176.185 161.57 175.773 162.023C175.362 162.477 175.117 163.109 175.039 163.922H179.57C179.565 163.411 179.484 162.964 179.328 162.578C179.177 162.188 178.945 161.885 178.633 161.672C178.32 161.453 177.919 161.344 177.43 161.344ZM184.438 169H183.133V156.844H184.438V169ZM190.609 169.156C189.839 169.156 189.159 168.997 188.57 168.68C187.982 168.362 187.523 167.878 187.195 167.227C186.867 166.576 186.703 165.755 186.703 164.766C186.703 163.729 186.875 162.883 187.219 162.227C187.568 161.565 188.047 161.076 188.656 160.758C189.266 160.44 189.958 160.281 190.734 160.281C191.161 160.281 191.573 160.326 191.969 160.414C192.37 160.497 192.698 160.604 192.953 160.734L192.562 161.82C192.302 161.716 192 161.622 191.656 161.539C191.318 161.456 191 161.414 190.703 161.414C190.109 161.414 189.615 161.542 189.219 161.797C188.828 162.052 188.534 162.427 188.336 162.922C188.143 163.417 188.047 164.026 188.047 164.75C188.047 165.443 188.141 166.034 188.328 166.523C188.521 167.013 188.805 167.388 189.18 167.648C189.56 167.904 190.034 168.031 190.602 168.031C191.055 168.031 191.464 167.984 191.828 167.891C192.193 167.792 192.523 167.677 192.82 167.547V168.703C192.534 168.849 192.214 168.961 191.859 169.039C191.51 169.117 191.094 169.156 190.609 169.156ZM202.234 164.703C202.234 165.406 202.143 166.034 201.961 166.586C201.779 167.138 201.516 167.604 201.172 167.984C200.828 168.365 200.411 168.656 199.922 168.859C199.438 169.057 198.888 169.156 198.273 169.156C197.701 169.156 197.174 169.057 196.695 168.859C196.221 168.656 195.81 168.365 195.461 167.984C195.117 167.604 194.849 167.138 194.656 166.586C194.469 166.034 194.375 165.406 194.375 164.703C194.375 163.766 194.534 162.969 194.852 162.312C195.169 161.651 195.622 161.148 196.211 160.805C196.805 160.456 197.51 160.281 198.328 160.281C199.109 160.281 199.792 160.456 200.375 160.805C200.964 161.154 201.419 161.659 201.742 162.32C202.07 162.977 202.234 163.771 202.234 164.703ZM195.719 164.703C195.719 165.391 195.81 165.987 195.992 166.492C196.174 166.997 196.456 167.388 196.836 167.664C197.216 167.94 197.706 168.078 198.305 168.078C198.898 168.078 199.385 167.94 199.766 167.664C200.151 167.388 200.435 166.997 200.617 166.492C200.799 165.987 200.891 165.391 200.891 164.703C200.891 164.021 200.799 163.432 200.617 162.938C200.435 162.438 200.154 162.052 199.773 161.781C199.393 161.51 198.901 161.375 198.297 161.375C197.406 161.375 196.753 161.669 196.336 162.258C195.924 162.846 195.719 163.661 195.719 164.703ZM213.773 160.281C214.716 160.281 215.427 160.529 215.906 161.023C216.385 161.513 216.625 162.302 216.625 163.391V169H215.344V163.453C215.344 162.76 215.193 162.242 214.891 161.898C214.594 161.549 214.151 161.375 213.562 161.375C212.734 161.375 212.133 161.615 211.758 162.094C211.383 162.573 211.195 163.279 211.195 164.211V169H209.906V163.453C209.906 162.99 209.839 162.604 209.703 162.297C209.573 161.99 209.375 161.76 209.109 161.609C208.849 161.453 208.518 161.375 208.117 161.375C207.549 161.375 207.094 161.492 206.75 161.727C206.406 161.961 206.156 162.31 206 162.773C205.849 163.232 205.773 163.797 205.773 164.469V169H204.477V160.438H205.523L205.719 161.648H205.789C205.961 161.352 206.177 161.102 206.438 160.898C206.698 160.695 206.99 160.542 207.312 160.438C207.635 160.333 207.979 160.281 208.344 160.281C208.995 160.281 209.539 160.404 209.977 160.648C210.419 160.888 210.74 161.255 210.938 161.75H211.008C211.289 161.255 211.674 160.888 212.164 160.648C212.654 160.404 213.19 160.281 213.773 160.281ZM222.586 160.281C223.315 160.281 223.94 160.443 224.461 160.766C224.982 161.089 225.38 161.542 225.656 162.125C225.932 162.703 226.07 163.38 226.07 164.156V164.961H220.156C220.172 165.966 220.422 166.732 220.906 167.258C221.391 167.784 222.073 168.047 222.953 168.047C223.495 168.047 223.974 167.997 224.391 167.898C224.807 167.799 225.24 167.654 225.688 167.461V168.602C225.255 168.794 224.826 168.935 224.398 169.023C223.977 169.112 223.477 169.156 222.898 169.156C222.076 169.156 221.357 168.99 220.742 168.656C220.133 168.318 219.659 167.823 219.32 167.172C218.982 166.521 218.812 165.724 218.812 164.781C218.812 163.859 218.966 163.062 219.273 162.391C219.586 161.714 220.023 161.193 220.586 160.828C221.154 160.464 221.82 160.281 222.586 160.281ZM222.57 161.344C221.878 161.344 221.326 161.57 220.914 162.023C220.503 162.477 220.258 163.109 220.18 163.922H224.711C224.706 163.411 224.625 162.964 224.469 162.578C224.318 162.188 224.086 161.885 223.773 161.672C223.461 161.453 223.06 161.344 222.57 161.344ZM232.625 157.578H235.859C237.286 157.578 238.359 157.792 239.078 158.219C239.797 158.646 240.156 159.372 240.156 160.398C240.156 160.841 240.07 161.24 239.898 161.594C239.732 161.943 239.487 162.232 239.164 162.461C238.841 162.69 238.443 162.849 237.969 162.938V163.016C238.469 163.094 238.911 163.237 239.297 163.445C239.682 163.654 239.984 163.945 240.203 164.32C240.422 164.695 240.531 165.172 240.531 165.75C240.531 166.453 240.367 167.047 240.039 167.531C239.716 168.016 239.258 168.383 238.664 168.633C238.07 168.878 237.367 169 236.555 169H232.625V157.578ZM233.953 162.477H236.141C237.135 162.477 237.823 162.312 238.203 161.984C238.589 161.656 238.781 161.177 238.781 160.547C238.781 159.896 238.552 159.427 238.094 159.141C237.641 158.854 236.917 158.711 235.922 158.711H233.953V162.477ZM233.953 163.594V167.867H236.328C237.344 167.867 238.062 167.669 238.484 167.273C238.906 166.872 239.117 166.333 239.117 165.656C239.117 165.224 239.021 164.854 238.828 164.547C238.641 164.24 238.333 164.005 237.906 163.844C237.484 163.677 236.919 163.594 236.211 163.594H233.953ZM245.977 160.297C246.997 160.297 247.755 160.526 248.25 160.984C248.745 161.443 248.992 162.174 248.992 163.18V169H248.047L247.797 167.734H247.734C247.495 168.047 247.245 168.31 246.984 168.523C246.724 168.732 246.422 168.891 246.078 169C245.74 169.104 245.323 169.156 244.828 169.156C244.307 169.156 243.844 169.065 243.438 168.883C243.036 168.701 242.719 168.424 242.484 168.055C242.255 167.685 242.141 167.216 242.141 166.648C242.141 165.794 242.479 165.138 243.156 164.68C243.833 164.221 244.865 163.971 246.25 163.93L247.727 163.867V163.344C247.727 162.604 247.568 162.086 247.25 161.789C246.932 161.492 246.484 161.344 245.906 161.344C245.458 161.344 245.031 161.409 244.625 161.539C244.219 161.669 243.833 161.823 243.469 162L243.07 161.016C243.456 160.818 243.898 160.648 244.398 160.508C244.898 160.367 245.424 160.297 245.977 160.297ZM247.711 164.781L246.406 164.836C245.339 164.878 244.586 165.052 244.148 165.359C243.711 165.667 243.492 166.102 243.492 166.664C243.492 167.154 243.641 167.516 243.938 167.75C244.234 167.984 244.628 168.102 245.117 168.102C245.878 168.102 246.5 167.891 246.984 167.469C247.469 167.047 247.711 166.414 247.711 165.57V164.781ZM255.094 169.156C254.323 169.156 253.643 168.997 253.055 168.68C252.466 168.362 252.008 167.878 251.68 167.227C251.352 166.576 251.188 165.755 251.188 164.766C251.188 163.729 251.359 162.883 251.703 162.227C252.052 161.565 252.531 161.076 253.141 160.758C253.75 160.44 254.443 160.281 255.219 160.281C255.646 160.281 256.057 160.326 256.453 160.414C256.854 160.497 257.182 160.604 257.438 160.734L257.047 161.82C256.786 161.716 256.484 161.622 256.141 161.539C255.802 161.456 255.484 161.414 255.188 161.414C254.594 161.414 254.099 161.542 253.703 161.797C253.312 162.052 253.018 162.427 252.82 162.922C252.628 163.417 252.531 164.026 252.531 164.75C252.531 165.443 252.625 166.034 252.812 166.523C253.005 167.013 253.289 167.388 253.664 167.648C254.044 167.904 254.518 168.031 255.086 168.031C255.539 168.031 255.948 167.984 256.312 167.891C256.677 167.792 257.008 167.677 257.305 167.547V168.703C257.018 168.849 256.698 168.961 256.344 169.039C255.995 169.117 255.578 169.156 255.094 169.156ZM260.625 156.844V163.156C260.625 163.365 260.617 163.62 260.602 163.922C260.586 164.219 260.573 164.482 260.562 164.711H260.617C260.727 164.576 260.885 164.375 261.094 164.109C261.307 163.844 261.487 163.63 261.633 163.469L264.477 160.438H266L262.555 164.094L266.25 169H264.688L261.664 164.945L260.625 165.898V169H259.336V156.844H260.625ZM273.07 165.828H272.219L271.859 157.578H273.43L273.07 165.828ZM271.703 168.188C271.703 167.823 271.792 167.565 271.969 167.414C272.146 167.258 272.367 167.18 272.633 167.18C272.893 167.18 273.112 167.258 273.289 167.414C273.471 167.565 273.562 167.823 273.562 168.188C273.562 168.547 273.471 168.81 273.289 168.977C273.112 169.138 272.893 169.219 272.633 169.219C272.367 169.219 272.146 169.138 271.969 168.977C271.792 168.81 271.703 168.547 271.703 168.188Z" fill="#D9D9D9"/>
<line x1="158" y1="37.5" x2="179" y2="37.5" stroke="#D9D9D9"/>
<line x1="158" y1="43.5" x2="176" y2="43.5" stroke="#D9D9D9"/>
<line x1="158" y1="50.5" x2="169" y2="50.5" stroke="#D9D9D9"/>
<path d="M193.82 476.867C196.031 476.867 197.645 477.301 198.66 478.168C199.684 479.027 200.195 480.262 200.195 481.871C200.195 482.598 200.074 483.289 199.832 483.945C199.598 484.594 199.215 485.168 198.684 485.668C198.152 486.16 197.453 486.551 196.586 486.84C195.727 487.121 194.672 487.262 193.422 487.262H191.336V494H189.344V476.867H193.82ZM193.633 478.566H191.336V485.551H193.199C194.293 485.551 195.203 485.434 195.93 485.199C196.664 484.965 197.215 484.586 197.582 484.062C197.949 483.531 198.133 482.828 198.133 481.953C198.133 480.812 197.77 479.965 197.043 479.41C196.316 478.848 195.18 478.566 193.633 478.566ZM209.324 480.922C209.582 480.922 209.852 480.938 210.133 480.969C210.414 480.992 210.664 481.027 210.883 481.074L210.637 482.879C210.426 482.824 210.191 482.781 209.934 482.75C209.676 482.719 209.434 482.703 209.207 482.703C208.691 482.703 208.203 482.809 207.742 483.02C207.289 483.223 206.891 483.52 206.547 483.91C206.203 484.293 205.934 484.758 205.738 485.305C205.543 485.844 205.445 486.445 205.445 487.109V494H203.488V481.156H205.105L205.316 483.523H205.398C205.664 483.047 205.984 482.613 206.359 482.223C206.734 481.824 207.168 481.508 207.66 481.273C208.16 481.039 208.715 480.922 209.324 480.922ZM224.383 487.555C224.383 488.609 224.246 489.551 223.973 490.379C223.699 491.207 223.305 491.906 222.789 492.477C222.273 493.047 221.648 493.484 220.914 493.789C220.188 494.086 219.363 494.234 218.441 494.234C217.582 494.234 216.793 494.086 216.074 493.789C215.363 493.484 214.746 493.047 214.223 492.477C213.707 491.906 213.305 491.207 213.016 490.379C212.734 489.551 212.594 488.609 212.594 487.555C212.594 486.148 212.832 484.953 213.309 483.969C213.785 482.977 214.465 482.223 215.348 481.707C216.238 481.184 217.297 480.922 218.523 480.922C219.695 480.922 220.719 481.184 221.594 481.707C222.477 482.23 223.16 482.988 223.645 483.98C224.137 484.965 224.383 486.156 224.383 487.555ZM214.609 487.555C214.609 488.586 214.746 489.48 215.02 490.238C215.293 490.996 215.715 491.582 216.285 491.996C216.855 492.41 217.59 492.617 218.488 492.617C219.379 492.617 220.109 492.41 220.68 491.996C221.258 491.582 221.684 490.996 221.957 490.238C222.23 489.48 222.367 488.586 222.367 487.555C222.367 486.531 222.23 485.648 221.957 484.906C221.684 484.156 221.262 483.578 220.691 483.172C220.121 482.766 219.383 482.562 218.477 482.562C217.141 482.562 216.16 483.004 215.535 483.887C214.918 484.77 214.609 485.992 214.609 487.555ZM233.465 482.68H230.266V494H228.32V482.68H226.047V481.742L228.32 481.098V480.242C228.32 479.164 228.48 478.289 228.801 477.617C229.121 476.938 229.586 476.438 230.195 476.117C230.805 475.797 231.547 475.637 232.422 475.637C232.914 475.637 233.363 475.68 233.77 475.766C234.184 475.852 234.547 475.949 234.859 476.059L234.355 477.594C234.09 477.508 233.789 477.43 233.453 477.359C233.125 477.281 232.789 477.242 232.445 477.242C231.703 477.242 231.152 477.484 230.793 477.969C230.441 478.445 230.266 479.195 230.266 480.219V481.156H233.465V482.68ZM237.766 481.156V494H235.82V481.156H237.766ZM236.816 476.352C237.137 476.352 237.41 476.457 237.637 476.668C237.871 476.871 237.988 477.191 237.988 477.629C237.988 478.059 237.871 478.379 237.637 478.59C237.41 478.801 237.137 478.906 236.816 478.906C236.48 478.906 236.199 478.801 235.973 478.59C235.754 478.379 235.645 478.059 235.645 477.629C235.645 477.191 235.754 476.871 235.973 476.668C236.199 476.457 236.48 476.352 236.816 476.352ZM246.027 492.641C246.348 492.641 246.676 492.613 247.012 492.559C247.348 492.504 247.621 492.438 247.832 492.359V493.871C247.605 493.973 247.289 494.059 246.883 494.129C246.484 494.199 246.094 494.234 245.711 494.234C245.031 494.234 244.414 494.117 243.859 493.883C243.305 493.641 242.859 493.234 242.523 492.664C242.195 492.094 242.031 491.305 242.031 490.297V482.68H240.203V481.73L242.043 480.969L242.816 478.18H243.988V481.156H247.75V482.68H243.988V490.238C243.988 491.043 244.172 491.645 244.539 492.043C244.914 492.441 245.41 492.641 246.027 492.641Z" fill="black"/>
<path d="M204.203 669.41C204.203 670.73 204.035 671.934 203.699 673.02C203.363 674.098 202.863 675.027 202.199 675.809C201.543 676.582 200.727 677.18 199.75 677.602C198.773 678.023 197.641 678.234 196.352 678.234C195.023 678.234 193.863 678.023 192.871 677.602C191.887 677.18 191.066 676.578 190.41 675.797C189.762 675.016 189.273 674.082 188.945 672.996C188.625 671.91 188.465 670.707 188.465 669.387C188.465 667.637 188.754 666.102 189.332 664.781C189.91 663.461 190.785 662.434 191.957 661.699C193.137 660.965 194.613 660.598 196.387 660.598C198.082 660.598 199.508 660.961 200.664 661.688C201.828 662.414 202.707 663.438 203.301 664.758C203.902 666.07 204.203 667.621 204.203 669.41ZM190.562 669.41C190.562 670.863 190.77 672.121 191.184 673.184C191.598 674.246 192.23 675.066 193.082 675.645C193.941 676.223 195.031 676.512 196.352 676.512C197.68 676.512 198.766 676.223 199.609 675.645C200.461 675.066 201.09 674.246 201.496 673.184C201.902 672.121 202.105 670.863 202.105 669.41C202.105 667.199 201.641 665.473 200.711 664.23C199.789 662.98 198.348 662.355 196.387 662.355C195.059 662.355 193.965 662.641 193.105 663.211C192.246 663.781 191.605 664.594 191.184 665.648C190.77 666.695 190.562 667.949 190.562 669.41ZM213.566 664.922C213.824 664.922 214.094 664.938 214.375 664.969C214.656 664.992 214.906 665.027 215.125 665.074L214.879 666.879C214.668 666.824 214.434 666.781 214.176 666.75C213.918 666.719 213.676 666.703 213.449 666.703C212.934 666.703 212.445 666.809 211.984 667.02C211.531 667.223 211.133 667.52 210.789 667.91C210.445 668.293 210.176 668.758 209.98 669.305C209.785 669.844 209.688 670.445 209.688 671.109V678H207.73V665.156H209.348L209.559 667.523H209.641C209.906 667.047 210.227 666.613 210.602 666.223C210.977 665.824 211.41 665.508 211.902 665.273C212.402 665.039 212.957 664.922 213.566 664.922ZM222.121 678.234C220.496 678.234 219.207 677.68 218.254 676.57C217.309 675.461 216.836 673.812 216.836 671.625C216.836 669.414 217.32 667.746 218.289 666.621C219.258 665.488 220.547 664.922 222.156 664.922C222.836 664.922 223.43 665.012 223.938 665.191C224.445 665.371 224.883 665.613 225.25 665.918C225.617 666.215 225.926 666.555 226.176 666.938H226.316C226.285 666.695 226.254 666.363 226.223 665.941C226.191 665.52 226.176 665.176 226.176 664.91V659.766H228.121V678H226.551L226.258 676.172H226.176C225.934 676.555 225.625 676.902 225.25 677.215C224.883 677.527 224.441 677.777 223.926 677.965C223.418 678.145 222.816 678.234 222.121 678.234ZM222.426 676.617C223.801 676.617 224.773 676.227 225.344 675.445C225.914 674.664 226.199 673.504 226.199 671.965V671.613C226.199 669.98 225.926 668.727 225.379 667.852C224.84 666.977 223.855 666.539 222.426 666.539C221.23 666.539 220.336 667 219.742 667.922C219.148 668.836 218.852 670.086 218.852 671.672C218.852 673.25 219.145 674.469 219.73 675.328C220.324 676.188 221.223 676.617 222.426 676.617ZM237.191 664.922C238.285 664.922 239.223 665.164 240.004 665.648C240.785 666.133 241.383 666.812 241.797 667.688C242.211 668.555 242.418 669.57 242.418 670.734V671.941H233.547C233.57 673.449 233.945 674.598 234.672 675.387C235.398 676.176 236.422 676.57 237.742 676.57C238.555 676.57 239.273 676.496 239.898 676.348C240.523 676.199 241.172 675.98 241.844 675.691V677.402C241.195 677.691 240.551 677.902 239.91 678.035C239.277 678.168 238.527 678.234 237.66 678.234C236.426 678.234 235.348 677.984 234.426 677.484C233.512 676.977 232.801 676.234 232.293 675.258C231.785 674.281 231.531 673.086 231.531 671.672C231.531 670.289 231.762 669.094 232.223 668.086C232.691 667.07 233.348 666.289 234.191 665.742C235.043 665.195 236.043 664.922 237.191 664.922ZM237.168 666.516C236.129 666.516 235.301 666.855 234.684 667.535C234.066 668.215 233.699 669.164 233.582 670.383H240.379C240.371 669.617 240.25 668.945 240.016 668.367C239.789 667.781 239.441 667.328 238.973 667.008C238.504 666.68 237.902 666.516 237.168 666.516ZM251.559 664.922C251.816 664.922 252.086 664.938 252.367 664.969C252.648 664.992 252.898 665.027 253.117 665.074L252.871 666.879C252.66 666.824 252.426 666.781 252.168 666.75C251.91 666.719 251.668 666.703 251.441 666.703C250.926 666.703 250.438 666.809 249.977 667.02C249.523 667.223 249.125 667.52 248.781 667.91C248.438 668.293 248.168 668.758 247.973 669.305C247.777 669.844 247.68 670.445 247.68 671.109V678H245.723V665.156H247.34L247.551 667.523H247.633C247.898 667.047 248.219 666.613 248.594 666.223C248.969 665.824 249.402 665.508 249.895 665.273C250.395 665.039 250.949 664.922 251.559 664.922ZM263.852 674.484C263.852 675.305 263.645 675.996 263.23 676.559C262.824 677.113 262.238 677.531 261.473 677.812C260.715 678.094 259.809 678.234 258.754 678.234C257.855 678.234 257.078 678.164 256.422 678.023C255.766 677.883 255.191 677.684 254.699 677.426V675.633C255.223 675.891 255.848 676.125 256.574 676.336C257.301 676.547 258.043 676.652 258.801 676.652C259.91 676.652 260.715 676.473 261.215 676.113C261.715 675.754 261.965 675.266 261.965 674.648C261.965 674.297 261.863 673.988 261.66 673.723C261.465 673.449 261.133 673.188 260.664 672.938C260.195 672.68 259.547 672.398 258.719 672.094C257.898 671.781 257.188 671.473 256.586 671.168C255.992 670.855 255.531 670.477 255.203 670.031C254.883 669.586 254.723 669.008 254.723 668.297C254.723 667.211 255.16 666.379 256.035 665.801C256.918 665.215 258.074 664.922 259.504 664.922C260.277 664.922 261 665 261.672 665.156C262.352 665.305 262.984 665.508 263.57 665.766L262.914 667.324C262.383 667.098 261.816 666.906 261.215 666.75C260.613 666.594 260 666.516 259.375 666.516C258.477 666.516 257.785 666.664 257.301 666.961C256.824 667.258 256.586 667.664 256.586 668.18C256.586 668.578 256.695 668.906 256.914 669.164C257.141 669.422 257.5 669.664 257.992 669.891C258.484 670.117 259.133 670.383 259.938 670.688C260.742 670.984 261.438 671.293 262.023 671.613C262.609 671.926 263.059 672.309 263.371 672.762C263.691 673.207 263.852 673.781 263.852 674.484Z" fill="black"/>
<rect x="145" y="214" width="350" height="150" rx="20" fill="#9A82C2"/>
<path d="M199.012 294.441C199.012 295.457 198.758 296.324 198.25 297.043C197.75 297.754 197.047 298.297 196.141 298.672C195.234 299.047 194.168 299.234 192.941 299.234C192.293 299.234 191.68 299.203 191.102 299.141C190.523 299.078 189.992 298.988 189.508 298.871C189.023 298.754 188.598 298.609 188.23 298.438V296.527C188.816 296.77 189.531 296.996 190.375 297.207C191.219 297.41 192.102 297.512 193.023 297.512C193.883 297.512 194.609 297.398 195.203 297.172C195.797 296.938 196.246 296.605 196.551 296.176C196.863 295.738 197.02 295.215 197.02 294.605C197.02 294.02 196.891 293.531 196.633 293.141C196.375 292.742 195.945 292.383 195.344 292.062C194.75 291.734 193.938 291.387 192.906 291.02C192.18 290.762 191.539 290.48 190.984 290.176C190.43 289.863 189.965 289.512 189.59 289.121C189.215 288.73 188.93 288.277 188.734 287.762C188.547 287.246 188.453 286.656 188.453 285.992C188.453 285.078 188.684 284.297 189.145 283.648C189.613 282.992 190.258 282.492 191.078 282.148C191.906 281.797 192.855 281.621 193.926 281.621C194.84 281.621 195.684 281.707 196.457 281.879C197.238 282.051 197.953 282.281 198.602 282.57L197.98 284.281C197.363 284.023 196.707 283.809 196.012 283.637C195.324 283.465 194.613 283.379 193.879 283.379C193.145 283.379 192.523 283.488 192.016 283.707C191.516 283.918 191.133 284.219 190.867 284.609C190.602 285 190.469 285.465 190.469 286.004C190.469 286.605 190.594 287.105 190.844 287.504C191.102 287.902 191.508 288.258 192.062 288.57C192.625 288.875 193.367 289.195 194.289 289.531C195.297 289.898 196.152 290.289 196.855 290.703C197.559 291.109 198.094 291.609 198.461 292.203C198.828 292.789 199.012 293.535 199.012 294.441ZM207.027 285.945C208.559 285.945 209.695 286.289 210.438 286.977C211.18 287.664 211.551 288.762 211.551 290.27V299H210.133L209.758 297.102H209.664C209.305 297.57 208.93 297.965 208.539 298.285C208.148 298.598 207.695 298.836 207.18 299C206.672 299.156 206.047 299.234 205.305 299.234C204.523 299.234 203.828 299.098 203.219 298.824C202.617 298.551 202.141 298.137 201.789 297.582C201.445 297.027 201.273 296.324 201.273 295.473C201.273 294.191 201.781 293.207 202.797 292.52C203.812 291.832 205.359 291.457 207.438 291.395L209.652 291.301V290.516C209.652 289.406 209.414 288.629 208.938 288.184C208.461 287.738 207.789 287.516 206.922 287.516C206.25 287.516 205.609 287.613 205 287.809C204.391 288.004 203.812 288.234 203.266 288.5L202.668 287.023C203.246 286.727 203.91 286.473 204.66 286.262C205.41 286.051 206.199 285.945 207.027 285.945ZM209.629 292.672L207.672 292.754C206.07 292.816 204.941 293.078 204.285 293.539C203.629 294 203.301 294.652 203.301 295.496C203.301 296.23 203.523 296.773 203.969 297.125C204.414 297.477 205.004 297.652 205.738 297.652C206.879 297.652 207.812 297.336 208.539 296.703C209.266 296.07 209.629 295.121 209.629 293.855V292.672ZM217.516 299H215.559V280.766H217.516V299ZM226.574 285.922C227.668 285.922 228.605 286.164 229.387 286.648C230.168 287.133 230.766 287.812 231.18 288.688C231.594 289.555 231.801 290.57 231.801 291.734V292.941H222.93C222.953 294.449 223.328 295.598 224.055 296.387C224.781 297.176 225.805 297.57 227.125 297.57C227.938 297.57 228.656 297.496 229.281 297.348C229.906 297.199 230.555 296.98 231.227 296.691V298.402C230.578 298.691 229.934 298.902 229.293 299.035C228.66 299.168 227.91 299.234 227.043 299.234C225.809 299.234 224.73 298.984 223.809 298.484C222.895 297.977 222.184 297.234 221.676 296.258C221.168 295.281 220.914 294.086 220.914 292.672C220.914 291.289 221.145 290.094 221.605 289.086C222.074 288.07 222.73 287.289 223.574 286.742C224.426 286.195 225.426 285.922 226.574 285.922ZM226.551 287.516C225.512 287.516 224.684 287.855 224.066 288.535C223.449 289.215 223.082 290.164 222.965 291.383H229.762C229.754 290.617 229.633 289.945 229.398 289.367C229.172 288.781 228.824 288.328 228.355 288.008C227.887 287.68 227.285 287.516 226.551 287.516ZM243.414 295.484C243.414 296.305 243.207 296.996 242.793 297.559C242.387 298.113 241.801 298.531 241.035 298.812C240.277 299.094 239.371 299.234 238.316 299.234C237.418 299.234 236.641 299.164 235.984 299.023C235.328 298.883 234.754 298.684 234.262 298.426V296.633C234.785 296.891 235.41 297.125 236.137 297.336C236.863 297.547 237.605 297.652 238.363 297.652C239.473 297.652 240.277 297.473 240.777 297.113C241.277 296.754 241.527 296.266 241.527 295.648C241.527 295.297 241.426 294.988 241.223 294.723C241.027 294.449 240.695 294.188 240.227 293.938C239.758 293.68 239.109 293.398 238.281 293.094C237.461 292.781 236.75 292.473 236.148 292.168C235.555 291.855 235.094 291.477 234.766 291.031C234.445 290.586 234.285 290.008 234.285 289.297C234.285 288.211 234.723 287.379 235.598 286.801C236.48 286.215 237.637 285.922 239.066 285.922C239.84 285.922 240.562 286 241.234 286.156C241.914 286.305 242.547 286.508 243.133 286.766L242.477 288.324C241.945 288.098 241.379 287.906 240.777 287.75C240.176 287.594 239.562 287.516 238.938 287.516C238.039 287.516 237.348 287.664 236.863 287.961C236.387 288.258 236.148 288.664 236.148 289.18C236.148 289.578 236.258 289.906 236.477 290.164C236.703 290.422 237.062 290.664 237.555 290.891C238.047 291.117 238.695 291.383 239.5 291.688C240.305 291.984 241 292.293 241.586 292.613C242.172 292.926 242.621 293.309 242.934 293.762C243.254 294.207 243.414 294.781 243.414 295.484Z" fill="white"/>
<circle cx="434" cy="289" r="41.25" stroke="url(#paint0_linear_157_534)" stroke-width="7.5"/>
<path d="M414.619 281.455V296H412.858V283.301H412.773L409.222 285.659V283.869L412.858 281.455H414.619ZM423.547 296.199C422.477 296.199 421.565 295.908 420.812 295.325C420.06 294.738 419.484 293.888 419.087 292.776C418.689 291.658 418.49 290.309 418.49 288.727C418.49 287.155 418.689 285.813 419.087 284.7C419.489 283.583 420.067 282.731 420.82 282.143C421.577 281.552 422.486 281.256 423.547 281.256C424.607 281.256 425.514 281.552 426.267 282.143C427.025 282.731 427.602 283.583 428 284.7C428.402 285.813 428.604 287.155 428.604 288.727C428.604 290.309 428.405 291.658 428.007 292.776C427.609 293.888 427.034 294.738 426.281 295.325C425.528 295.908 424.617 296.199 423.547 296.199ZM423.547 294.636C424.607 294.636 425.431 294.125 426.018 293.102C426.606 292.08 426.899 290.621 426.899 288.727C426.899 287.468 426.764 286.395 426.494 285.51C426.229 284.625 425.846 283.95 425.344 283.486C424.847 283.022 424.248 282.79 423.547 282.79C422.496 282.79 421.674 283.308 421.082 284.345C420.491 285.377 420.195 286.838 420.195 288.727C420.195 289.987 420.327 291.057 420.592 291.938C420.857 292.818 421.239 293.488 421.736 293.947C422.238 294.407 422.841 294.636 423.547 294.636ZM436.047 296.199C434.977 296.199 434.065 295.908 433.312 295.325C432.56 294.738 431.984 293.888 431.587 292.776C431.189 291.658 430.99 290.309 430.99 288.727C430.99 287.155 431.189 285.813 431.587 284.7C431.989 283.583 432.567 282.731 433.32 282.143C434.077 281.552 434.986 281.256 436.047 281.256C437.107 281.256 438.014 281.552 438.767 282.143C439.525 282.731 440.102 283.583 440.5 284.7C440.902 285.813 441.104 287.155 441.104 288.727C441.104 290.309 440.905 291.658 440.507 292.776C440.109 293.888 439.534 294.738 438.781 295.325C438.028 295.908 437.117 296.199 436.047 296.199ZM436.047 294.636C437.107 294.636 437.931 294.125 438.518 293.102C439.106 292.08 439.399 290.621 439.399 288.727C439.399 287.468 439.264 286.395 438.994 285.51C438.729 284.625 438.346 283.95 437.844 283.486C437.347 283.022 436.748 282.79 436.047 282.79C434.996 282.79 434.174 283.308 433.582 284.345C432.991 285.377 432.695 286.838 432.695 288.727C432.695 289.987 432.827 291.057 433.092 291.938C433.357 292.818 433.739 293.488 434.236 293.947C434.738 294.407 435.341 294.636 436.047 294.636ZM451.217 293.273V292.506C451.217 291.975 451.326 291.49 451.544 291.05C451.767 290.605 452.089 290.25 452.51 289.984C452.936 289.714 453.452 289.58 454.058 289.58C454.674 289.58 455.19 289.714 455.607 289.984C456.023 290.25 456.338 290.605 456.551 291.05C456.764 291.49 456.871 291.975 456.871 292.506V293.273C456.871 293.803 456.762 294.291 456.544 294.736C456.331 295.176 456.014 295.531 455.592 295.801C455.176 296.066 454.664 296.199 454.058 296.199C453.443 296.199 452.924 296.066 452.503 295.801C452.081 295.531 451.762 295.176 451.544 294.736C451.326 294.291 451.217 293.803 451.217 293.273ZM452.666 292.506V293.273C452.666 293.713 452.77 294.108 452.979 294.459C453.187 294.804 453.547 294.977 454.058 294.977C454.555 294.977 454.906 294.804 455.109 294.459C455.318 294.108 455.422 293.713 455.422 293.273V292.506C455.422 292.065 455.322 291.672 455.124 291.327C454.925 290.976 454.57 290.801 454.058 290.801C453.561 290.801 453.204 290.976 452.986 291.327C452.773 291.672 452.666 292.065 452.666 292.506ZM443.973 284.949V284.182C443.973 283.652 444.082 283.166 444.3 282.726C444.522 282.281 444.844 281.926 445.266 281.661C445.692 281.391 446.208 281.256 446.814 281.256C447.429 281.256 447.946 281.391 448.362 281.661C448.779 281.926 449.094 282.281 449.307 282.726C449.52 283.166 449.626 283.652 449.626 284.182V284.949C449.626 285.479 449.518 285.967 449.3 286.412C449.087 286.852 448.769 287.207 448.348 287.477C447.931 287.742 447.42 287.875 446.814 287.875C446.198 287.875 445.68 287.742 445.259 287.477C444.837 287.207 444.518 286.852 444.3 286.412C444.082 285.967 443.973 285.479 443.973 284.949ZM445.422 284.182V284.949C445.422 285.389 445.526 285.785 445.734 286.135C445.943 286.481 446.303 286.653 446.814 286.653C447.311 286.653 447.661 286.481 447.865 286.135C448.073 285.785 448.178 285.389 448.178 284.949V284.182C448.178 283.741 448.078 283.348 447.879 283.003C447.68 282.652 447.325 282.477 446.814 282.477C446.317 282.477 445.959 282.652 445.741 283.003C445.528 283.348 445.422 283.741 445.422 284.182ZM444.513 296L454.513 281.455H456.132L446.132 296H444.513Z" fill="white"/>
<circle cx="434" cy="668" r="41.25" stroke="url(#paint1_linear_157_534)" stroke-width="7.5"/>
<path d="M414.619 660.455V675H412.858V662.301H412.773L409.222 664.659V662.869L412.858 660.455H414.619ZM423.547 675.199C422.477 675.199 421.565 674.908 420.812 674.325C420.06 673.738 419.484 672.888 419.087 671.776C418.689 670.658 418.49 669.309 418.49 667.727C418.49 666.155 418.689 664.813 419.087 663.7C419.489 662.583 420.067 661.731 420.82 661.143C421.577 660.552 422.486 660.256 423.547 660.256C424.607 660.256 425.514 660.552 426.267 661.143C427.025 661.731 427.602 662.583 428 663.7C428.402 664.813 428.604 666.155 428.604 667.727C428.604 669.309 428.405 670.658 428.007 671.776C427.609 672.888 427.034 673.738 426.281 674.325C425.528 674.908 424.617 675.199 423.547 675.199ZM423.547 673.636C424.607 673.636 425.431 673.125 426.018 672.102C426.606 671.08 426.899 669.621 426.899 667.727C426.899 666.468 426.764 665.395 426.494 664.51C426.229 663.625 425.846 662.95 425.344 662.486C424.847 662.022 424.248 661.79 423.547 661.79C422.496 661.79 421.674 662.308 421.082 663.345C420.491 664.377 420.195 665.838 420.195 667.727C420.195 668.987 420.327 670.057 420.592 670.938C420.857 671.818 421.239 672.488 421.736 672.947C422.238 673.407 422.841 673.636 423.547 673.636ZM436.047 675.199C434.977 675.199 434.065 674.908 433.312 674.325C432.56 673.738 431.984 672.888 431.587 671.776C431.189 670.658 430.99 669.309 430.99 667.727C430.99 666.155 431.189 664.813 431.587 663.7C431.989 662.583 432.567 661.731 433.32 661.143C434.077 660.552 434.986 660.256 436.047 660.256C437.107 660.256 438.014 660.552 438.767 661.143C439.525 661.731 440.102 662.583 440.5 663.7C440.902 664.813 441.104 666.155 441.104 667.727C441.104 669.309 440.905 670.658 440.507 671.776C440.109 672.888 439.534 673.738 438.781 674.325C438.028 674.908 437.117 675.199 436.047 675.199ZM436.047 673.636C437.107 673.636 437.931 673.125 438.518 672.102C439.106 671.08 439.399 669.621 439.399 667.727C439.399 666.468 439.264 665.395 438.994 664.51C438.729 663.625 438.346 662.95 437.844 662.486C437.347 662.022 436.748 661.79 436.047 661.79C434.996 661.79 434.174 662.308 433.582 663.345C432.991 664.377 432.695 665.838 432.695 667.727C432.695 668.987 432.827 670.057 433.092 670.938C433.357 671.818 433.739 672.488 434.236 672.947C434.738 673.407 435.341 673.636 436.047 673.636ZM451.217 672.273V671.506C451.217 670.975 451.326 670.49 451.544 670.05C451.767 669.605 452.089 669.25 452.51 668.984C452.936 668.714 453.452 668.58 454.058 668.58C454.674 668.58 455.19 668.714 455.607 668.984C456.023 669.25 456.338 669.605 456.551 670.05C456.764 670.49 456.871 670.975 456.871 671.506V672.273C456.871 672.803 456.762 673.291 456.544 673.736C456.331 674.176 456.014 674.531 455.592 674.801C455.176 675.066 454.664 675.199 454.058 675.199C453.443 675.199 452.924 675.066 452.503 674.801C452.081 674.531 451.762 674.176 451.544 673.736C451.326 673.291 451.217 672.803 451.217 672.273ZM452.666 671.506V672.273C452.666 672.713 452.77 673.108 452.979 673.459C453.187 673.804 453.547 673.977 454.058 673.977C454.555 673.977 454.906 673.804 455.109 673.459C455.318 673.108 455.422 672.713 455.422 672.273V671.506C455.422 671.065 455.322 670.672 455.124 670.327C454.925 669.976 454.57 669.801 454.058 669.801C453.561 669.801 453.204 669.976 452.986 670.327C452.773 670.672 452.666 671.065 452.666 671.506ZM443.973 663.949V663.182C443.973 662.652 444.082 662.166 444.3 661.726C444.522 661.281 444.844 660.926 445.266 660.661C445.692 660.391 446.208 660.256 446.814 660.256C447.429 660.256 447.946 660.391 448.362 660.661C448.779 660.926 449.094 661.281 449.307 661.726C449.52 662.166 449.626 662.652 449.626 663.182V663.949C449.626 664.479 449.518 664.967 449.3 665.412C449.087 665.852 448.769 666.207 448.348 666.477C447.931 666.742 447.42 666.875 446.814 666.875C446.198 666.875 445.68 666.742 445.259 666.477C444.837 666.207 444.518 665.852 444.3 665.412C444.082 664.967 443.973 664.479 443.973 663.949ZM445.422 663.182V663.949C445.422 664.389 445.526 664.785 445.734 665.135C445.943 665.481 446.303 665.653 446.814 665.653C447.311 665.653 447.661 665.481 447.865 665.135C448.073 664.785 448.178 664.389 448.178 663.949V663.182C448.178 662.741 448.078 662.348 447.879 662.003C447.68 661.652 447.325 661.477 446.814 661.477C446.317 661.477 445.959 661.652 445.741 662.003C445.528 662.348 445.422 662.741 445.422 663.182ZM444.513 675L454.513 660.455H456.132L446.132 675H444.513Z" fill="white"/>
<circle cx="434" cy="479" r="41.25" stroke="url(#paint2_linear_157_534)" stroke-width="7.5"/>
<path d="M414.619 471.455V486H412.858V473.301H412.773L409.222 475.659V473.869L412.858 471.455H414.619ZM423.547 486.199C422.477 486.199 421.565 485.908 420.812 485.325C420.06 484.738 419.484 483.888 419.087 482.776C418.689 481.658 418.49 480.309 418.49 478.727C418.49 477.155 418.689 475.813 419.087 474.7C419.489 473.583 420.067 472.731 420.82 472.143C421.577 471.552 422.486 471.256 423.547 471.256C424.607 471.256 425.514 471.552 426.267 472.143C427.025 472.731 427.602 473.583 428 474.7C428.402 475.813 428.604 477.155 428.604 478.727C428.604 480.309 428.405 481.658 428.007 482.776C427.609 483.888 427.034 484.738 426.281 485.325C425.528 485.908 424.617 486.199 423.547 486.199ZM423.547 484.636C424.607 484.636 425.431 484.125 426.018 483.102C426.606 482.08 426.899 480.621 426.899 478.727C426.899 477.468 426.764 476.395 426.494 475.51C426.229 474.625 425.846 473.95 425.344 473.486C424.847 473.022 424.248 472.79 423.547 472.79C422.496 472.79 421.674 473.308 421.082 474.345C420.491 475.377 420.195 476.838 420.195 478.727C420.195 479.987 420.327 481.057 420.592 481.938C420.857 482.818 421.239 483.488 421.736 483.947C422.238 484.407 422.841 484.636 423.547 484.636ZM436.047 486.199C434.977 486.199 434.065 485.908 433.312 485.325C432.56 484.738 431.984 483.888 431.587 482.776C431.189 481.658 430.99 480.309 430.99 478.727C430.99 477.155 431.189 475.813 431.587 474.7C431.989 473.583 432.567 472.731 433.32 472.143C434.077 471.552 434.986 471.256 436.047 471.256C437.107 471.256 438.014 471.552 438.767 472.143C439.525 472.731 440.102 473.583 440.5 474.7C440.902 475.813 441.104 477.155 441.104 478.727C441.104 480.309 440.905 481.658 440.507 482.776C440.109 483.888 439.534 484.738 438.781 485.325C438.028 485.908 437.117 486.199 436.047 486.199ZM436.047 484.636C437.107 484.636 437.931 484.125 438.518 483.102C439.106 482.08 439.399 480.621 439.399 478.727C439.399 477.468 439.264 476.395 438.994 475.51C438.729 474.625 438.346 473.95 437.844 473.486C437.347 473.022 436.748 472.79 436.047 472.79C434.996 472.79 434.174 473.308 433.582 474.345C432.991 475.377 432.695 476.838 432.695 478.727C432.695 479.987 432.827 481.057 433.092 481.938C433.357 482.818 433.739 483.488 434.236 483.947C434.738 484.407 435.341 484.636 436.047 484.636ZM451.217 483.273V482.506C451.217 481.975 451.326 481.49 451.544 481.05C451.767 480.605 452.089 480.25 452.51 479.984C452.936 479.714 453.452 479.58 454.058 479.58C454.674 479.58 455.19 479.714 455.607 479.984C456.023 480.25 456.338 480.605 456.551 481.05C456.764 481.49 456.871 481.975 456.871 482.506V483.273C456.871 483.803 456.762 484.291 456.544 484.736C456.331 485.176 456.014 485.531 455.592 485.801C455.176 486.066 454.664 486.199 454.058 486.199C453.443 486.199 452.924 486.066 452.503 485.801C452.081 485.531 451.762 485.176 451.544 484.736C451.326 484.291 451.217 483.803 451.217 483.273ZM452.666 482.506V483.273C452.666 483.713 452.77 484.108 452.979 484.459C453.187 484.804 453.547 484.977 454.058 484.977C454.555 484.977 454.906 484.804 455.109 484.459C455.318 484.108 455.422 483.713 455.422 483.273V482.506C455.422 482.065 455.322 481.672 455.124 481.327C454.925 480.976 454.57 480.801 454.058 480.801C453.561 480.801 453.204 480.976 452.986 481.327C452.773 481.672 452.666 482.065 452.666 482.506ZM443.973 474.949V474.182C443.973 473.652 444.082 473.166 444.3 472.726C444.522 472.281 444.844 471.926 445.266 471.661C445.692 471.391 446.208 471.256 446.814 471.256C447.429 471.256 447.946 471.391 448.362 471.661C448.779 471.926 449.094 472.281 449.307 472.726C449.52 473.166 449.626 473.652 449.626 474.182V474.949C449.626 475.479 449.518 475.967 449.3 476.412C449.087 476.852 448.769 477.207 448.348 477.477C447.931 477.742 447.42 477.875 446.814 477.875C446.198 477.875 445.68 477.742 445.259 477.477C444.837 477.207 444.518 476.852 444.3 476.412C444.082 475.967 443.973 475.479 443.973 474.949ZM445.422 474.182V474.949C445.422 475.389 445.526 475.785 445.734 476.135C445.943 476.481 446.303 476.653 446.814 476.653C447.311 476.653 447.661 476.481 447.865 476.135C448.073 475.785 448.178 475.389 448.178 474.949V474.182C448.178 473.741 448.078 473.348 447.879 473.003C447.68 472.652 447.325 472.477 446.814 472.477C446.317 472.477 445.959 472.652 445.741 473.003C445.528 473.348 445.422 473.741 445.422 474.182ZM444.513 486L454.513 471.455H456.132L446.132 486H444.513Z" fill="white"/>
<circle cx="434" cy="479" r="41.25" stroke="url(#paint3_linear_157_534)" stroke-width="7.5"/>
<path d="M414.619 471.455V486H412.858V473.301H412.773L409.222 475.659V473.869L412.858 471.455H414.619ZM423.547 486.199C422.477 486.199 421.565 485.908 420.812 485.325C420.06 484.738 419.484 483.888 419.087 482.776C418.689 481.658 418.49 480.309 418.49 478.727C418.49 477.155 418.689 475.813 419.087 474.7C419.489 473.583 420.067 472.731 420.82 472.143C421.577 471.552 422.486 471.256 423.547 471.256C424.607 471.256 425.514 471.552 426.267 472.143C427.025 472.731 427.602 473.583 428 474.7C428.402 475.813 428.604 477.155 428.604 478.727C428.604 480.309 428.405 481.658 428.007 482.776C427.609 483.888 427.034 484.738 426.281 485.325C425.528 485.908 424.617 486.199 423.547 486.199ZM423.547 484.636C424.607 484.636 425.431 484.125 426.018 483.102C426.606 482.08 426.899 480.621 426.899 478.727C426.899 477.468 426.764 476.395 426.494 475.51C426.229 474.625 425.846 473.95 425.344 473.486C424.847 473.022 424.248 472.79 423.547 472.79C422.496 472.79 421.674 473.308 421.082 474.345C420.491 475.377 420.195 476.838 420.195 478.727C420.195 479.987 420.327 481.057 420.592 481.938C420.857 482.818 421.239 483.488 421.736 483.947C422.238 484.407 422.841 484.636 423.547 484.636ZM436.047 486.199C434.977 486.199 434.065 485.908 433.312 485.325C432.56 484.738 431.984 483.888 431.587 482.776C431.189 481.658 430.99 480.309 430.99 478.727C430.99 477.155 431.189 475.813 431.587 474.7C431.989 473.583 432.567 472.731 433.32 472.143C434.077 471.552 434.986 471.256 436.047 471.256C437.107 471.256 438.014 471.552 438.767 472.143C439.525 472.731 440.102 473.583 440.5 474.7C440.902 475.813 441.104 477.155 441.104 478.727C441.104 480.309 440.905 481.658 440.507 482.776C440.109 483.888 439.534 484.738 438.781 485.325C438.028 485.908 437.117 486.199 436.047 486.199ZM436.047 484.636C437.107 484.636 437.931 484.125 438.518 483.102C439.106 482.08 439.399 480.621 439.399 478.727C439.399 477.468 439.264 476.395 438.994 475.51C438.729 474.625 438.346 473.95 437.844 473.486C437.347 473.022 436.748 472.79 436.047 472.79C434.996 472.79 434.174 473.308 433.582 474.345C432.991 475.377 432.695 476.838 432.695 478.727C432.695 479.987 432.827 481.057 433.092 481.938C433.357 482.818 433.739 483.488 434.236 483.947C434.738 484.407 435.341 484.636 436.047 484.636ZM451.217 483.273V482.506C451.217 481.975 451.326 481.49 451.544 481.05C451.767 480.605 452.089 480.25 452.51 479.984C452.936 479.714 453.452 479.58 454.058 479.58C454.674 479.58 455.19 479.714 455.607 479.984C456.023 480.25 456.338 480.605 456.551 481.05C456.764 481.49 456.871 481.975 456.871 482.506V483.273C456.871 483.803 456.762 484.291 456.544 484.736C456.331 485.176 456.014 485.531 455.592 485.801C455.176 486.066 454.664 486.199 454.058 486.199C453.443 486.199 452.924 486.066 452.503 485.801C452.081 485.531 451.762 485.176 451.544 484.736C451.326 484.291 451.217 483.803 451.217 483.273ZM452.666 482.506V483.273C452.666 483.713 452.77 484.108 452.979 484.459C453.187 484.804 453.547 484.977 454.058 484.977C454.555 484.977 454.906 484.804 455.109 484.459C455.318 484.108 455.422 483.713 455.422 483.273V482.506C455.422 482.065 455.322 481.672 455.124 481.327C454.925 480.976 454.57 480.801 454.058 480.801C453.561 480.801 453.204 480.976 452.986 481.327C452.773 481.672 452.666 482.065 452.666 482.506ZM443.973 474.949V474.182C443.973 473.652 444.082 473.166 444.3 472.726C444.522 472.281 444.844 471.926 445.266 471.661C445.692 471.391 446.208 471.256 446.814 471.256C447.429 471.256 447.946 471.391 448.362 471.661C448.779 471.926 449.094 472.281 449.307 472.726C449.52 473.166 449.626 473.652 449.626 474.182V474.949C449.626 475.479 449.518 475.967 449.3 476.412C449.087 476.852 448.769 477.207 448.348 477.477C447.931 477.742 447.42 477.875 446.814 477.875C446.198 477.875 445.68 477.742 445.259 477.477C444.837 477.207 444.518 476.852 444.3 476.412C444.082 475.967 443.973 475.479 443.973 474.949ZM445.422 474.182V474.949C445.422 475.389 445.526 475.785 445.734 476.135C445.943 476.481 446.303 476.653 446.814 476.653C447.311 476.653 447.661 476.481 447.865 476.135C448.073 475.785 448.178 475.389 448.178 474.949V474.182C448.178 473.741 448.078 473.348 447.879 473.003C447.68 472.652 447.325 472.477 446.814 472.477C446.317 472.477 445.959 472.652 445.741 473.003C445.528 473.348 445.422 473.741 445.422 474.182ZM444.513 486L454.513 471.455H456.132L446.132 486H444.513Z" fill="white"/>
<path d="M471.906 811.34C468.415 813.789 466.394 813.742 462.687 811.34C457.326 810.358 454.018 822.995 460.844 824H473.626C479.997 823.751 478.354 810.916 471.906 811.34Z" stroke="#D9D9D9"/>
<circle cx="467.235" cy="805.146" r="5.64549" stroke="#D9D9D9"/>
<path d="M162.386 810.614C163.436 809.433 172.622 800.378 173.41 799.59C174.197 798.803 174.985 798.803 175.772 799.59C176.559 800.378 185.483 809.489 186.533 810.614C187.583 811.739 186.271 813.239 185.09 813.239H184.696C184.171 813.239 184.171 813.501 184.171 814.026V821.9C184.171 823.344 183.121 824 182.465 824H178.659C177.872 824 177.872 824 177.872 822.95V817.701C177.872 815.863 176.822 815.601 175.772 815.601H173.147C171.835 815.601 171.31 816.651 171.31 817.963V822.95C171.31 823.738 171.179 824 169.998 824H167.11C165.667 824 165.011 822.819 165.011 821.9V814.026C165.021 813.535 164.879 813.239 164.223 813.239H163.698C162.648 813.239 161.336 811.795 162.386 810.614Z" fill="#D9D9D9" stroke="#D9D9D9"/>
<path d="M263.811 804.625C263.811 804.625 274.436 799 275.061 799C275.687 799 286.311 804 286.311 804M263.811 804.625L275.061 810.875M263.811 804.625C263.811 804.625 259.436 808.375 260.061 809L262.825 810.535M286.311 804L275.061 810.875M286.311 804C286.311 804 290.061 808.779 290.061 809C290.061 809.221 279.436 815.25 278.811 815.25C278.186 815.25 275.061 810.875 275.061 810.875M275.061 810.875C275.061 810.875 271.936 815.25 271.311 815.25C270.686 815.25 262.825 810.535 262.825 810.535M275.061 810.875V824M275.061 824C275.061 824 291.311 815.063 287.561 817.125M275.061 824L263.186 817.75L262.825 810.535" stroke="#D9D9D9"/>
<circle cx="286.937" cy="814.625" r="0.9375" fill="#D9D9D9"/>
</g>
<rect x="125.5" y="0.5" width="389" height="843" rx="19.5" stroke="black"/>
<rect y="518" width="250" height="250" rx="20" fill="#CFEDDA"/>
<rect x="199" y="558" width="30" height="170" rx="15" fill="#0FA54A"/>
<rect x="155" y="592" width="30" height="136" rx="15" fill="#0FA54A"/>
<rect x="110" y="634" width="30" height="94" rx="15" fill="#0FA54A"/>
<rect x="65" y="647" width="30" height="81" rx="15" fill="#0FA54A"/>
<rect x="20" y="666" width="30" height="62" rx="15" fill="#0FA54A"/>
<rect x="20" y="691" width="30" height="37" rx="15" fill="#DFB921"/>
<rect x="110" y="666" width="30" height="62" rx="15" fill="#DFB921"/>
<rect x="155" y="652" width="30" height="76" rx="15" fill="#DFB921"/>
<rect x="199" y="623" width="30" height="105" rx="15" fill="#DFB921"/>
<rect x="65" y="682" width="30" height="46" rx="15" fill="#DFB921"/>
<rect x="381" y="93" width="200" height="100" rx="20" fill="#CFEDDA"/>
<mask id="mask0_157_534" style="mask-type:alpha" maskUnits="userSpaceOnUse" x="401" y="114" width="160" height="58">
<rect x="401" y="114" width="160" height="58" fill="url(#paint4_linear_157_534)"/>
</mask>
<g mask="url(#mask0_157_534)">
<path d="M401 172.5L431.5 143.5L450.5 153.5L481.5 133L501.5 163L531 123L561 114" stroke="#0FA54A" stroke-width="5"/>
</g>
<defs>
<filter id="filter0_d_157_534" x="125" y="780" width="398" height="68" filterUnits="userSpaceOnUse" color-interpolation-filters="sRGB">
<feFlood flood-opacity="0" result="BackgroundImageFix"/>
<feColorMatrix in="SourceAlpha" type="matrix" values="0 0 0 0 0 0 0 0 0 0 0 0 0 0 0 0 0 0 127 0" result="hardAlpha"/>
<feOffset dx="4"/>
<feGaussianBlur stdDeviation="2"/>
<feComposite in2="hardAlpha" operator="out"/>
<feColorMatrix type="matrix" values="0 0 0 0 0 0 0 0 0 0 0 0 0 0 0 0 0 0 0.25 0"/>
<feBlend mode="normal" in2="BackgroundImageFix" result="effect1_dropShadow_157_534"/>
<feBlend mode="normal" in="SourceGraphic" in2="effect1_dropShadow_157_534" result="shape"/>
</filter>
<linearGradient id="paint0_linear_157_534" x1="434" y1="194.5" x2="434" y2="517.5" gradientUnits="userSpaceOnUse">
<stop stop-color="white"/>
<stop offset="1" stop-color="#D9D9D9" stop-opacity="0"/>
</linearGradient>
<linearGradient id="paint1_linear_157_534" x1="434" y1="573.5" x2="434" y2="896.5" gradientUnits="userSpaceOnUse">
<stop stop-color="white"/>
<stop offset="1" stop-color="#D9D9D9" stop-opacity="0"/>
</linearGradient>
<linearGradient id="paint2_linear_157_534" x1="434" y1="384.5" x2="434" y2="707.5" gradientUnits="userSpaceOnUse">
<stop stop-color="white"/>
<stop offset="1" stop-color="#D9D9D9" stop-opacity="0"/>
</linearGradient>
<linearGradient id="paint3_linear_157_534" x1="434" y1="384.5" x2="434" y2="707.5" gradientUnits="userSpaceOnUse">
<stop stop-color="white"/>
<stop offset="1" stop-color="#D9D9D9" stop-opacity="0"/>
</linearGradient>
<linearGradient id="paint4_linear_157_534" x1="609.5" y1="97.5" x2="365" y2="183" gradientUnits="userSpaceOnUse">
<stop stop-color="#06662C"/>
<stop offset="1" stop-color="#88918B" stop-opacity="0"/>
</linearGradient>
<clipPath id="clip0_157_534">
<rect x="125" width="390" height="844" rx="20" fill="white"/>
</clipPath>
</defs>
</svg>
