<svg width="109" height="106" viewBox="0 0 109 106" fill="none" xmlns="http://www.w3.org/2000/svg">
<path d="M69.6339 52.6448C69.6339 52.6448 69.6339 78.8224 69.6339 81.2022C69.6339 83.582 64.8743 89.5315 61.3047 89.5315C57.735 89.5315 43.4563 89.5315 39.8866 89.5315C36.3169 89.5315 29.1776 99.0506 25.6079 101.43C22.0382 103.81 17.2787 103.215 17.2787 101.43C17.2787 99.6455 17.2787 93.6961 17.2787 89.5315C17.2787 85.3668 2.99997 90.7214 3 81.2022C3.00003 71.6831 3 51.4549 3 47.8853C3 44.3156 8.94945 39.556 12.5191 39.556C16.0888 39.556 37.5068 39.556 37.5068 39.556" stroke="#0FA54A" stroke-width="6"/>
<path d="M25.0129 21.1125C22.6332 21.1125 19.0635 21.1123 16.6837 21.1125C14.3039 21.1127 14.3039 27.0622 16.6837 27.062C19.0635 27.0618 22.6332 27.062 25.0129 27.062C27.3927 27.062 27.3927 21.1125 25.0129 21.1125Z" fill="#0FA54A"/>
<path d="M92.6583 81.4403C90.0405 81.4403 86.1138 81.4401 83.4961 81.4403C80.8783 81.4405 80.8783 87.3899 83.4961 87.3897C86.1138 87.3895 90.0405 87.3897 92.6583 87.3897C95.276 87.3897 95.276 81.4403 92.6583 81.4403Z" fill="#0FA54A"/>
<path d="M47.026 3.26439C42.8613 3.85927 38.6967 8.02392 38.6967 12.1886V44.3156C38.6967 47.8853 43.4563 52.6449 47.026 52.6449H66.0642C70.8238 52.6449 70.2288 53.2398 70.8238 53.8348C71.4187 54.4298 82.1277 64.5438 85.1025 66.9236C88.0772 69.3033 89.862 68.1134 89.862 63.3539V53.8348C89.862 53.2398 90.457 52.6448 91.0519 52.6449L91.2702 52.6449C91.6187 52.6449 91.9672 52.6449 97.0014 52.6449C102.951 52.6449 105.331 47.8853 105.331 41.9359V12.1886C105.331 8.61887 100.571 3.26438 97.5963 3.26439C94.6216 3.2644 51.1906 2.66951 47.026 3.26439Z" stroke="#0FA54A" stroke-width="6"/>
<path d="M86.2925 17.5428C83.9128 17.5426 60.7099 17.5428 57.7351 17.5428C54.7603 17.5428 54.7602 24.0872 57.7351 24.0872C60.7099 24.0872 83.9128 24.087 86.2925 24.0872C88.6721 24.0874 88.6721 17.543 86.2925 17.5428Z" fill="#0FA54A"/>
<path d="M86.1437 31.2269C83.764 31.2267 60.5611 31.2269 57.5863 31.2269C54.6115 31.2269 54.6114 37.7713 57.5863 37.7713C60.5611 37.7713 83.764 37.7711 86.1437 37.7713C88.5233 37.7715 88.5233 31.2271 86.1437 31.2269Z" fill="#0FA54A"/>
<circle cx="24.418" cy="64.5438" r="3.56967" fill="#0FA54A"/>
<circle cx="24.418" cy="64.5438" r="3.56967" fill="#0FA54A"/>
<circle cx="51.0716" cy="64.5438" r="3.56967" fill="#0FA54A"/>
<circle cx="51.0716" cy="64.5438" r="3.56967" fill="#0FA54A"/>
<circle cx="37.8637" cy="64.5438" r="3.56967" fill="#0FA54A"/>
<circle cx="37.8637" cy="64.5438" r="3.56967" fill="#0FA54A"/>
</svg>
