<svg width="440" height="649" viewBox="0 0 440 649" fill="none" xmlns="http://www.w3.org/2000/svg">
<rect x="5" y="5" width="380" height="639" rx="15" stroke="#D9D9D9" stroke-width="10"/>
<rect x="50" y="50" width="390" height="550" rx="20" fill="#727EE9"/>
<rect x="246" y="323" width="96" height="70" rx="4" fill="#89B782" stroke="white" stroke-width="2"/>
<line x1="246" y1="376" x2="344" y2="376" stroke="white" stroke-width="2"/>
<circle cx="283.5" cy="385.5" r="2.5" stroke="white" stroke-width="2"/>
<circle cx="305.5" cy="385.5" r="2.5" stroke="white" stroke-width="2"/>
<circle cx="294.5" cy="385.5" r="2.5" stroke="white" stroke-width="2"/>
<path d="M280.5 345L277 341L275.5 333.5L284.5 336L287 338.5M280.5 345L286 350.5L292.5 344L287 338.5M280.5 345L287 338.5M301.5 366.156C302.698 367.319 303.727 368.298 304.5 369C310 374 316 367.5 311 362.5C310.261 361.761 309.226 360.726 308 359.5M301.5 366.156L308 359.5M301.5 366.156L295 360L301.5 353.5L308 359.5" stroke="white" stroke-width="2"/>
<rect x="274.553" y="362.674" width="42.5977" height="11.7815" rx="1" transform="rotate(-45 274.553 362.674)" stroke="white" stroke-width="2"/>
<path d="M282.165 365.374C282.769 365.978 285.791 369 285.791 369L287 367.791C287 367.791 283.978 364.769 283.374 364.165C282.769 363.56 281.56 364.769 282.165 365.374Z" fill="white"/>
<path d="M296.165 351.374C296.769 351.978 299.791 355 299.791 355L301 353.791C301 353.791 297.978 350.769 297.374 350.165C296.769 349.56 295.56 350.769 296.165 351.374Z" fill="white"/>
<path d="M284.698 361.648C285.423 362.373 289.049 366 289.049 366L290.5 364.549C290.5 364.549 286.874 360.923 286.148 360.198C285.423 359.472 283.972 360.923 284.698 361.648Z" fill="white"/>
<path d="M289.165 358.374C289.769 358.978 292.791 362 292.791 362L294 360.791C294 360.791 290.978 357.769 290.374 357.165C289.769 356.56 288.56 357.769 289.165 358.374Z" fill="white"/>
<path d="M303.165 344.374C303.769 344.978 306.791 348 306.791 348L308 346.791C308 346.791 304.978 343.769 304.374 343.165C303.769 342.56 302.56 343.769 303.165 344.374Z" fill="white"/>
<path d="M291.698 353.648C292.423 354.373 296.049 358 296.049 358L297.5 356.549C297.5 356.549 293.874 352.923 293.148 352.198C292.423 351.472 290.972 352.923 291.698 353.648Z" fill="white"/>
<path d="M299.198 346.648C299.923 347.373 303.549 351 303.549 351L305 349.549C305 349.549 301.374 345.923 300.648 345.198C299.923 344.472 298.472 345.923 299.198 346.648Z" fill="white"/>
<path d="M305.198 340.648C305.923 341.373 309.549 345 309.549 345L311 343.549C311 343.549 307.374 339.923 306.648 339.198C305.923 338.472 304.472 339.923 305.198 340.648Z" fill="white"/>
<circle cx="140.5" cy="317.5" r="2.5" fill="#E9DD72"/>
<circle cx="160.5" cy="367.5" r="2.5" fill="#E9DD72"/>
<circle cx="190.5" cy="367.5" r="2.5" fill="#E9DD72"/>
<circle cx="210.5" cy="367.5" r="2.5" fill="#E9DD72"/>
<circle cx="220.5" cy="367.5" r="2.5" fill="#E9DD72"/>
<circle cx="230.5" cy="367.5" r="2.5" fill="#E9DD72"/>
<circle cx="200.5" cy="367.5" r="2.5" fill="#E9DD72"/>
<circle cx="180.5" cy="367.5" r="2.5" fill="#E9DD72"/>
<circle cx="170.5" cy="367.5" r="2.5" fill="#E9DD72"/>
<circle cx="150.5" cy="367.5" r="2.5" fill="#E9DD72"/>
<circle cx="140.5" cy="357.5" r="2.5" fill="#E9DD72"/>
<circle cx="140.5" cy="367.5" r="2.5" fill="#E9DD72"/>
<circle cx="140.5" cy="347.5" r="2.5" fill="#E9DD72"/>
<circle cx="140.5" cy="337.5" r="2.5" fill="#E9DD72"/>
<circle cx="140.5" cy="327.5" r="2.5" fill="#E9DD72"/>
<circle cx="294.5" cy="471.5" r="2.5" fill="#E9A272"/>
<circle cx="294.5" cy="501.5" r="2.5" fill="#E9A272"/>
<circle cx="284.5" cy="501.5" r="2.5" fill="#E9A272"/>
<circle cx="274.5" cy="501.5" r="2.5" fill="#E9A272"/>
<circle cx="264.5" cy="501.5" r="2.5" fill="#E9A272"/>
<circle cx="254.5" cy="501.5" r="2.5" fill="#E9A272"/>
<circle cx="245.5" cy="501.5" r="2.5" fill="#E9A272"/>
<circle cx="260.5" cy="114.5" r="2.5" fill="#E9A272"/>
<circle cx="250.5" cy="114.5" r="2.5" fill="#E9A272"/>
<circle cx="240.5" cy="114.5" r="2.5" fill="#E9A272"/>
<circle cx="230.5" cy="114.5" r="2.5" fill="#E9A272"/>
<circle cx="220.5" cy="114.5" r="2.5" fill="#E9A272"/>
<circle cx="294.5" cy="491.5" r="2.5" fill="#E9A272"/>
<circle cx="294.5" cy="481.5" r="2.5" fill="#E9A272"/>
<circle cx="294.5" cy="461.5" r="2.5" fill="#E9A272"/>
<circle cx="294.5" cy="451.5" r="2.5" fill="#E9A272"/>
<circle cx="294.5" cy="441.5" r="2.5" fill="#E9A272"/>
<circle cx="294.5" cy="431.5" r="2.5" fill="#E9A272"/>
<circle cx="294.5" cy="421.5" r="2.5" fill="#E9A272"/>
<circle cx="294.5" cy="411.5" r="2.5" fill="#E9A272"/>
<circle cx="294.5" cy="401.5" r="2.5" fill="#E9A272"/>
<circle cx="371.5" cy="324.5" r="2.5" fill="#E9A272"/>
<circle cx="371.5" cy="354.5" r="2.5" fill="#E9A272"/>
<circle cx="361.5" cy="354.5" r="2.5" fill="#E9A272"/>
<circle cx="351.5" cy="354.5" r="2.5" fill="#E9A272"/>
<circle cx="371.5" cy="344.5" r="2.5" fill="#E9A272"/>
<circle cx="371.5" cy="334.5" r="2.5" fill="#E9A272"/>
<circle cx="371.5" cy="314.5" r="2.5" fill="#E9A272"/>
<circle cx="371.5" cy="304.5" r="2.5" fill="#E9A272"/>
<circle cx="371.5" cy="294.5" r="2.5" fill="#E9A272"/>
<circle cx="371.5" cy="284.5" r="2.5" fill="#E9A272"/>
<circle cx="371.5" cy="274.5" r="2.5" fill="#E9A272"/>
<circle cx="371.5" cy="264.5" r="2.5" fill="#E9A272"/>
<circle cx="371.5" cy="254.5" r="2.5" fill="#E9A272"/>
<circle cx="371.5" cy="244.5" r="2.5" fill="#E9A272"/>
<circle cx="371.5" cy="234.5" r="2.5" fill="#E9A272"/>
<circle cx="371.5" cy="224.5" r="2.5" fill="#E9A272"/>
<circle cx="270.5" cy="144.5" r="2.5" fill="#E9A272"/>
<circle cx="270.5" cy="174.5" r="2.5" fill="#E9A272"/>
<circle cx="270.5" cy="164.5" r="2.5" fill="#E9A272"/>
<circle cx="270.5" cy="154.5" r="2.5" fill="#E9A272"/>
<circle cx="270.5" cy="134.5" r="2.5" fill="#E9A272"/>
<circle cx="270.5" cy="124.5" r="2.5" fill="#E9A272"/>
<circle cx="270.5" cy="114.5" r="2.5" fill="#E9A272"/>
<circle cx="270.5" cy="284.5" r="2.5" fill="#E9A272"/>
<circle cx="270.5" cy="314.5" r="2.5" fill="#E9A272"/>
<circle cx="270.5" cy="304.5" r="2.5" fill="#E9A272"/>
<circle cx="270.5" cy="294.5" r="2.5" fill="#E9A272"/>
<circle cx="270.5" cy="274.5" r="2.5" fill="#E9A272"/>
<circle cx="270.5" cy="264.5" r="2.5" fill="#E9A272"/>
<circle cx="270.5" cy="254.5" r="2.5" fill="#E9A272"/>
<circle cx="270.5" cy="244.5" r="2.5" fill="#E9A272"/>
<circle cx="270.5" cy="234.5" r="2.5" fill="#E9A272"/>
<circle cx="270.5" cy="224.5" r="2.5" fill="#E9A272"/>
<circle cx="270.5" cy="214.5" r="2.5" fill="#E9A272"/>
<circle cx="270.5" cy="204.5" r="2.5" fill="#E9A272"/>
<circle cx="270.5" cy="194.5" r="2.5" fill="#E9A272"/>
<circle cx="270.5" cy="184.5" r="2.5" fill="#E9A272"/>
<rect x="92" y="236" width="97" height="70" rx="2" fill="#89B782" stroke="white" stroke-width="2"/>
<path d="M135 295C135.5 292.5 141 267.5 141.5 265C142 262.5 146 263 145 266C144 269 139 293.5 138.5 296C138 298.5 134.5 297.5 135 295Z" fill="white"/>
<path d="M118.5 278.5C118.5 278.5 127 271.5 129 270C131 268.5 133 271 131 272.5C129 274 122.5 280 122.5 280C122.5 280 129.5 286.5 131 288C132.5 289.5 130.5 291.5 129 290.5C127.5 289.5 118.5 281.5 118.5 281.5C117.515 280.328 117.436 279.671 118.5 278.5Z" fill="white"/>
<path d="M162.328 282.269C162.328 282.269 153.828 289.269 151.828 290.769C149.828 292.269 147.828 289.769 149.828 288.269C151.828 286.769 158.328 280.769 158.328 280.769C158.328 280.769 151.328 274.269 149.828 272.769C148.328 271.269 150.328 269.269 151.828 270.269C153.328 271.269 162.328 279.269 162.328 279.269C163.313 280.441 163.393 281.098 162.328 282.269Z" fill="white"/>
<line x1="91" y1="251" x2="190" y2="251" stroke="white" stroke-width="2"/>
<circle cx="105.5" cy="243.5" r="2.5" stroke="white" stroke-width="2"/>
<circle cx="135.5" cy="243.5" r="2.5" stroke="white" stroke-width="2"/>
<circle cx="120.5" cy="243.5" r="2.5" stroke="white" stroke-width="2"/>
<mask id="path-99-inside-1_155_529" fill="white">
<path d="M141 467C141 465.895 141.895 465 143 465H238C239.105 465 240 465.895 240 467V535C240 536.105 239.105 537 238 537H143C141.895 537 141 536.105 141 535V467Z"/>
</mask>
<path d="M141 467C141 465.895 141.895 465 143 465H238C239.105 465 240 465.895 240 467V535C240 536.105 239.105 537 238 537H143C141.895 537 141 536.105 141 535V467Z" fill="#E9DD72"/>
<path d="M138 467C138 464.239 140.239 462 143 462H238C240.761 462 243 464.239 243 467L237 468H144L138 467ZM243 538C243 540.761 240.761 543 238 543H143C140.239 543 138 540.761 138 538L144 531H237L243 538ZM143 543C140.239 543 138 540.761 138 538V467C138 464.239 140.239 462 143 462L144 468V531L143 543ZM238 462C240.761 462 243 464.239 243 467V538C243 540.761 240.761 543 238 543L237 531V468L238 462Z" fill="white" mask="url(#path-99-inside-1_155_529)"/>
<path d="M176 561.5L185 537H197.5L206 561.5H197.5H185H176Z" fill="white" stroke="white" stroke-width="3"/>
<path d="M178.298 486.589C177.974 486.913 175.385 488.854 174.414 488.207C173.443 487.56 172.472 487.236 171.825 487.236C171.178 487.236 169.236 489.502 169.236 490.149C169.236 490.796 170.207 491.767 170.207 492.738C170.207 493.709 170.395 495.654 169.236 495.974C168.078 496.294 166 496.298 166 496.621V500.828C166 501.236 168.265 501.475 169.236 502.123C170.207 502.77 170.207 505.035 170.207 505.035C170.207 505.035 168.913 507.948 169.236 508.271L171.825 510.86C172.149 511.184 173.767 509.566 174.738 509.566C175.709 509.566 178.298 510.537 178.298 510.86C178.297 511.184 178.621 514.097 179.268 514.097H182.505C182.828 514.097 183.476 511.184 183.799 510.86C184.123 510.537 185.946 509.365 187.683 509.566C187.683 509.566 190.272 510.86 190.595 510.537L190.596 510.536C190.92 510.212 192.213 508.918 192.86 507.948C193.508 506.977 192.317 506.388 191.566 505.035C191.362 503.802 192.213 502.77 192.86 502.123C193.508 501.475 195.262 500.775 195.773 500.828C196.284 500.882 195.773 496.945 195.773 496.621C195.773 496.298 194.155 496.945 192.86 495.974C191.566 495.003 191.242 493.709 191.566 492.738C191.89 491.767 193.184 490.472 192.86 489.825C192.537 489.178 190.757 486.589 190.271 486.913C189.786 487.236 188.006 488.531 187.359 488.207C186.712 487.883 184.123 486.589 183.799 486.589C183.475 486.589 183.152 484 182.505 484H179.268C178.298 484 178.621 486.265 178.298 486.589Z" stroke="#E9A272" stroke-width="2"/>
<circle cx="180.887" cy="498.886" r="8.09047" fill="#E9A272"/>
<path d="M204.198 498.726C203.983 498.942 202.257 500.236 201.609 499.805C200.962 499.373 200.315 499.157 199.883 499.157C199.452 499.157 198.158 500.668 198.158 501.099C198.158 501.531 198.805 502.178 198.805 502.825C198.805 503.472 198.93 504.769 198.158 504.983C197.385 505.196 196 505.198 196 505.414V508.219C196 508.491 197.51 508.65 198.158 509.082C198.805 509.513 198.805 511.023 198.805 511.023C198.805 511.023 197.942 512.965 198.158 513.181L199.883 514.907C200.099 515.123 201.178 514.044 201.825 514.044C202.472 514.044 204.198 514.691 204.198 514.907C204.198 515.123 204.414 517.064 204.846 517.064H207.003C207.219 517.064 207.65 515.123 207.866 514.907C208.082 514.691 209.298 513.91 210.455 514.044C210.455 514.044 212.181 514.907 212.397 514.691L212.397 514.691C212.613 514.474 213.476 513.612 213.907 512.965C214.339 512.318 213.545 511.925 213.044 511.023C212.908 510.201 213.475 509.513 213.907 509.082C214.339 508.65 215.508 508.183 215.849 508.219C216.189 508.254 215.849 505.63 215.849 505.414C215.849 505.198 214.77 505.63 213.907 504.983C213.044 504.335 212.828 503.472 213.044 502.825C213.26 502.178 214.123 501.315 213.907 500.883C213.691 500.452 212.505 498.726 212.181 498.942C211.857 499.157 210.671 500.02 210.239 499.805C209.808 499.589 208.082 498.726 207.866 498.726C207.65 498.726 207.435 497 207.003 497H204.846C204.198 497 204.414 498.51 204.198 498.726Z" stroke="#E9A272" stroke-width="1.5"/>
<circle cx="205.924" cy="506.924" r="5.39364" fill="#E9A272"/>
<mask id="path-106-inside-2_155_529" fill="white">
<path d="M339 139C339 137.895 339.895 137 341 137H397C398.105 137 399 137.895 399 139V215C399 216.105 398.105 217 397 217H341C339.895 217 339 216.105 339 215V139Z"/>
</mask>
<path d="M339 139C339 137.895 339.895 137 341 137H397C398.105 137 399 137.895 399 139V215C399 216.105 398.105 217 397 217H341C339.895 217 339 216.105 339 215V139Z" fill="#E9DD72"/>
<path d="M338 136C338 134.343 339.343 133 341 133H397C398.657 133 400 134.343 400 136L398 141C398 141 397.552 141 397 141H341C340.448 141 340 141 340 141L338 136ZM400 218C400 219.657 398.657 221 397 221H341C339.343 221 338 219.657 338 218L340 213C340 213 340.448 213 341 213H397C397.552 213 398 213 398 213L400 218ZM341 221C339.343 221 338 219.657 338 218V136C338 134.343 339.343 133 341 133V141C340.448 141 340 141 340 141V213C340 213 340.448 213 341 213V221ZM397 133C398.657 133 400 134.343 400 136V218C400 219.657 398.657 221 397 221V213C397.552 213 398 213 398 213V141C398 141 397.552 141 397 141V133Z" fill="white" mask="url(#path-106-inside-2_155_529)"/>
<path d="M358.838 166.071C358.579 166.33 356.508 167.883 355.731 167.366C354.955 166.848 354.178 166.589 353.66 166.589C353.142 166.589 351.589 168.401 351.589 168.919C351.589 169.437 352.366 170.213 352.366 170.99C352.366 171.767 352.516 173.323 351.589 173.579C350.662 173.835 349 173.838 349 174.097V177.463C349 177.789 350.812 177.98 351.589 178.498C352.366 179.016 352.366 180.828 352.366 180.828C352.366 180.828 351.33 183.158 351.589 183.417L353.66 185.488C353.919 185.747 355.214 184.453 355.99 184.453C356.767 184.453 358.838 185.229 358.838 185.488C358.838 185.747 359.097 188.077 359.615 188.077H362.204C362.463 188.077 362.98 185.747 363.239 185.488C363.498 185.229 364.957 184.292 366.346 184.453C366.346 184.453 368.417 185.488 368.676 185.229L368.676 185.229C368.936 184.969 369.971 183.934 370.488 183.158C371.006 182.382 370.053 181.91 369.453 180.828C369.289 179.842 369.97 179.016 370.488 178.498C371.006 177.98 372.41 177.42 372.818 177.463C373.227 177.505 372.818 174.356 372.818 174.097C372.818 173.838 371.524 174.356 370.488 173.579C369.453 172.802 369.194 171.767 369.453 170.99C369.712 170.213 370.747 169.178 370.488 168.66C370.229 168.142 368.806 166.071 368.417 166.33C368.029 166.589 366.605 167.625 366.087 167.366C365.569 167.107 363.498 166.071 363.239 166.071C362.98 166.071 362.721 164 362.204 164H359.615C358.838 164 359.097 165.812 358.838 166.071Z" stroke="#E9A272" stroke-width="1.5"/>
<circle cx="360.909" cy="175.909" r="6.47237" fill="#E9A272"/>
<path d="M379.559 175.781C379.386 175.953 378.005 176.989 377.488 176.644C376.97 176.299 376.452 176.126 376.107 176.126C375.762 176.126 374.726 177.334 374.726 177.679C374.726 178.025 375.244 178.542 375.244 179.06C375.244 179.578 375.344 180.615 374.726 180.786C374.108 180.957 373 180.959 373 181.131V183.375C373 183.593 374.208 183.72 374.726 184.065C375.244 184.411 375.244 185.619 375.244 185.619C375.244 185.619 374.553 187.172 374.726 187.345L376.107 188.725C376.279 188.898 377.142 188.035 377.66 188.035C378.178 188.035 379.559 188.553 379.559 188.725C379.559 188.898 379.731 190.451 380.077 190.451H381.802C381.975 190.451 382.32 188.898 382.493 188.725C382.665 188.553 383.638 187.928 384.564 188.035C384.564 188.035 385.945 188.725 386.117 188.553L386.118 188.553C386.291 188.379 386.981 187.69 387.326 187.172C387.671 186.654 387.036 186.34 386.635 185.619C386.526 184.961 386.98 184.411 387.326 184.065C387.671 183.72 388.607 183.347 388.879 183.375C389.151 183.404 388.879 181.304 388.879 181.131C388.879 180.959 388.016 181.304 387.326 180.786C386.635 180.268 386.463 179.578 386.635 179.06C386.808 178.542 387.498 177.852 387.326 177.507C387.153 177.162 386.204 175.781 385.945 175.953C385.686 176.126 384.737 176.816 384.391 176.644C384.046 176.471 382.665 175.781 382.493 175.781C382.32 175.781 382.148 174.4 381.802 174.4H380.077C379.559 174.4 379.731 175.608 379.559 175.781Z" stroke="#E9A272"/>
<circle cx="380.94" cy="182.339" r="4.31492" fill="#E9A272"/>
<mask id="path-112-inside-3_155_529" fill="white">
<path d="M123 91C123 89.8954 123.895 89 125 89H151C152.105 89 153 89.8954 153 91V137C153 138.105 152.105 139 151 139H125C123.895 139 123 138.105 123 137V91Z"/>
</mask>
<path d="M123 91C123 89.8954 123.895 89 125 89H151C152.105 89 153 89.8954 153 91V137C153 138.105 152.105 139 151 139H125C123.895 139 123 138.105 123 137V91Z" fill="#E9DD72"/>
<path d="M122 88C122 86.3431 123.343 85 125 85H151C152.657 85 154 86.3431 154 88L152 93C152 93 151.552 93 151 93H125C124.448 93 124 93 124 93L122 88ZM154 140C154 141.657 152.657 143 151 143H125C123.343 143 122 141.657 122 140L124 135C124 135 124.448 135 125 135H151C151.552 135 152 135 152 135L154 140ZM125 143C123.343 143 122 141.657 122 140V88C122 86.3431 123.343 85 125 85V93C124.448 93 124 93 124 93V135C124 135 124.448 135 125 135V143ZM151 85C152.657 85 154 86.3431 154 88V140C154 141.657 152.657 143 151 143V135C151.552 135 152 135 152 135V93C152 93 151.552 93 151 93V85Z" fill="white" mask="url(#path-112-inside-3_155_529)"/>
<path d="M132.919 108.036C132.79 108.165 131.754 108.942 131.366 108.683C130.977 108.424 130.589 108.294 130.33 108.294C130.071 108.294 129.295 109.201 129.295 109.46C129.295 109.718 129.683 110.107 129.683 110.495C129.683 110.883 129.758 111.662 129.295 111.79C128.831 111.918 128 111.919 128 112.048V113.731C128 113.894 128.906 113.99 129.295 114.249C129.683 114.508 129.683 115.414 129.683 115.414C129.683 115.414 129.165 116.579 129.295 116.709L130.33 117.744C130.46 117.874 131.107 117.226 131.495 117.226C131.883 117.226 132.919 117.615 132.919 117.744C132.919 117.874 133.049 119.039 133.307 119.039H134.602C134.731 119.039 134.99 117.874 135.12 117.744C135.249 117.615 135.979 117.146 136.673 117.226C136.673 117.226 137.709 117.744 137.838 117.615L137.838 117.614C137.968 117.485 138.485 116.967 138.744 116.579C139.003 116.191 138.527 115.955 138.226 115.414C138.145 114.921 138.485 114.508 138.744 114.249C139.003 113.99 139.705 113.71 139.909 113.731C140.114 113.753 139.909 112.178 139.909 112.048C139.909 111.919 139.262 112.178 138.744 111.79C138.226 111.401 138.097 110.883 138.226 110.495C138.356 110.107 138.874 109.589 138.744 109.33C138.615 109.071 137.903 108.036 137.709 108.165C137.514 108.294 136.802 108.812 136.544 108.683C136.285 108.553 135.249 108.036 135.12 108.036C134.99 108.036 134.861 107 134.602 107H133.307C132.919 107 133.048 107.906 132.919 108.036Z" stroke="#E9A272"/>
<circle cx="133.955" cy="112.955" r="3.23619" fill="#E9A272"/>
<path d="M143.279 112.89C143.193 112.977 142.503 113.494 142.244 113.322C141.985 113.149 141.726 113.063 141.553 113.063C141.381 113.063 140.863 113.667 140.863 113.84C140.863 114.012 141.122 114.271 141.122 114.53C141.122 114.789 141.172 115.308 140.863 115.393C140.554 115.478 140 115.479 140 115.566V116.687C140 116.796 140.604 116.86 140.863 117.033C141.122 117.205 141.122 117.809 141.122 117.809C141.122 117.809 140.777 118.586 140.863 118.672L141.553 119.363C141.64 119.449 142.071 119.018 142.33 119.018C142.589 119.018 143.279 119.276 143.279 119.363C143.279 119.449 143.366 120.226 143.538 120.226H144.401C144.488 120.226 144.66 119.449 144.746 119.363C144.833 119.276 145.319 118.964 145.782 119.018C145.782 119.018 146.472 119.363 146.559 119.276L146.559 119.276C146.645 119.19 146.99 118.845 147.163 118.586C147.335 118.327 147.018 118.17 146.818 117.809C146.763 117.481 146.99 117.205 147.163 117.033C147.335 116.86 147.803 116.673 147.939 116.687C148.076 116.702 147.939 115.652 147.939 115.566C147.939 115.479 147.508 115.652 147.163 115.393C146.818 115.134 146.731 114.789 146.818 114.53C146.904 114.271 147.249 113.926 147.163 113.753C147.076 113.581 146.602 112.89 146.472 112.977C146.343 113.063 145.868 113.408 145.696 113.322C145.523 113.236 144.833 112.89 144.746 112.89C144.66 112.89 144.574 112.2 144.401 112.2H143.538C143.279 112.2 143.366 112.804 143.279 112.89Z" stroke="#E9A272" stroke-width="0.5"/>
<circle cx="143.97" cy="116.17" r="2.15746" fill="#E9A272"/>
<circle cx="210.5" cy="114.5" r="2.5" fill="#E9A272"/>
<circle cx="200.5" cy="114.5" r="2.5" fill="#E9A272"/>
<circle cx="190.5" cy="114.5" r="2.5" fill="#E9A272"/>
<circle cx="180.5" cy="114.5" r="2.5" fill="#E9A272"/>
<circle cx="170.5" cy="114.5" r="2.5" fill="#E9A272"/>
<circle cx="160.5" cy="114.5" r="2.5" fill="#E9A272"/>
</svg>
