<svg width="30" height="30" viewBox="0 0 30 30" fill="none" xmlns="http://www.w3.org/2000/svg">
<path d="M1.90461 9.52368C0.952289 9.52365 0.952288 9.52365 0.95223 10.4761C0.952172 11.4285 0.952079 28.0951 0.95223 29.0475C0.952381 29.9998 0.95238 29.9998 1.90461 29.9998H6.19031C7.14269 29.9998 7.14269 29.9998 7.14269 29.0475V10.4761C7.14269 9.52368 7.14269 9.52368 6.19031 9.52368H1.90461Z" fill="white"/>
<path d="M10.9524 9.52392C9.99997 9.52392 9.99995 9.52392 10 10.4763V29.0477C10 30.0001 10 30.0001 10.9524 30.0001H15.2381C16.4286 30.0001 16.4286 30.0001 16.4286 29.0477V18.5715C16.4286 13.3334 23.0952 13.3334 23.0952 18.5715V29.0477C23.0952 30.0001 23.0952 30.0001 23.8095 30.0001H28.5714C29.5238 30.0001 29.5238 30.0001 29.5238 29.0477V17.143C29.5238 9.04768 21.4553 7.09998 16.4286 11.9049V10.4763C16.4286 9.52392 16.4286 9.52392 15.2381 9.52392H10.9524H10.9524Z" fill="white"/>
<circle cx="4.04761" cy="4.04761" r="4.04761" fill="white"/>
</svg>
