<svg width="205" height="75" viewBox="0 0 205 75" fill="none" xmlns="http://www.w3.org/2000/svg">
<path d="M87.064 40L97.304 17.6H99.64L109.88 40H107.384L97.976 18.976H98.936L89.528 40H87.064ZM91.096 34.016L91.8 32.096H104.824L105.528 34.016H91.096ZM113.586 40V17.6H115.954V40H113.586ZM128.033 40L138.273 17.6H140.609L150.849 40H148.353L138.945 18.976H139.905L130.497 40H128.033ZM132.065 34.016L132.769 32.096H145.793L146.497 34.016H132.065ZM162.746 40.16C161.296 40.16 159.984 39.8293 158.81 39.168C157.637 38.4853 156.698 37.5147 155.994 36.256C155.312 34.976 154.97 33.4187 154.97 31.584C154.97 29.7493 155.312 28.2027 155.994 26.944C156.677 25.664 157.605 24.6933 158.778 24.032C159.952 23.3707 161.274 23.04 162.746 23.04C164.346 23.04 165.776 23.4027 167.034 24.128C168.314 24.832 169.317 25.8347 170.042 27.136C170.768 28.416 171.13 29.8987 171.13 31.584C171.13 33.2907 170.768 34.784 170.042 36.064C169.317 37.344 168.314 38.3467 167.034 39.072C165.776 39.7973 164.346 40.16 162.746 40.16ZM154.074 46.208V23.2H156.25V28.256L156.026 31.616L156.346 35.008V46.208H154.074ZM162.586 38.144C163.781 38.144 164.848 37.8773 165.786 37.344C166.725 36.7893 167.472 36.0213 168.026 35.04C168.581 34.0373 168.858 32.8853 168.858 31.584C168.858 30.2827 168.581 29.1413 168.026 28.16C167.472 27.1787 166.725 26.4107 165.786 25.856C164.848 25.3013 163.781 25.024 162.586 25.024C161.392 25.024 160.314 25.3013 159.354 25.856C158.416 26.4107 157.669 27.1787 157.114 28.16C156.581 29.1413 156.314 30.2827 156.314 31.584C156.314 32.8853 156.581 34.0373 157.114 35.04C157.669 36.0213 158.416 36.7893 159.354 37.344C160.314 37.8773 161.392 38.144 162.586 38.144ZM184.434 40.16C182.983 40.16 181.671 39.8293 180.498 39.168C179.324 38.4853 178.386 37.5147 177.682 36.256C176.999 34.976 176.658 33.4187 176.658 31.584C176.658 29.7493 176.999 28.2027 177.682 26.944C178.364 25.664 179.292 24.6933 180.466 24.032C181.639 23.3707 182.962 23.04 184.434 23.04C186.034 23.04 187.463 23.4027 188.722 24.128C190.002 24.832 191.004 25.8347 191.73 27.136C192.455 28.416 192.818 29.8987 192.818 31.584C192.818 33.2907 192.455 34.784 191.73 36.064C191.004 37.344 190.002 38.3467 188.722 39.072C187.463 39.7973 186.034 40.16 184.434 40.16ZM175.762 46.208V23.2H177.938V28.256L177.714 31.616L178.034 35.008V46.208H175.762ZM184.274 38.144C185.468 38.144 186.535 37.8773 187.474 37.344C188.412 36.7893 189.159 36.0213 189.714 35.04C190.268 34.0373 190.546 32.8853 190.546 31.584C190.546 30.2827 190.268 29.1413 189.714 28.16C189.159 27.1787 188.412 26.4107 187.474 25.856C186.535 25.3013 185.468 25.024 184.274 25.024C183.079 25.024 182.002 25.3013 181.042 25.856C180.103 26.4107 179.356 27.1787 178.802 28.16C178.268 29.1413 178.002 30.2827 178.002 31.584C178.002 32.8853 178.268 34.0373 178.802 35.04C179.356 36.0213 180.103 36.7893 181.042 37.344C182.002 37.8773 183.079 38.144 184.274 38.144Z" fill="black"/>
<path d="M95.7528 53.5H94.608C94.5402 53.1707 94.4218 52.8814 94.2525 52.6321C94.0863 52.3828 93.8832 52.1735 93.6431 52.0043C93.4061 51.8319 93.143 51.7027 92.8537 51.6165C92.5644 51.5303 92.2628 51.4872 91.9489 51.4872C91.3764 51.4872 90.8578 51.6319 90.3931 51.9212C89.9315 52.2105 89.5637 52.6367 89.2898 53.1999C89.0189 53.7631 88.8835 54.4541 88.8835 55.2727C88.8835 56.0914 89.0189 56.7823 89.2898 57.3455C89.5637 57.9087 89.9315 58.335 90.3931 58.6243C90.8578 58.9136 91.3764 59.0582 91.9489 59.0582C92.2628 59.0582 92.5644 59.0152 92.8537 58.929C93.143 58.8428 93.4061 58.7151 93.6431 58.5458C93.8832 58.3735 94.0863 58.1626 94.2525 57.9134C94.4218 57.661 94.5402 57.3717 94.608 57.0455H95.7528C95.6667 57.5286 95.5097 57.9611 95.282 58.3427C95.0542 58.7243 94.7711 59.049 94.4325 59.3168C94.094 59.5814 93.7139 59.783 93.2923 59.9215C92.8737 60.06 92.4259 60.1293 91.9489 60.1293C91.1425 60.1293 90.4254 59.9323 89.7976 59.5384C89.1697 59.1444 88.6758 58.5843 88.3157 57.858C87.9556 57.1316 87.7756 56.2699 87.7756 55.2727C87.7756 54.2756 87.9556 53.4138 88.3157 52.6875C88.6758 51.9612 89.1697 51.401 89.7976 51.0071C90.4254 50.6132 91.1425 50.4162 91.9489 50.4162C92.4259 50.4162 92.8737 50.4854 93.2923 50.6239C93.7139 50.7624 94.094 50.9656 94.4325 51.2333C94.7711 51.498 95.0542 51.8211 95.282 52.2028C95.5097 52.5813 95.6667 53.0137 95.7528 53.5ZM100.336 60.1477C99.6957 60.1477 99.134 59.9954 98.6508 59.6907C98.1707 59.386 97.7952 58.9598 97.5244 58.4119C97.2567 57.8641 97.1228 57.224 97.1228 56.4915C97.1228 55.7528 97.2567 55.1081 97.5244 54.5572C97.7952 54.0063 98.1707 53.5785 98.6508 53.2738C99.134 52.9691 99.6957 52.8168 100.336 52.8168C100.976 52.8168 101.536 52.9691 102.016 53.2738C102.499 53.5785 102.875 54.0063 103.143 54.5572C103.414 55.1081 103.549 55.7528 103.549 56.4915C103.549 57.224 103.414 57.8641 103.143 58.4119C102.875 58.9598 102.499 59.386 102.016 59.6907C101.536 59.9954 100.976 60.1477 100.336 60.1477ZM100.336 59.169C100.822 59.169 101.222 59.0444 101.536 58.7951C101.85 58.5458 102.082 58.218 102.233 57.8118C102.384 57.4055 102.459 56.9654 102.459 56.4915C102.459 56.0175 102.384 55.5759 102.233 55.1665C102.082 54.7572 101.85 54.4264 101.536 54.174C101.222 53.9216 100.822 53.7955 100.336 53.7955C99.8496 53.7955 99.4495 53.9216 99.1356 54.174C98.8216 54.4264 98.5893 54.7572 98.4385 55.1665C98.2877 55.5759 98.2123 56.0175 98.2123 56.4915C98.2123 56.9654 98.2877 57.4055 98.4385 57.8118C98.5893 58.218 98.8216 58.5458 99.1356 58.7951C99.4495 59.0444 99.8496 59.169 100.336 59.169ZM106.301 55.7344V60H105.212V52.9091H106.265V54.017H106.357C106.523 53.657 106.775 53.3677 107.114 53.1491C107.453 52.9276 107.89 52.8168 108.425 52.8168C108.905 52.8168 109.325 52.9152 109.685 53.1122C110.045 53.3061 110.326 53.6016 110.526 53.9986C110.726 54.3925 110.826 54.8911 110.826 55.4943V60H109.736V55.5682C109.736 55.0111 109.592 54.5772 109.302 54.2663C109.013 53.9524 108.616 53.7955 108.111 53.7955C107.763 53.7955 107.453 53.8709 107.179 54.0217C106.908 54.1725 106.694 54.3925 106.537 54.6818C106.38 54.9711 106.301 55.322 106.301 55.7344ZM117.839 54.4972L116.861 54.7741C116.799 54.611 116.708 54.4525 116.588 54.2987C116.471 54.1417 116.311 54.0124 116.108 53.9109C115.905 53.8093 115.645 53.7585 115.328 53.7585C114.894 53.7585 114.532 53.8585 114.243 54.0586C113.957 54.2556 113.814 54.5064 113.814 54.8111C113.814 55.0819 113.912 55.2958 114.109 55.4528C114.306 55.6097 114.614 55.7405 115.032 55.8452L116.085 56.1037C116.719 56.2576 117.191 56.493 117.502 56.81C117.813 57.1239 117.968 57.5286 117.968 58.0241C117.968 58.4304 117.852 58.7936 117.618 59.1136C117.387 59.4337 117.064 59.6861 116.648 59.8707C116.233 60.0554 115.749 60.1477 115.199 60.1477C114.475 60.1477 113.877 59.9908 113.403 59.6768C112.929 59.3629 112.629 58.9044 112.503 58.3011L113.537 58.0426C113.635 58.4242 113.821 58.7105 114.095 58.9013C114.372 59.0921 114.734 59.1875 115.18 59.1875C115.688 59.1875 116.091 59.0798 116.39 58.8643C116.691 58.6458 116.842 58.3842 116.842 58.0795C116.842 57.8333 116.756 57.6271 116.584 57.4609C116.411 57.2917 116.147 57.1655 115.79 57.0824L114.608 56.8054C113.958 56.6515 113.481 56.413 113.177 56.0898C112.875 55.7636 112.724 55.3558 112.724 54.8665C112.724 54.4664 112.836 54.1125 113.061 53.8047C113.289 53.4969 113.598 53.2553 113.989 53.0799C114.383 52.9045 114.829 52.8168 115.328 52.8168C116.03 52.8168 116.58 52.9706 116.981 53.2784C117.384 53.5862 117.67 53.9924 117.839 54.4972ZM124.077 57.1009V52.9091H125.167V60H124.077V58.7997H124.003C123.837 59.1598 123.579 59.466 123.228 59.7184C122.877 59.9677 122.434 60.0923 121.898 60.0923C121.455 60.0923 121.061 59.9954 120.716 59.8015C120.372 59.6045 120.101 59.3091 119.904 58.9151C119.707 58.5181 119.608 58.018 119.608 57.4148V52.9091H120.698V57.3409C120.698 57.858 120.843 58.2704 121.132 58.5781C121.424 58.8859 121.797 59.0398 122.249 59.0398C122.52 59.0398 122.795 58.9705 123.075 58.832C123.359 58.6935 123.596 58.4812 123.786 58.195C123.98 57.9087 124.077 57.544 124.077 57.1009ZM128.252 50.5455V60H127.162V50.5455H128.252ZM133.331 52.9091V53.8324H129.656V52.9091H133.331ZM130.727 51.2102H131.817V57.9688C131.817 58.2765 131.861 58.5073 131.951 58.6612C132.043 58.812 132.16 58.9136 132.301 58.9659C132.446 59.0152 132.598 59.0398 132.759 59.0398C132.879 59.0398 132.977 59.0336 133.054 59.0213C133.131 59.0059 133.192 58.9936 133.239 58.9844L133.46 59.9631C133.386 59.9908 133.283 60.0185 133.151 60.0462C133.019 60.0769 132.851 60.0923 132.648 60.0923C132.34 60.0923 132.038 60.0262 131.743 59.8938C131.451 59.7615 131.207 59.5599 131.013 59.2891C130.823 59.0182 130.727 58.6766 130.727 58.2642V51.2102ZM134.97 60V52.9091H136.059V60H134.97ZM135.524 51.7273C135.311 51.7273 135.128 51.6549 134.974 51.5103C134.824 51.3656 134.748 51.1918 134.748 50.9886C134.748 50.7855 134.824 50.6116 134.974 50.467C135.128 50.3223 135.311 50.25 135.524 50.25C135.736 50.25 135.918 50.3223 136.069 50.467C136.222 50.6116 136.299 50.7855 136.299 50.9886C136.299 51.1918 136.222 51.3656 136.069 51.5103C135.918 51.6549 135.736 51.7273 135.524 51.7273ZM139.144 55.7344V60H138.055V52.9091H139.107V54.017H139.2C139.366 53.657 139.618 53.3677 139.957 53.1491C140.295 52.9276 140.732 52.8168 141.268 52.8168C141.748 52.8168 142.168 52.9152 142.528 53.1122C142.888 53.3061 143.168 53.6016 143.368 53.9986C143.568 54.3925 143.668 54.8911 143.668 55.4943V60H142.579V55.5682C142.579 55.0111 142.434 54.5772 142.145 54.2663C141.856 53.9524 141.459 53.7955 140.954 53.7955C140.606 53.7955 140.295 53.8709 140.021 54.0217C139.751 54.1725 139.537 54.3925 139.38 54.6818C139.223 54.9711 139.144 55.322 139.144 55.7344ZM148.521 62.8068C147.995 62.8068 147.543 62.7391 147.164 62.6037C146.786 62.4714 146.47 62.2959 146.218 62.0774C145.969 61.862 145.77 61.6312 145.622 61.3849L146.49 60.7756C146.589 60.9048 146.713 61.0526 146.864 61.2188C147.015 61.388 147.221 61.5342 147.483 61.6573C147.747 61.7835 148.094 61.8466 148.521 61.8466C149.094 61.8466 149.566 61.7081 149.939 61.4311C150.311 61.1541 150.497 60.7202 150.497 60.1293V58.6889H150.405C150.325 58.8182 150.211 58.9782 150.063 59.169C149.919 59.3568 149.709 59.5245 149.436 59.6722C149.165 59.8169 148.798 59.8892 148.337 59.8892C147.764 59.8892 147.25 59.7538 146.795 59.483C146.343 59.2121 145.984 58.8182 145.719 58.3011C145.458 57.7841 145.327 57.1562 145.327 56.4176C145.327 55.6913 145.455 55.0588 145.71 54.5202C145.965 53.9786 146.321 53.56 146.776 53.2646C147.232 52.966 147.758 52.8168 148.355 52.8168C148.817 52.8168 149.183 52.8937 149.454 53.0476C149.728 53.1984 149.937 53.3707 150.082 53.5646C150.23 53.7554 150.343 53.9124 150.423 54.0355H150.534V52.9091H151.587V60.2031C151.587 60.8125 151.448 61.308 151.171 61.6896C150.897 62.0743 150.528 62.3559 150.063 62.5344C149.602 62.716 149.088 62.8068 148.521 62.8068ZM148.485 58.9105C148.922 58.9105 149.291 58.8105 149.593 58.6104C149.894 58.4104 150.123 58.1226 150.28 57.7472C150.437 57.3717 150.516 56.9223 150.516 56.3991C150.516 55.8883 150.439 55.4374 150.285 55.0465C150.131 54.6557 149.903 54.3494 149.602 54.1278C149.3 53.9062 148.928 53.7955 148.485 53.7955C148.023 53.7955 147.638 53.9124 147.33 54.1463C147.026 54.3802 146.796 54.6941 146.643 55.0881C146.492 55.482 146.416 55.919 146.416 56.3991C146.416 56.8916 146.493 57.3271 146.647 57.7056C146.804 58.0811 147.035 58.3765 147.34 58.592C147.647 58.8043 148.029 58.9105 148.485 58.9105ZM157.385 60V50.5455H158.53V58.9844H162.925V60H157.385ZM164.55 60V52.9091H165.639V60H164.55ZM165.104 51.7273C164.892 51.7273 164.708 51.6549 164.555 51.5103C164.404 51.3656 164.328 51.1918 164.328 50.9886C164.328 50.7855 164.404 50.6116 164.555 50.467C164.708 50.3223 164.892 50.25 165.104 50.25C165.316 50.25 165.498 50.3223 165.649 50.467C165.802 50.6116 165.879 50.7855 165.879 50.9886C165.879 51.1918 165.802 51.3656 165.649 51.5103C165.498 51.6549 165.316 51.7273 165.104 51.7273ZM167.635 60V52.9091H168.687V54.017H168.78C168.927 53.6385 169.166 53.3446 169.495 53.1353C169.825 52.9229 170.22 52.8168 170.682 52.8168C171.15 52.8168 171.539 52.9229 171.85 53.1353C172.164 53.3446 172.408 53.6385 172.584 54.017H172.658C172.839 53.6508 173.112 53.36 173.475 53.1445C173.838 52.926 174.273 52.8168 174.781 52.8168C175.415 52.8168 175.934 53.0153 176.337 53.4123C176.74 53.8062 176.942 54.4202 176.942 55.2543V60H175.852V55.2543C175.852 54.7311 175.709 54.3571 175.423 54.1325C175.137 53.9078 174.8 53.7955 174.412 53.7955C173.913 53.7955 173.527 53.9463 173.253 54.2479C172.979 54.5464 172.842 54.925 172.842 55.3835V60H171.734V55.1435C171.734 54.7403 171.603 54.4156 171.342 54.1694C171.08 53.9201 170.743 53.7955 170.331 53.7955C170.048 53.7955 169.783 53.8709 169.537 54.0217C169.294 54.1725 169.097 54.3817 168.946 54.6495C168.798 54.9142 168.724 55.2204 168.724 55.5682V60H167.635ZM178.934 60V52.9091H180.023V60H178.934ZM179.488 51.7273C179.275 51.7273 179.092 51.6549 178.938 51.5103C178.787 51.3656 178.712 51.1918 178.712 50.9886C178.712 50.7855 178.787 50.6116 178.938 50.467C179.092 50.3223 179.275 50.25 179.488 50.25C179.7 50.25 179.882 50.3223 180.032 50.467C180.186 50.6116 180.263 50.7855 180.263 50.9886C180.263 51.1918 180.186 51.3656 180.032 51.5103C179.882 51.6549 179.7 51.7273 179.488 51.7273ZM185.102 52.9091V53.8324H181.428V52.9091H185.102ZM182.499 51.2102H183.588V57.9688C183.588 58.2765 183.633 58.5073 183.722 58.6612C183.814 58.812 183.931 58.9136 184.073 58.9659C184.218 59.0152 184.37 59.0398 184.53 59.0398C184.65 59.0398 184.749 59.0336 184.825 59.0213C184.902 59.0059 184.964 58.9936 185.01 58.9844L185.232 59.9631C185.158 59.9908 185.055 60.0185 184.922 60.0462C184.79 60.0769 184.622 60.0923 184.419 60.0923C184.111 60.0923 183.81 60.0262 183.514 59.8938C183.222 59.7615 182.979 59.5599 182.785 59.2891C182.594 59.0182 182.499 58.6766 182.499 58.2642V51.2102ZM189.638 60.1477C188.955 60.1477 188.366 59.9969 187.87 59.6953C187.378 59.3906 186.998 58.9659 186.73 58.4212C186.465 57.8733 186.333 57.2363 186.333 56.5099C186.333 55.7836 186.465 55.1435 186.73 54.5895C186.998 54.0324 187.37 53.5985 187.847 53.2876C188.327 52.9737 188.887 52.8168 189.527 52.8168C189.897 52.8168 190.261 52.8783 190.621 53.0014C190.982 53.1245 191.309 53.3246 191.605 53.6016C191.9 53.8755 192.136 54.2386 192.311 54.6911C192.487 55.1435 192.574 55.7005 192.574 56.3622V56.8239H187.108V55.8821H191.466C191.466 55.482 191.386 55.125 191.226 54.8111C191.069 54.4972 190.845 54.2494 190.552 54.0678C190.263 53.8862 189.921 53.7955 189.527 53.7955C189.093 53.7955 188.718 53.9032 188.401 54.1186C188.087 54.331 187.845 54.608 187.676 54.9496C187.507 55.2912 187.422 55.6574 187.422 56.0483V56.6761C187.422 57.2116 187.515 57.6656 187.699 58.038C187.887 58.4073 188.147 58.6889 188.479 58.8828C188.812 59.0736 189.198 59.169 189.638 59.169C189.924 59.169 190.183 59.129 190.414 59.049C190.648 58.9659 190.849 58.8428 191.018 58.6797C191.188 58.5135 191.319 58.3073 191.411 58.0611L192.463 58.3565C192.353 58.7135 192.166 59.0275 191.905 59.2983C191.643 59.5661 191.32 59.7753 190.935 59.9261C190.551 60.0739 190.118 60.1477 189.638 60.1477ZM196.909 60.1477C196.318 60.1477 195.797 59.9985 195.344 59.6999C194.892 59.3983 194.538 58.9736 194.282 58.4258C194.027 57.8749 193.899 57.224 193.899 56.473C193.899 55.7282 194.027 55.0819 194.282 54.5341C194.538 53.9863 194.893 53.5631 195.349 53.2646C195.804 52.966 196.33 52.8168 196.928 52.8168C197.389 52.8168 197.754 52.8937 198.022 53.0476C198.292 53.1984 198.499 53.3707 198.64 53.5646C198.785 53.7554 198.897 53.9124 198.977 54.0355H199.07V50.5455H200.159V60H199.107V58.9105H198.977C198.897 59.0398 198.783 59.2029 198.636 59.3999C198.488 59.5937 198.277 59.7676 198.003 59.9215C197.729 60.0723 197.365 60.1477 196.909 60.1477ZM197.057 59.169C197.494 59.169 197.863 59.0552 198.165 58.8274C198.466 58.5966 198.696 58.2781 198.853 57.8718C199.01 57.4625 199.088 56.9901 199.088 56.4545C199.088 55.9252 199.011 55.462 198.857 55.065C198.703 54.6649 198.476 54.354 198.174 54.1325C197.872 53.9078 197.5 53.7955 197.057 53.7955C196.595 53.7955 196.21 53.9139 195.903 54.1509C195.598 54.3848 195.369 54.7034 195.215 55.1065C195.064 55.5066 194.989 55.956 194.989 56.4545C194.989 56.9593 195.066 57.4179 195.219 57.8303C195.376 58.2396 195.607 58.5658 195.912 58.8089C196.22 59.049 196.601 59.169 197.057 59.169ZM203.1 60.0739C202.872 60.0739 202.677 59.9923 202.513 59.8292C202.35 59.6661 202.269 59.4706 202.269 59.2429C202.269 59.0152 202.35 58.8197 202.513 58.6566C202.677 58.4935 202.872 58.4119 203.1 58.4119C203.328 58.4119 203.523 58.4935 203.686 58.6566C203.849 58.8197 203.931 59.0152 203.931 59.2429C203.931 59.3937 203.892 59.5322 203.815 59.6584C203.741 59.7846 203.641 59.8861 203.515 59.9631C203.392 60.0369 203.254 60.0739 203.1 60.0739Z" fill="black"/>
<rect width="75" height="75" rx="10" fill="#0FA54A"/>
<rect x="52.5" y="16.5" width="7" height="40" stroke="white" stroke-width="3"/>
<path d="M47.5 56.5L31 18.5L14 56.5H47.5Z" fill="#0FA54A" stroke="white" stroke-width="3"/>
<path d="M20 43H30.75H41.5" stroke="white" stroke-width="3"/>
</svg>
