<svg width="67" height="50" viewBox="0 0 67 50" fill="none" xmlns="http://www.w3.org/2000/svg">
<path d="M66.6665 44.3333V5.66675C66.6665 3.0002 64.3332 0.000218936 61.3332 9.86364e-05C58.8577 0 24.6072 6.39256e-05 11.0208 8.95334e-05L5.66666 9.86364e-05C2.66666 9.86364e-05 8.13822e-05 2.66699 6.84739e-06 5.66675V44.3333C-7.45353e-05 47.6668 2.33334 50 5.66666 50H61.3332C64.3332 50 66.6665 47.3335 66.6665 44.3333Z" fill="#0FA54A"/>
<path d="M8.66703 7.00018C7.51252 6.13426 4.66664 9.00022 5.66703 10.0002C6.66743 11.0001 29.667 31.3335 31.3336 32.3335C33.0003 33.3335 34.0003 33.3335 35.3336 32.3335C36.667 31.3335 60.334 10.6667 61.0003 10.0002C61.6665 9.33365 58.9999 6.33366 58.0003 7.00018C57.0007 7.6667 33.3336 28.3335 33.3336 28.3335C33.3336 28.3335 9.82153 7.8661 8.66703 7.00018Z" fill="white"/>
</svg>
