<svg width="601" height="460" viewBox="0 0 601 460" fill="none" xmlns="http://www.w3.org/2000/svg">
<rect x="201" width="400" height="400" rx="20" fill="#D9D9D9"/>
<circle cx="401" cy="200" r="150" fill="#DFB921"/>
<path d="M326 329.5C377 356.5 427 357.001 476 329.5L400.5 200L326 329.5Z" fill="#0FA54A"/>
<rect y="160" width="300" height="300" rx="20" fill="#5B7074"/>
<path d="M218.668 212.77C217.449 213.989 213.183 217.646 213.183 217.646H227.81C233.905 217.646 240 223.741 240 231.055V237.149C240 238.978 236.343 238.978 236.343 237.149V231.055C236.343 224.96 232.686 221.303 227.81 221.303H213.183C213.183 221.303 217.449 224.96 218.668 226.179C219.887 227.398 218.059 229.836 216.23 228.617C214.402 227.398 208.307 222.522 207.088 221.303C205.869 220.084 205.869 218.865 207.088 217.646C208.307 216.427 214.402 211.551 216.23 210.332C218.059 209.113 219.887 211.551 218.668 212.77Z" fill="#FFD700"/>
<path d="M139.435 317.754C140.654 316.535 144.921 312.878 144.921 312.878H130.293C124.198 312.878 118.104 306.783 118.104 299.469V293.374C118.104 291.546 121.76 291.546 121.76 293.374V299.469C121.76 305.564 125.417 309.221 130.293 309.221H144.921C144.921 309.221 140.654 305.564 139.435 304.345C138.216 303.126 140.045 300.688 141.873 301.907C143.702 303.126 149.797 308.002 151.016 309.221C152.234 310.44 152.234 311.659 151.016 312.878C149.797 314.097 143.702 318.973 141.873 320.192C140.045 321.411 138.216 318.973 139.435 317.754Z" fill="#FFD700"/>
<path d="M136.997 259.091C133.987 259.45 132.375 259.355 129.684 258.481V295.66V297.488H130.903H224.763V234.712V232.883H222.935H155.282L155.891 240.197H207.088C208.307 240.197 209.526 240.806 209.526 242.025V243.244C209.55 245.651 210.735 248.1 214.358 248.12C216.23 248.12 217.449 248.73 217.449 250.558V290.175H148.578C145.477 290.102 144.311 288.346 144.311 285.908C144.311 283.47 141.873 282.861 140.045 282.861C138.216 282.861 136.975 282.272 136.997 280.686V259.091Z" fill="#0FA54A"/>
<path d="M155.282 244.463C152.173 252.302 149.124 255.399 141.264 258.481V278.594C145.239 279.909 146.75 281.649 148.578 285.908H212.573L213.183 267.624V251.777C208.553 250.737 206.844 249.256 205.869 244.463H155.282Z" fill="#0FA54A" stroke="#0FA54A"/>
<circle cx="135.169" cy="238.368" r="17.0655" fill="#FFD700"/>
<rect x="134.314" y="229.526" width="1.47365" height="19.5259" fill="#0FA54A"/>
<path d="M139.103 233.947L139.84 232.473C137.748 231.948 136.741 231.731 135.787 231.736H134.314C128.787 231.736 128.419 238.368 134.314 239.473L135.787 239.842C139.471 239.842 140.208 244.999 135.787 244.999H134.314C132.583 244.995 131.614 244.845 129.893 244.262V245.736C131.595 246.358 132.566 246.485 134.314 246.473H135.787C141.313 246.473 142.419 239.473 135.787 238.368L134.314 237.999C130.261 236.894 131.231 233.296 134.314 233.21H135.787C137.253 233.314 137.957 233.499 139.103 233.947Z" fill="#0FA54A"/>
<path d="M211.68 330.103C192.154 341.155 162.313 357.733 162.313 357.733C167.839 345.944 162.313 339.681 150.524 336.366C138.735 333.05 131.406 331.403 120.314 326.787C112.494 323.505 107.764 323.372 98.5776 326.787L65.4205 346.313L69.1046 351.839L104.104 331.945C108.859 330.271 111.686 330.315 116.998 331.945C129.95 337.478 137.279 340.004 150.524 342.997C160.839 344.471 159.734 359.944 147.208 356.628C134.682 353.313 127.682 351.102 124.735 350.365C121.788 349.628 120.314 355.891 122.893 356.628C125.472 357.365 143.892 362.154 143.892 362.154C154.855 365.423 160.317 365.918 167.839 362.154C167.839 362.154 202.102 343.3 214.628 335.997C227.154 328.695 236.12 343.365 224.575 350.734C213.029 358.102 162.313 389.049 162.313 389.049C152.184 393.991 145.584 393.462 132.84 389.049L96.7355 379.101C94.6432 379.02 93.517 379.367 91.5778 380.575L86.42 383.522L90.1041 389.049L96.7355 385.364L132.103 395.312C145.366 400.469 153.471 400.469 162.313 395.312C171.155 390.154 211.68 365.444 228.627 355.155C245.574 344.865 231.206 319.05 211.68 330.103Z" fill="#0FA54A"/>
<rect x="45.1226" y="346.948" width="16.0784" height="67.9714" rx="6.25" transform="rotate(-30 45.1226 346.948)" stroke="#0FA54A" stroke-width="7.5"/>
</svg>
