<svg width="580" height="374" viewBox="0 0 580 374" fill="none" xmlns="http://www.w3.org/2000/svg">
<rect width="580" height="374" rx="20" fill="#DADCF1"/>
<circle cx="498" cy="121" r="24.5" fill="#FFD700" stroke="black"/>
<rect x="496.747" y="108.046" width="2.15881" height="28.6043" fill="#0FA54A"/>
<path d="M503.763 114.523L504.842 112.364C501.777 111.594 500.303 111.276 498.906 111.284H496.747C488.651 111.284 488.111 120.999 496.747 122.618L498.906 123.158C504.303 123.158 505.382 130.714 498.906 130.714H496.747C494.211 130.708 492.792 130.487 490.27 129.634V131.793C492.764 132.704 494.186 132.89 496.747 132.872H498.906C507.001 132.872 508.62 122.618 498.906 120.999L496.747 120.459C490.81 118.84 492.231 113.569 496.747 113.443H498.906C501.053 113.596 502.084 113.867 503.763 114.523Z" fill="#0FA54A"/>
<circle cx="498" cy="121" r="36" stroke="#0FA54A" stroke-width="8"/>
<path d="M78 196L68 206L192 280L321.5 200.5L371 249.5L381.5 260L391.5 249.5L481.5 150L487.5 155V135H466.5L472 140.5L381.5 239.5L321.5 179.5L192 259.5L78 196Z" fill="#E9A272" stroke="black"/>
<path d="M307.271 257.158L295.763 263.735C293.658 265.203 294.645 265.031 296.585 264.557L317.958 259.213L312.204 253.459L323.713 245.238C325.084 243.865 325.272 243.394 322.891 244.005L302.75 252.226L307.271 257.158Z" fill="#0FA54A" stroke="#0FA54A"/>
<path d="M289.186 246.882L285.897 249.76L293.296 257.569L296.584 254.281C297.593 253.195 297.632 252.567 296.584 251.404L292.063 246.882C291.002 246.169 290.364 246.189 289.186 246.882Z" stroke="#0FA54A"/>
<path d="M311.792 269.605L308.504 272.482L315.903 280.292L319.191 277.004C320.199 275.918 320.239 275.29 319.191 274.126L314.67 269.605C313.609 268.892 312.97 268.912 311.792 269.605Z" stroke="#0FA54A"/>
<path d="M292.474 258.802L284.664 250.993C253.426 274.01 286.309 314.702 315.08 281.409L307.271 273.188C290.419 295.795 271.1 275.654 292.474 258.802Z" fill="#0FA54A" stroke="#0FA54A"/>
<circle cx="308.504" cy="225.509" r="11.5088" fill="#0FA54A"/>
<path d="M315.23 231.425C309.836 226.912 306.865 226.738 301.666 231.425C300.908 232.136 300.929 232.489 301.666 233.069C307.096 237.031 310.06 236.869 315.23 233.069C316.046 232.427 316.069 232.064 315.23 231.425Z" fill="white"/>
<circle cx="308.504" cy="223.865" r="3.28823" fill="white"/>
<circle cx="340.564" cy="258.391" r="11.5088" fill="#0FA54A"/>
<path d="M347.29 264.307C341.897 259.795 338.925 259.621 333.726 264.307C332.969 265.018 332.99 265.371 333.726 265.951C339.156 269.913 342.121 269.751 347.29 265.951C348.106 265.309 348.129 264.946 347.29 264.307Z" fill="white"/>
<circle cx="340.564" cy="256.747" r="3.28823" fill="white"/>
<circle cx="340.564" cy="225.509" r="11.5088" fill="#0FA54A"/>
<path d="M347.29 231.425C341.897 226.912 338.925 226.738 333.726 231.425C332.969 232.136 332.99 232.489 333.726 233.069C339.156 237.031 342.121 236.869 347.29 233.069C348.106 232.427 348.129 232.064 347.29 231.425Z" fill="white"/>
<circle cx="340.564" cy="223.865" r="3.28823" fill="white"/>
<path d="M228.207 180.321C228.207 180.321 228.207 192.321 228.207 195.321C228.207 198.321 226.707 200.321 223.707 200.321C220.707 200.321 213.207 200.321 213.207 200.321M164.207 209.321C162.974 209.321 162.207 209.321 162.207 209.321C162.242 211.871 162.707 213.821 164.207 213.821C165.707 213.821 207.207 213.821 209.207 213.821C211.207 213.821 211.672 211.741 211.707 209.321C211.707 209.321 210.73 209.321 209.207 209.321M164.207 209.321C169.114 209.321 181.408 209.321 182.207 209.321C183.207 209.321 182.207 210.321 183.707 210.321C185.207 210.321 190.207 210.321 190.707 210.321C191.207 210.321 190.707 209.321 191.707 209.321C192.481 209.321 204.015 209.321 209.207 209.321M164.207 209.321V181.821H209.207V209.321" stroke="#0FA54A" stroke-width="2"/>
<path d="M192.707 145.821C184.207 138.321 172.207 142.321 170.707 153.821C158.897 154.365 159.3 166.711 170.707 166.321H183.207C185.473 164.23 187.124 163.685 190.707 163.821C193.05 154.168 196.288 151.476 205.707 151.821C205.707 145.821 199.213 142.311 192.707 145.821Z" fill="#0FA54A" stroke="black"/>
<path d="M225.707 176.321H187.707C179.707 176.321 179.129 163.473 190.207 163.821C193.905 150.813 202.243 148.256 213.207 155.82C221.228 151.782 226.42 156.047 225.707 163.821C237.207 163.821 238.207 176.321 225.707 176.321Z" fill="#0FA54A" stroke="black"/>
<rect x="180" y="194" width="3" height="3" fill="#0FA54A"/>
<rect x="185" y="194" width="3" height="3" fill="#0FA54A"/>
<rect x="190" y="194" width="3" height="3" fill="#0FA54A"/>
<path d="M82.6415 238.577H71.9463C68.9519 238.577 68.9519 242 71.9463 242H82.6415C88.6308 242 88.6308 232.16 82.6417 232.16H69.8075C68.0963 232.16 68.0963 229.166 69.8075 229.166H84.7808C91.1976 229.166 91.1976 219.326 84.7805 219.326H68.0963V216.759C67.6747 214.54 67.1966 213.384 65.5294 211.626C59.9801 206.433 57.4594 202.938 56.5455 195.369C56.5455 170.556 95.0481 170.556 95.0481 195.369C95.1501 196.455 92.9504 207.565 86.492 211.626C86.1655 213.806 86.7933 214.323 88.6308 214.62C89.2995 214.622 89.791 214.388 91.1976 212.909C95.7871 206.708 97.7016 202.988 98.4704 195.369C98.4704 164.995 53.1229 164.995 53.1228 195.369C53.1228 195.369 53.5508 205.636 60.8233 212.909C60.8233 212.909 63.2153 215.022 64.2458 216.759C64.2458 216.759 64.6736 217.615 64.2458 219.326C63.818 221.037 65.1014 222.749 67.2404 222.749H84.7805C86.4918 222.749 86.4918 225.315 84.7805 225.315H69.8073C63.818 225.315 63.3902 235.583 69.8073 235.583H82.6415C83.9249 235.583 83.9249 238.577 82.6415 238.577Z" fill="#0FA54A"/>
<rect x="74.0855" y="162" width="2.99465" height="8.55615" rx="1.49733" fill="#0FA54A"/>
<rect x="101.038" y="197.508" width="2.99465" height="8.55615" rx="1.49733" transform="rotate(-90 101.038 197.508)" fill="#0FA54A"/>
<rect x="42" y="196.652" width="2.99465" height="8.55615" rx="1.49733" transform="rotate(-90 42 196.652)" fill="#0FA54A"/>
<rect x="98.5117" y="170.75" width="2.99465" height="8.55615" rx="1.49733" transform="rotate(45 98.5117 170.75)" fill="#0FA54A"/>
<rect x="51.4117" y="172.674" width="2.99465" height="8.55615" rx="1.49733" transform="rotate(-45 51.4117 172.674)" fill="#0FA54A"/>
<circle cx="76" cy="195" r="20" fill="#E9DD72"/>
<rect x="418.5" y="238.5" width="14" height="11" fill="#0FA54A" stroke="black"/>
<rect x="437.5" y="231.5" width="14" height="18" fill="#0FA54A" stroke="black"/>
<rect x="456.5" y="214.5" width="14" height="35" fill="#0FA54A" stroke="black"/>
<rect x="475.5" y="190.5" width="14" height="59" fill="#0FA54A" stroke="black"/>
<path d="M360.936 121C360.936 121 355.83 126.106 354.553 127.383C353.915 128.021 353.596 128.34 353.596 128.66M360.936 135.894C360.936 135.894 355.83 131.213 354.553 129.936C353.915 129.298 353.596 128.979 353.596 128.66M353.596 128.66H395.83" stroke="#0FA54A" stroke-width="2.5"/>
<path d="M386.894 194.191C386.894 194.191 392 189.085 393.277 187.809C393.915 187.17 394.234 186.851 394.234 186.532M386.894 179.298C386.894 179.298 392 183.979 393.277 185.255C393.915 185.894 394.234 186.213 394.234 186.532M394.234 186.532H352" stroke="#0FA54A" stroke-width="2.5"/>
<path d="M358.809 151.213C358.809 151.213 358.809 147.809 358.809 146.958C358.809 146.106 359.234 146.106 360.085 146.106C360.937 146.106 363.915 146.106 363.915 146.106" stroke="#0FA54A" stroke-width="2.5"/>
<path d="M409.021 146.106C409.021 146.106 412.425 146.106 413.277 146.106C414.128 146.106 414.128 146.532 414.128 147.383C414.128 148.234 414.128 151.213 414.128 151.213" stroke="#0FA54A" stroke-width="2.5"/>
<path d="M363.915 169.936C363.915 169.936 360.511 169.936 359.66 169.936C358.808 169.936 358.808 169.511 358.808 168.66C358.808 167.808 358.808 164.83 358.808 164.83" stroke="#0FA54A" stroke-width="2.5"/>
<path d="M420.033 146.532C419.919 153.713 419.66 168.234 419.66 168.234C419.66 168.234 411.149 160.149 407.745 157.17C404.341 154.191 398.809 159.298 402.213 162.702C405.617 166.106 413.702 174.617 413.702 174.617L414.128 175.043C414.128 175.043 409.992 175.073 403.915 175.119M420.033 146.532C420.065 144.514 420.085 143.076 420.085 142.702C420.085 141 419.234 140.574 417.532 140.574C415.83 140.574 357.107 140.574 355.404 140.574C353.702 140.574 353.277 141.426 353.277 142.702C353.277 143.979 353.277 171.638 353.277 173.34C353.277 175.043 353.702 175.468 355.404 175.468C356.648 175.468 387.427 175.241 403.915 175.119M420.033 146.532C420.033 146.532 425.192 151.512 426.468 152.915C427.745 154.318 427.745 155.468 427.745 157.17C427.745 158.872 427.745 191.213 427.745 191.213C427.745 191.213 415.404 191.213 412 191.213C408.596 191.213 403.915 187.383 403.915 184.404C403.915 181.426 403.915 175.119 403.915 175.119" stroke="#0FA54A" stroke-width="2.5"/>
<rect x="404.314" y="191.612" width="26.4362" height="7.71277" fill="#0FA54A" stroke="#0FA54A" stroke-width="2.5"/>
<circle cx="386.468" cy="157.596" r="11.516" stroke="#0FA54A" stroke-width="2.5"/>
</svg>
