<svg width="51" height="50" viewBox="0 0 51 50" fill="none" xmlns="http://www.w3.org/2000/svg">
<path d="M30.9785 33.5983C29.2218 34.3511 20.3011 26.4342 16.1722 19.0429L20.6894 14.5258C21.6932 13.522 21.9441 9.75766 20.6894 8.50289C19.4346 7.24812 15.4193 2.98198 13.4117 1.22523C11.4041 -0.531514 8.14169 -0.280495 6.63597 1.22523L1.86785 5.99335C-8.70927 19.7051 28.3807 59.5211 44.279 47.9026C44.279 47.9026 48.0433 44.1383 49.2981 42.6326C50.5529 41.1269 50.5529 38.6173 49.0471 37.1116L41.2676 29.332C40.0128 28.0773 36.4995 28.0773 35.2447 29.332C33.9899 30.5868 32.7351 32.8454 30.9785 33.5983Z" fill="#0FA54A"/>
</svg>
