<svg width="110" height="106" viewBox="0 0 110 106" fill="none" xmlns="http://www.w3.org/2000/svg">
<path d="M29.087 64.9561C29.0869 63.3262 32.8914 48.6513 33.4349 47.0214C33.9783 45.3915 38.3261 46.4784 37.7827 48.1083C37.2392 49.7383 33.9784 64.4121 33.4349 66.0431C32.8913 67.6741 29.0872 66.586 29.087 64.9561Z" fill="#0FA54A" stroke="#0FA54A"/>
<path d="M41.5869 80.174H54.0869L57.8913 83.9783H41.5869C39.9564 83.9783 39.9564 80.174 41.5869 80.174Z" fill="#0FA54A" stroke="#0FA54A"/>
<path d="M99.7389 58.4347C99.7389 58.4347 99.7389 44.0896 99.7389 31.2611M24.7391 81.8042C31.2608 81.8044 12.2391 81.8042 8.97825 81.8042C5.71738 81.8042 3 78.5435 3 73.1086C3 69.7046 3 47.9668 3 31.2611M3 31.2611C3 21.2935 3 13.1174 3 11.6957C2.99999 7.89139 5.71738 3.00009 8.97825 3.00009C12.2391 3.00009 88.8693 2.99988 92.1302 3.00009C95.391 3.0003 99.7389 8.43486 99.7389 11.6957C99.7389 13.0835 99.7389 21.756 99.7389 31.2611M3 31.2611H99.7389M20.9347 12.7828C14.413 12.7828 14.413 22.5654 20.9347 22.5654C27.4565 22.5654 27.4565 12.7828 20.9347 12.7828Z" stroke="#0FA54A" stroke-width="5"/>
<path d="M39.4131 12.7822C32.8915 12.7822 32.8912 22.5648 39.4131 22.5648C45.935 22.5648 45.9347 12.7822 39.4131 12.7822Z" stroke="#0FA54A" stroke-width="5"/>
<path d="M83.6158 12.7822C77.7408 12.7821 69.8814 12.782 63.8694 12.7822C57.3477 12.7823 57.3477 22.5648 63.8694 22.5648H85.065C91.0432 22.5648 91.0432 12.7822 85.065 12.7822L83.6158 12.7822Z" stroke="#0FA54A" stroke-width="5"/>
<path d="M13.3261 55.1738C13.3261 55.1738 19.3044 48.6518 20.3913 47.5651C21.4783 46.4784 24.7391 49.7393 23.6522 50.826C22.5652 51.9127 18.7609 56.261 18.2174 56.8042C17.6739 57.3475 22.5652 61.6953 23.6522 62.7825C24.7391 63.8697 21.4783 67.1305 20.3913 66.0433C19.3044 64.9561 14.4132 59.5214 13.3261 58.4347C12.2391 57.3479 12.2956 56.3259 13.3261 55.1738Z" fill="#0FA54A" stroke="#0FA54A"/>
<path d="M52.6751 58.6538C52.6751 58.6538 46.6969 65.1758 45.6099 66.2625C44.5229 67.3492 41.2621 64.0884 42.349 63.0017C43.436 61.915 47.2403 57.5666 47.7838 57.0234C48.3273 56.4802 43.436 52.1324 42.349 51.0452C41.2621 49.958 44.5229 46.6971 45.6099 47.7843C46.6969 48.8715 51.5881 54.3063 52.6751 55.393C53.7621 56.4797 53.7056 57.5017 52.6751 58.6538Z" fill="#0FA54A" stroke="#0FA54A"/>
<circle cx="32.8912" cy="81.8044" r="2.71738" fill="#0FA54A"/>
<path d="M77.4562 56.8045C76.9127 57.348 72.5649 60.6088 70.9345 59.5219C69.304 58.4349 67.6736 57.8914 66.5867 57.8914C65.4997 57.8914 62.2389 61.6958 62.2389 62.7827C62.2389 63.8697 63.8693 65.5001 63.8693 67.1305C63.8693 68.761 64.1841 72.0278 62.2389 72.5653C60.2936 73.1029 56.8041 73.1088 56.8041 73.6523L56.8041 74.53C56.804 76.3244 56.804 80.1695 56.8041 80.7175C56.8042 81.4024 60.6082 81.8044 62.2389 82.8914C63.8695 83.9783 63.8693 87.7827 63.8693 87.7827C63.8693 87.7827 61.6956 92.674 62.2389 93.2174C62.7821 93.7609 66.043 97.0218 66.5867 97.5652C67.1304 98.1087 69.8477 95.3913 71.478 95.3913C73.1082 95.3913 77.4564 97.0218 77.4562 97.5652C77.456 98.1087 77.9999 103 79.0866 103H84.5214C85.0651 103 86.152 98.1087 86.6953 97.5652C87.2386 97.0218 90.3012 95.0539 93.217 95.3913C93.217 95.3913 97.5649 97.5652 98.1083 97.0218L98.1092 97.0208C98.6542 96.4758 100.826 94.3035 101.913 92.674C103 91.0435 101 90.0538 99.7388 87.7827C99.396 85.712 100.826 83.9783 101.913 82.8914C103 81.8044 105.946 80.6277 106.804 80.7175C107.662 80.8072 106.804 74.1957 106.804 73.6523C106.804 73.1088 104.087 74.1957 101.913 72.5653C99.7388 70.9349 99.1953 68.761 99.7388 67.1305C100.282 65.5001 102.456 63.3262 101.913 62.2392C101.369 61.1523 98.3801 56.8045 97.5648 57.348C96.7496 57.8914 93.7605 60.0653 92.6736 59.5219C91.5866 58.9784 87.2388 56.8045 86.6953 56.8045C86.1518 56.8045 85.6084 52.4567 84.5214 52.4567H79.0866C77.4562 52.4567 77.9997 56.261 77.4562 56.8045Z" stroke="#0FA54A" stroke-width="5"/>
<circle cx="81.8041" cy="77.4566" r="13.5869" fill="#0FA54A"/>
</svg>
