<svg width="83" height="106" viewBox="0 0 83 106" fill="none" xmlns="http://www.w3.org/2000/svg">
<path d="M20.7915 29.9942C17.7239 26.9268 12.2025 32.4482 15.27 35.5157L22.0185 42.2642C25.5207 45.6099 26.9264 45.9452 29.9939 42.2642C33.0614 38.5832 39.1964 29.9949 41.0368 26.9268C42.8773 23.8586 37.4786 20.178 35.5154 22.6323C33.5521 25.0866 25.6994 34.9022 25.6994 34.9022L20.7915 29.9942Z" fill="#0FA54A"/>
<path d="M21.0767 53.4952C18.0092 50.4277 12.4878 55.9492 15.5552 59.0167L22.3037 65.7652C25.8059 69.1109 27.2116 69.4461 30.2792 65.7652C33.3467 62.0842 39.4817 53.4959 41.3221 50.4277C43.1626 47.3596 37.7639 43.6789 35.8006 46.1333C33.8374 48.5876 25.9847 58.4032 25.9847 58.4032L21.0767 53.4952Z" fill="#0FA54A"/>
<path d="M21.0767 76.8081C18.0092 73.7406 12.4878 79.2621 15.5552 82.3296L22.3037 89.078C25.8059 92.4238 27.2116 92.759 30.2792 89.078C33.3467 85.397 39.4817 76.8088 41.3221 73.7406C43.1626 70.6724 37.7639 66.9918 35.8006 69.4461C33.8374 71.9005 25.9847 81.7161 25.9847 81.7161L21.0767 76.8081Z" fill="#0FA54A"/>
<path d="M65.2706 79.6874C61.5906 79.6873 48.0937 79.6871 44.4118 79.6874C40.7298 79.6876 40.7298 87.0493 44.4118 87.0493H65.2706C68.9507 87.0493 68.9507 79.6874 65.2706 79.6874Z" fill="#0FA54A"/>
<path d="M65.5776 33.6744C61.8976 33.6744 48.4007 33.6742 44.7187 33.6744C41.0368 33.6746 41.0368 41.0364 44.7187 41.0364H65.5776C69.2577 41.0364 69.2577 33.6744 65.5776 33.6744Z" fill="#0FA54A"/>
<path d="M65.2706 56.3745C61.5906 56.3745 48.0937 56.3743 44.4118 56.3745C40.7298 56.3747 40.7298 63.7365 44.4118 63.7365H65.2706C68.9507 63.7364 68.9507 56.3745 65.2706 56.3745Z" fill="#0FA54A"/>
<path d="M55.7607 3.6135C55.7607 3.6135 9.74847 3 6.68098 3C3.6135 3 3 3.6135 3 6.06748V98.7055C3 102.387 3 103 6.68098 103H75.3926C79.0736 103 79.0736 101.773 79.0736 98.7055V27.5399L55.7607 3.6135Z" stroke="#0FA54A" stroke-width="6"/>
</svg>
