<svg width="630" height="481" viewBox="0 0 630 481" fill="none" xmlns="http://www.w3.org/2000/svg">
<rect width="416" height="390" rx="20" fill="#839292"/>
<path d="M91.6055 282H89.6016V266.625H84.2109V264.867H96.9727V266.625H91.6055V282ZM104.215 268.922C105.309 268.922 106.246 269.164 107.027 269.648C107.809 270.133 108.406 270.812 108.82 271.688C109.234 272.555 109.441 273.57 109.441 274.734V275.941H100.57C100.594 277.449 100.969 278.598 101.695 279.387C102.422 280.176 103.445 280.57 104.766 280.57C105.578 280.57 106.297 280.496 106.922 280.348C107.547 280.199 108.195 279.98 108.867 279.691V281.402C108.219 281.691 107.574 281.902 106.934 282.035C106.301 282.168 105.551 282.234 104.684 282.234C103.449 282.234 102.371 281.984 101.449 281.484C100.535 280.977 99.8242 280.234 99.3164 279.258C98.8086 278.281 98.5547 277.086 98.5547 275.672C98.5547 274.289 98.7852 273.094 99.2461 272.086C99.7148 271.07 100.371 270.289 101.215 269.742C102.066 269.195 103.066 268.922 104.215 268.922ZM104.191 270.516C103.152 270.516 102.324 270.855 101.707 271.535C101.09 272.215 100.723 273.164 100.605 274.383H107.402C107.395 273.617 107.273 272.945 107.039 272.367C106.812 271.781 106.465 271.328 105.996 271.008C105.527 270.68 104.926 270.516 104.191 270.516ZM121.055 278.484C121.055 279.305 120.848 279.996 120.434 280.559C120.027 281.113 119.441 281.531 118.676 281.812C117.918 282.094 117.012 282.234 115.957 282.234C115.059 282.234 114.281 282.164 113.625 282.023C112.969 281.883 112.395 281.684 111.902 281.426V279.633C112.426 279.891 113.051 280.125 113.777 280.336C114.504 280.547 115.246 280.652 116.004 280.652C117.113 280.652 117.918 280.473 118.418 280.113C118.918 279.754 119.168 279.266 119.168 278.648C119.168 278.297 119.066 277.988 118.863 277.723C118.668 277.449 118.336 277.188 117.867 276.938C117.398 276.68 116.75 276.398 115.922 276.094C115.102 275.781 114.391 275.473 113.789 275.168C113.195 274.855 112.734 274.477 112.406 274.031C112.086 273.586 111.926 273.008 111.926 272.297C111.926 271.211 112.363 270.379 113.238 269.801C114.121 269.215 115.277 268.922 116.707 268.922C117.48 268.922 118.203 269 118.875 269.156C119.555 269.305 120.188 269.508 120.773 269.766L120.117 271.324C119.586 271.098 119.02 270.906 118.418 270.75C117.816 270.594 117.203 270.516 116.578 270.516C115.68 270.516 114.988 270.664 114.504 270.961C114.027 271.258 113.789 271.664 113.789 272.18C113.789 272.578 113.898 272.906 114.117 273.164C114.344 273.422 114.703 273.664 115.195 273.891C115.688 274.117 116.336 274.383 117.141 274.688C117.945 274.984 118.641 275.293 119.227 275.613C119.812 275.926 120.262 276.309 120.574 276.762C120.895 277.207 121.055 277.781 121.055 278.484ZM128.332 280.641C128.652 280.641 128.98 280.613 129.316 280.559C129.652 280.504 129.926 280.438 130.137 280.359V281.871C129.91 281.973 129.594 282.059 129.188 282.129C128.789 282.199 128.398 282.234 128.016 282.234C127.336 282.234 126.719 282.117 126.164 281.883C125.609 281.641 125.164 281.234 124.828 280.664C124.5 280.094 124.336 279.305 124.336 278.297V270.68H122.508V269.73L124.348 268.969L125.121 266.18H126.293V269.156H130.055V270.68H126.293V278.238C126.293 279.043 126.477 279.645 126.844 280.043C127.219 280.441 127.715 280.641 128.332 280.641ZM134.684 269.156V282H132.738V269.156H134.684ZM133.734 264.352C134.055 264.352 134.328 264.457 134.555 264.668C134.789 264.871 134.906 265.191 134.906 265.629C134.906 266.059 134.789 266.379 134.555 266.59C134.328 266.801 134.055 266.906 133.734 266.906C133.398 266.906 133.117 266.801 132.891 266.59C132.672 266.379 132.562 266.059 132.562 265.629C132.562 265.191 132.672 264.871 132.891 264.668C133.117 264.457 133.398 264.352 133.734 264.352ZM144.891 268.922C146.414 268.922 147.566 269.297 148.348 270.047C149.129 270.789 149.52 271.984 149.52 273.633V282H147.598V273.762C147.598 272.691 147.352 271.891 146.859 271.359C146.375 270.828 145.629 270.562 144.621 270.562C143.199 270.562 142.199 270.965 141.621 271.77C141.043 272.574 140.754 273.742 140.754 275.273V282H138.809V269.156H140.379L140.672 271.008H140.777C141.051 270.555 141.398 270.176 141.82 269.871C142.242 269.559 142.715 269.324 143.238 269.168C143.762 269.004 144.312 268.922 144.891 268.922ZM157.113 287.766C155.426 287.766 154.125 287.449 153.211 286.816C152.297 286.191 151.84 285.312 151.84 284.18C151.84 283.375 152.094 282.688 152.602 282.117C153.117 281.547 153.828 281.168 154.734 280.98C154.398 280.824 154.109 280.59 153.867 280.277C153.633 279.965 153.516 279.605 153.516 279.199C153.516 278.73 153.645 278.32 153.902 277.969C154.168 277.609 154.57 277.266 155.109 276.938C154.438 276.664 153.891 276.203 153.469 275.555C153.055 274.898 152.848 274.137 152.848 273.27C152.848 272.348 153.039 271.562 153.422 270.914C153.805 270.258 154.359 269.758 155.086 269.414C155.812 269.07 156.691 268.898 157.723 268.898C157.949 268.898 158.176 268.91 158.402 268.934C158.637 268.949 158.859 268.977 159.07 269.016C159.281 269.047 159.465 269.086 159.621 269.133H164.027V270.387L161.66 270.68C161.895 270.984 162.09 271.352 162.246 271.781C162.402 272.211 162.48 272.688 162.48 273.211C162.48 274.492 162.047 275.512 161.18 276.27C160.312 277.02 159.121 277.395 157.605 277.395C157.246 277.395 156.879 277.363 156.504 277.301C156.121 277.512 155.828 277.746 155.625 278.004C155.43 278.262 155.332 278.559 155.332 278.895C155.332 279.145 155.406 279.344 155.555 279.492C155.711 279.641 155.934 279.75 156.223 279.82C156.512 279.883 156.859 279.914 157.266 279.914H159.527C160.926 279.914 161.996 280.207 162.738 280.793C163.488 281.379 163.863 282.234 163.863 283.359C163.863 284.781 163.285 285.871 162.129 286.629C160.973 287.387 159.301 287.766 157.113 287.766ZM157.172 286.242C158.234 286.242 159.113 286.133 159.809 285.914C160.512 285.703 161.035 285.395 161.379 284.988C161.73 284.59 161.906 284.113 161.906 283.559C161.906 283.043 161.789 282.652 161.555 282.387C161.32 282.129 160.977 281.957 160.523 281.871C160.07 281.777 159.516 281.73 158.859 281.73H156.633C156.055 281.73 155.551 281.82 155.121 282C154.691 282.18 154.359 282.445 154.125 282.797C153.898 283.148 153.785 283.586 153.785 284.109C153.785 284.805 154.078 285.332 154.664 285.691C155.25 286.059 156.086 286.242 157.172 286.242ZM157.676 275.977C158.605 275.977 159.305 275.742 159.773 275.273C160.242 274.805 160.477 274.121 160.477 273.223C160.477 272.262 160.238 271.543 159.762 271.066C159.285 270.582 158.582 270.34 157.652 270.34C156.762 270.34 156.074 270.59 155.59 271.09C155.113 271.582 154.875 272.305 154.875 273.258C154.875 274.133 155.117 274.805 155.602 275.273C156.086 275.742 156.777 275.977 157.676 275.977Z" fill="white"/>
<path d="M99.9492 326.27C99.9492 328.199 99.5977 329.812 98.8945 331.109C98.1914 332.398 97.1719 333.371 95.8359 334.027C94.5078 334.676 92.8945 335 90.9961 335H86.3438V317.867H91.5117C93.2539 317.867 94.7539 318.188 96.0117 318.828C97.2695 319.461 98.2383 320.402 98.918 321.652C99.6055 322.895 99.9492 324.434 99.9492 326.27ZM97.8516 326.34C97.8516 324.801 97.5938 323.531 97.0781 322.531C96.5703 321.531 95.8203 320.789 94.8281 320.305C93.8438 319.812 92.6367 319.566 91.207 319.566H88.3359V333.289H90.7617C93.1211 333.289 94.8906 332.707 96.0703 331.543C97.2578 330.379 97.8516 328.645 97.8516 326.34ZM108.41 321.922C109.504 321.922 110.441 322.164 111.223 322.648C112.004 323.133 112.602 323.812 113.016 324.688C113.43 325.555 113.637 326.57 113.637 327.734V328.941H104.766C104.789 330.449 105.164 331.598 105.891 332.387C106.617 333.176 107.641 333.57 108.961 333.57C109.773 333.57 110.492 333.496 111.117 333.348C111.742 333.199 112.391 332.98 113.062 332.691V334.402C112.414 334.691 111.77 334.902 111.129 335.035C110.496 335.168 109.746 335.234 108.879 335.234C107.645 335.234 106.566 334.984 105.645 334.484C104.73 333.977 104.02 333.234 103.512 332.258C103.004 331.281 102.75 330.086 102.75 328.672C102.75 327.289 102.98 326.094 103.441 325.086C103.91 324.07 104.566 323.289 105.41 322.742C106.262 322.195 107.262 321.922 108.41 321.922ZM108.387 323.516C107.348 323.516 106.52 323.855 105.902 324.535C105.285 325.215 104.918 326.164 104.801 327.383H111.598C111.59 326.617 111.469 325.945 111.234 325.367C111.008 324.781 110.66 324.328 110.191 324.008C109.723 323.68 109.121 323.516 108.387 323.516ZM122.977 321.922C124.578 321.922 125.855 322.473 126.809 323.574C127.762 324.676 128.238 326.332 128.238 328.543C128.238 330.004 128.02 331.23 127.582 332.223C127.145 333.215 126.527 333.965 125.73 334.473C124.941 334.98 124.008 335.234 122.93 335.234C122.25 335.234 121.652 335.145 121.137 334.965C120.621 334.785 120.18 334.543 119.812 334.238C119.445 333.934 119.141 333.602 118.898 333.242H118.758C118.781 333.547 118.809 333.914 118.84 334.344C118.879 334.773 118.898 335.148 118.898 335.469V340.742H116.941V322.156H118.547L118.805 324.055H118.898C119.148 323.664 119.453 323.309 119.812 322.988C120.172 322.66 120.609 322.402 121.125 322.215C121.648 322.02 122.266 321.922 122.977 321.922ZM122.637 323.562C121.746 323.562 121.027 323.734 120.48 324.078C119.941 324.422 119.547 324.938 119.297 325.625C119.047 326.305 118.914 327.16 118.898 328.191V328.566C118.898 329.652 119.016 330.57 119.25 331.32C119.492 332.07 119.887 332.641 120.434 333.031C120.988 333.422 121.73 333.617 122.66 333.617C123.457 333.617 124.121 333.402 124.652 332.973C125.184 332.543 125.578 331.945 125.836 331.18C126.102 330.406 126.234 329.52 126.234 328.52C126.234 327.004 125.938 325.801 125.344 324.91C124.758 324.012 123.855 323.562 122.637 323.562ZM133.594 335H131.637V316.766H133.594V335ZM148.781 328.555C148.781 329.609 148.645 330.551 148.371 331.379C148.098 332.207 147.703 332.906 147.188 333.477C146.672 334.047 146.047 334.484 145.312 334.789C144.586 335.086 143.762 335.234 142.84 335.234C141.98 335.234 141.191 335.086 140.473 334.789C139.762 334.484 139.145 334.047 138.621 333.477C138.105 332.906 137.703 332.207 137.414 331.379C137.133 330.551 136.992 329.609 136.992 328.555C136.992 327.148 137.23 325.953 137.707 324.969C138.184 323.977 138.863 323.223 139.746 322.707C140.637 322.184 141.695 321.922 142.922 321.922C144.094 321.922 145.117 322.184 145.992 322.707C146.875 323.23 147.559 323.988 148.043 324.98C148.535 325.965 148.781 327.156 148.781 328.555ZM139.008 328.555C139.008 329.586 139.145 330.48 139.418 331.238C139.691 331.996 140.113 332.582 140.684 332.996C141.254 333.41 141.988 333.617 142.887 333.617C143.777 333.617 144.508 333.41 145.078 332.996C145.656 332.582 146.082 331.996 146.355 331.238C146.629 330.48 146.766 329.586 146.766 328.555C146.766 327.531 146.629 326.648 146.355 325.906C146.082 325.156 145.66 324.578 145.09 324.172C144.52 323.766 143.781 323.562 142.875 323.562C141.539 323.562 140.559 324.004 139.934 324.887C139.316 325.77 139.008 326.992 139.008 328.555ZM150.117 322.156H152.203L155.039 329.609C155.203 330.047 155.355 330.469 155.496 330.875C155.637 331.273 155.762 331.656 155.871 332.023C155.98 332.391 156.066 332.746 156.129 333.09H156.211C156.32 332.699 156.477 332.188 156.68 331.555C156.883 330.914 157.102 330.262 157.336 329.598L160.02 322.156H162.117L156.527 336.887C156.23 337.676 155.883 338.363 155.484 338.949C155.094 339.535 154.617 339.984 154.055 340.297C153.492 340.617 152.812 340.777 152.016 340.777C151.648 340.777 151.324 340.754 151.043 340.707C150.762 340.668 150.52 340.621 150.316 340.566V339.008C150.488 339.047 150.695 339.082 150.938 339.113C151.188 339.145 151.445 339.16 151.711 339.16C152.195 339.16 152.613 339.066 152.965 338.879C153.324 338.699 153.633 338.434 153.891 338.082C154.148 337.73 154.371 337.312 154.559 336.828L155.262 335.023L150.117 322.156ZM178.113 321.922C179.527 321.922 180.594 322.293 181.312 323.035C182.031 323.77 182.391 324.953 182.391 326.586V335H180.469V326.68C180.469 325.641 180.242 324.863 179.789 324.348C179.344 323.824 178.68 323.562 177.797 323.562C176.555 323.562 175.652 323.922 175.09 324.641C174.527 325.359 174.246 326.418 174.246 327.816V335H172.312V326.68C172.312 325.984 172.211 325.406 172.008 324.945C171.812 324.484 171.516 324.141 171.117 323.914C170.727 323.68 170.23 323.562 169.629 323.562C168.777 323.562 168.094 323.738 167.578 324.09C167.062 324.441 166.688 324.965 166.453 325.66C166.227 326.348 166.113 327.195 166.113 328.203V335H164.168V322.156H165.738L166.031 323.973H166.137C166.395 323.527 166.719 323.152 167.109 322.848C167.5 322.543 167.938 322.312 168.422 322.156C168.906 322 169.422 321.922 169.969 321.922C170.945 321.922 171.762 322.105 172.418 322.473C173.082 322.832 173.562 323.383 173.859 324.125H173.965C174.387 323.383 174.965 322.832 175.699 322.473C176.434 322.105 177.238 321.922 178.113 321.922ZM191.332 321.922C192.426 321.922 193.363 322.164 194.145 322.648C194.926 323.133 195.523 323.812 195.938 324.688C196.352 325.555 196.559 326.57 196.559 327.734V328.941H187.688C187.711 330.449 188.086 331.598 188.812 332.387C189.539 333.176 190.562 333.57 191.883 333.57C192.695 333.57 193.414 333.496 194.039 333.348C194.664 333.199 195.312 332.98 195.984 332.691V334.402C195.336 334.691 194.691 334.902 194.051 335.035C193.418 335.168 192.668 335.234 191.801 335.234C190.566 335.234 189.488 334.984 188.566 334.484C187.652 333.977 186.941 333.234 186.434 332.258C185.926 331.281 185.672 330.086 185.672 328.672C185.672 327.289 185.902 326.094 186.363 325.086C186.832 324.07 187.488 323.289 188.332 322.742C189.184 322.195 190.184 321.922 191.332 321.922ZM191.309 323.516C190.27 323.516 189.441 323.855 188.824 324.535C188.207 325.215 187.84 326.164 187.723 327.383H194.52C194.512 326.617 194.391 325.945 194.156 325.367C193.93 324.781 193.582 324.328 193.113 324.008C192.645 323.68 192.043 323.516 191.309 323.516ZM205.945 321.922C207.469 321.922 208.621 322.297 209.402 323.047C210.184 323.789 210.574 324.984 210.574 326.633V335H208.652V326.762C208.652 325.691 208.406 324.891 207.914 324.359C207.43 323.828 206.684 323.562 205.676 323.562C204.254 323.562 203.254 323.965 202.676 324.77C202.098 325.574 201.809 326.742 201.809 328.273V335H199.863V322.156H201.434L201.727 324.008H201.832C202.105 323.555 202.453 323.176 202.875 322.871C203.297 322.559 203.77 322.324 204.293 322.168C204.816 322.004 205.367 321.922 205.945 321.922ZM218.73 333.641C219.051 333.641 219.379 333.613 219.715 333.559C220.051 333.504 220.324 333.438 220.535 333.359V334.871C220.309 334.973 219.992 335.059 219.586 335.129C219.188 335.199 218.797 335.234 218.414 335.234C217.734 335.234 217.117 335.117 216.562 334.883C216.008 334.641 215.562 334.234 215.227 333.664C214.898 333.094 214.734 332.305 214.734 331.297V323.68H212.906V322.73L214.746 321.969L215.52 319.18H216.691V322.156H220.453V323.68H216.691V331.238C216.691 332.043 216.875 332.645 217.242 333.043C217.617 333.441 218.113 333.641 218.73 333.641Z" fill="white"/>
<path d="M99.9492 218.27C99.9492 220.199 99.5977 221.812 98.8945 223.109C98.1914 224.398 97.1719 225.371 95.8359 226.027C94.5078 226.676 92.8945 227 90.9961 227H86.3438V209.867H91.5117C93.2539 209.867 94.7539 210.188 96.0117 210.828C97.2695 211.461 98.2383 212.402 98.918 213.652C99.6055 214.895 99.9492 216.434 99.9492 218.27ZM97.8516 218.34C97.8516 216.801 97.5938 215.531 97.0781 214.531C96.5703 213.531 95.8203 212.789 94.8281 212.305C93.8438 211.812 92.6367 211.566 91.207 211.566H88.3359V225.289H90.7617C93.1211 225.289 94.8906 224.707 96.0703 223.543C97.2578 222.379 97.8516 220.645 97.8516 218.34ZM108.41 213.922C109.504 213.922 110.441 214.164 111.223 214.648C112.004 215.133 112.602 215.812 113.016 216.688C113.43 217.555 113.637 218.57 113.637 219.734V220.941H104.766C104.789 222.449 105.164 223.598 105.891 224.387C106.617 225.176 107.641 225.57 108.961 225.57C109.773 225.57 110.492 225.496 111.117 225.348C111.742 225.199 112.391 224.98 113.062 224.691V226.402C112.414 226.691 111.77 226.902 111.129 227.035C110.496 227.168 109.746 227.234 108.879 227.234C107.645 227.234 106.566 226.984 105.645 226.484C104.73 225.977 104.02 225.234 103.512 224.258C103.004 223.281 102.75 222.086 102.75 220.672C102.75 219.289 102.98 218.094 103.441 217.086C103.91 216.07 104.566 215.289 105.41 214.742C106.262 214.195 107.262 213.922 108.41 213.922ZM108.387 215.516C107.348 215.516 106.52 215.855 105.902 216.535C105.285 217.215 104.918 218.164 104.801 219.383H111.598C111.59 218.617 111.469 217.945 111.234 217.367C111.008 216.781 110.66 216.328 110.191 216.008C109.723 215.68 109.121 215.516 108.387 215.516ZM119.766 227L114.891 214.156H116.977L119.801 221.926C119.996 222.457 120.195 223.043 120.398 223.684C120.602 224.324 120.742 224.84 120.82 225.23H120.902C120.996 224.84 121.152 224.324 121.371 223.684C121.59 223.035 121.789 222.449 121.969 221.926L124.793 214.156H126.879L121.992 227H119.766ZM133.887 213.922C134.98 213.922 135.918 214.164 136.699 214.648C137.48 215.133 138.078 215.812 138.492 216.688C138.906 217.555 139.113 218.57 139.113 219.734V220.941H130.242C130.266 222.449 130.641 223.598 131.367 224.387C132.094 225.176 133.117 225.57 134.438 225.57C135.25 225.57 135.969 225.496 136.594 225.348C137.219 225.199 137.867 224.98 138.539 224.691V226.402C137.891 226.691 137.246 226.902 136.605 227.035C135.973 227.168 135.223 227.234 134.355 227.234C133.121 227.234 132.043 226.984 131.121 226.484C130.207 225.977 129.496 225.234 128.988 224.258C128.48 223.281 128.227 222.086 128.227 220.672C128.227 219.289 128.457 218.094 128.918 217.086C129.387 216.07 130.043 215.289 130.887 214.742C131.738 214.195 132.738 213.922 133.887 213.922ZM133.863 215.516C132.824 215.516 131.996 215.855 131.379 216.535C130.762 217.215 130.395 218.164 130.277 219.383H137.074C137.066 218.617 136.945 217.945 136.711 217.367C136.484 216.781 136.137 216.328 135.668 216.008C135.199 215.68 134.598 215.516 133.863 215.516ZM144.375 227H142.418V208.766H144.375V227ZM159.562 220.555C159.562 221.609 159.426 222.551 159.152 223.379C158.879 224.207 158.484 224.906 157.969 225.477C157.453 226.047 156.828 226.484 156.094 226.789C155.367 227.086 154.543 227.234 153.621 227.234C152.762 227.234 151.973 227.086 151.254 226.789C150.543 226.484 149.926 226.047 149.402 225.477C148.887 224.906 148.484 224.207 148.195 223.379C147.914 222.551 147.773 221.609 147.773 220.555C147.773 219.148 148.012 217.953 148.488 216.969C148.965 215.977 149.645 215.223 150.527 214.707C151.418 214.184 152.477 213.922 153.703 213.922C154.875 213.922 155.898 214.184 156.773 214.707C157.656 215.23 158.34 215.988 158.824 216.98C159.316 217.965 159.562 219.156 159.562 220.555ZM149.789 220.555C149.789 221.586 149.926 222.48 150.199 223.238C150.473 223.996 150.895 224.582 151.465 224.996C152.035 225.41 152.77 225.617 153.668 225.617C154.559 225.617 155.289 225.41 155.859 224.996C156.438 224.582 156.863 223.996 157.137 223.238C157.41 222.48 157.547 221.586 157.547 220.555C157.547 219.531 157.41 218.648 157.137 217.906C156.863 217.156 156.441 216.578 155.871 216.172C155.301 215.766 154.562 215.562 153.656 215.562C152.32 215.562 151.34 216.004 150.715 216.887C150.098 217.77 149.789 218.992 149.789 220.555ZM168.961 213.922C170.562 213.922 171.84 214.473 172.793 215.574C173.746 216.676 174.223 218.332 174.223 220.543C174.223 222.004 174.004 223.23 173.566 224.223C173.129 225.215 172.512 225.965 171.715 226.473C170.926 226.98 169.992 227.234 168.914 227.234C168.234 227.234 167.637 227.145 167.121 226.965C166.605 226.785 166.164 226.543 165.797 226.238C165.43 225.934 165.125 225.602 164.883 225.242H164.742C164.766 225.547 164.793 225.914 164.824 226.344C164.863 226.773 164.883 227.148 164.883 227.469V232.742H162.926V214.156H164.531L164.789 216.055H164.883C165.133 215.664 165.438 215.309 165.797 214.988C166.156 214.66 166.594 214.402 167.109 214.215C167.633 214.02 168.25 213.922 168.961 213.922ZM168.621 215.562C167.73 215.562 167.012 215.734 166.465 216.078C165.926 216.422 165.531 216.938 165.281 217.625C165.031 218.305 164.898 219.16 164.883 220.191V220.566C164.883 221.652 165 222.57 165.234 223.32C165.477 224.07 165.871 224.641 166.418 225.031C166.973 225.422 167.715 225.617 168.645 225.617C169.441 225.617 170.105 225.402 170.637 224.973C171.168 224.543 171.562 223.945 171.82 223.18C172.086 222.406 172.219 221.52 172.219 220.52C172.219 219.004 171.922 217.801 171.328 216.91C170.742 216.012 169.84 215.562 168.621 215.562ZM191.566 213.922C192.98 213.922 194.047 214.293 194.766 215.035C195.484 215.77 195.844 216.953 195.844 218.586V227H193.922V218.68C193.922 217.641 193.695 216.863 193.242 216.348C192.797 215.824 192.133 215.562 191.25 215.562C190.008 215.562 189.105 215.922 188.543 216.641C187.98 217.359 187.699 218.418 187.699 219.816V227H185.766V218.68C185.766 217.984 185.664 217.406 185.461 216.945C185.266 216.484 184.969 216.141 184.57 215.914C184.18 215.68 183.684 215.562 183.082 215.562C182.23 215.562 181.547 215.738 181.031 216.09C180.516 216.441 180.141 216.965 179.906 217.66C179.68 218.348 179.566 219.195 179.566 220.203V227H177.621V214.156H179.191L179.484 215.973H179.59C179.848 215.527 180.172 215.152 180.562 214.848C180.953 214.543 181.391 214.312 181.875 214.156C182.359 214 182.875 213.922 183.422 213.922C184.398 213.922 185.215 214.105 185.871 214.473C186.535 214.832 187.016 215.383 187.312 216.125H187.418C187.84 215.383 188.418 214.832 189.152 214.473C189.887 214.105 190.691 213.922 191.566 213.922ZM204.785 213.922C205.879 213.922 206.816 214.164 207.598 214.648C208.379 215.133 208.977 215.812 209.391 216.688C209.805 217.555 210.012 218.57 210.012 219.734V220.941H201.141C201.164 222.449 201.539 223.598 202.266 224.387C202.992 225.176 204.016 225.57 205.336 225.57C206.148 225.57 206.867 225.496 207.492 225.348C208.117 225.199 208.766 224.98 209.438 224.691V226.402C208.789 226.691 208.145 226.902 207.504 227.035C206.871 227.168 206.121 227.234 205.254 227.234C204.02 227.234 202.941 226.984 202.02 226.484C201.105 225.977 200.395 225.234 199.887 224.258C199.379 223.281 199.125 222.086 199.125 220.672C199.125 219.289 199.355 218.094 199.816 217.086C200.285 216.07 200.941 215.289 201.785 214.742C202.637 214.195 203.637 213.922 204.785 213.922ZM204.762 215.516C203.723 215.516 202.895 215.855 202.277 216.535C201.66 217.215 201.293 218.164 201.176 219.383H207.973C207.965 218.617 207.844 217.945 207.609 217.367C207.383 216.781 207.035 216.328 206.566 216.008C206.098 215.68 205.496 215.516 204.762 215.516ZM219.398 213.922C220.922 213.922 222.074 214.297 222.855 215.047C223.637 215.789 224.027 216.984 224.027 218.633V227H222.105V218.762C222.105 217.691 221.859 216.891 221.367 216.359C220.883 215.828 220.137 215.562 219.129 215.562C217.707 215.562 216.707 215.965 216.129 216.77C215.551 217.574 215.262 218.742 215.262 220.273V227H213.316V214.156H214.887L215.18 216.008H215.285C215.559 215.555 215.906 215.176 216.328 214.871C216.75 214.559 217.223 214.324 217.746 214.168C218.27 214.004 218.82 213.922 219.398 213.922ZM232.184 225.641C232.504 225.641 232.832 225.613 233.168 225.559C233.504 225.504 233.777 225.438 233.988 225.359V226.871C233.762 226.973 233.445 227.059 233.039 227.129C232.641 227.199 232.25 227.234 231.867 227.234C231.188 227.234 230.57 227.117 230.016 226.883C229.461 226.641 229.016 226.234 228.68 225.664C228.352 225.094 228.188 224.305 228.188 223.297V215.68H226.359V214.73L228.199 213.969L228.973 211.18H230.145V214.156H233.906V215.68H230.145V223.238C230.145 224.043 230.328 224.645 230.695 225.043C231.07 225.441 231.566 225.641 232.184 225.641Z" fill="white"/>
<path d="M93.668 96.3789C92.7227 96.3789 91.8711 96.543 91.1133 96.8711C90.3633 97.1914 89.7227 97.6602 89.1914 98.2773C88.668 98.8867 88.2656 99.625 87.9844 100.492C87.7031 101.359 87.5625 102.336 87.5625 103.422C87.5625 104.859 87.7852 106.109 88.2305 107.172C88.6836 108.227 89.3555 109.043 90.2461 109.621C91.1445 110.199 92.2656 110.488 93.6094 110.488C94.375 110.488 95.0938 110.426 95.7656 110.301C96.4453 110.168 97.1055 110.004 97.7461 109.809V111.543C97.1211 111.777 96.4648 111.949 95.7773 112.059C95.0898 112.176 94.2734 112.234 93.3281 112.234C91.5859 112.234 90.1289 111.875 88.957 111.156C87.793 110.43 86.918 109.406 86.332 108.086C85.7539 106.766 85.4648 105.207 85.4648 103.41C85.4648 102.113 85.6445 100.93 86.0039 99.8594C86.3711 98.7812 86.9023 97.8516 87.5977 97.0703C88.3008 96.2891 89.1602 95.6875 90.1758 95.2656C91.1992 94.8359 92.3711 94.6211 93.6914 94.6211C94.5586 94.6211 95.3945 94.707 96.1992 94.8789C97.0039 95.0508 97.7305 95.2969 98.3789 95.6172L97.582 97.3047C97.0352 97.0547 96.4336 96.8398 95.7773 96.6602C95.1289 96.4727 94.4258 96.3789 93.668 96.3789ZM105.973 98.9453C107.504 98.9453 108.641 99.2891 109.383 99.9766C110.125 100.664 110.496 101.762 110.496 103.27V112H109.078L108.703 110.102H108.609C108.25 110.57 107.875 110.965 107.484 111.285C107.094 111.598 106.641 111.836 106.125 112C105.617 112.156 104.992 112.234 104.25 112.234C103.469 112.234 102.773 112.098 102.164 111.824C101.562 111.551 101.086 111.137 100.734 110.582C100.391 110.027 100.219 109.324 100.219 108.473C100.219 107.191 100.727 106.207 101.742 105.52C102.758 104.832 104.305 104.457 106.383 104.395L108.598 104.301V103.516C108.598 102.406 108.359 101.629 107.883 101.184C107.406 100.738 106.734 100.516 105.867 100.516C105.195 100.516 104.555 100.613 103.945 100.809C103.336 101.004 102.758 101.234 102.211 101.5L101.613 100.023C102.191 99.7266 102.855 99.4727 103.605 99.2617C104.355 99.0508 105.145 98.9453 105.973 98.9453ZM108.574 105.672L106.617 105.754C105.016 105.816 103.887 106.078 103.23 106.539C102.574 107 102.246 107.652 102.246 108.496C102.246 109.23 102.469 109.773 102.914 110.125C103.359 110.477 103.949 110.652 104.684 110.652C105.824 110.652 106.758 110.336 107.484 109.703C108.211 109.07 108.574 108.121 108.574 106.855V105.672ZM122.812 108.484C122.812 109.305 122.605 109.996 122.191 110.559C121.785 111.113 121.199 111.531 120.434 111.812C119.676 112.094 118.77 112.234 117.715 112.234C116.816 112.234 116.039 112.164 115.383 112.023C114.727 111.883 114.152 111.684 113.66 111.426V109.633C114.184 109.891 114.809 110.125 115.535 110.336C116.262 110.547 117.004 110.652 117.762 110.652C118.871 110.652 119.676 110.473 120.176 110.113C120.676 109.754 120.926 109.266 120.926 108.648C120.926 108.297 120.824 107.988 120.621 107.723C120.426 107.449 120.094 107.188 119.625 106.938C119.156 106.68 118.508 106.398 117.68 106.094C116.859 105.781 116.148 105.473 115.547 105.168C114.953 104.855 114.492 104.477 114.164 104.031C113.844 103.586 113.684 103.008 113.684 102.297C113.684 101.211 114.121 100.379 114.996 99.8008C115.879 99.2148 117.035 98.9219 118.465 98.9219C119.238 98.9219 119.961 99 120.633 99.1562C121.312 99.3047 121.945 99.5078 122.531 99.7656L121.875 101.324C121.344 101.098 120.777 100.906 120.176 100.75C119.574 100.594 118.961 100.516 118.336 100.516C117.438 100.516 116.746 100.664 116.262 100.961C115.785 101.258 115.547 101.664 115.547 102.18C115.547 102.578 115.656 102.906 115.875 103.164C116.102 103.422 116.461 103.664 116.953 103.891C117.445 104.117 118.094 104.383 118.898 104.688C119.703 104.984 120.398 105.293 120.984 105.613C121.57 105.926 122.02 106.309 122.332 106.762C122.652 107.207 122.812 107.781 122.812 108.484ZM130.887 98.9219C131.98 98.9219 132.918 99.1641 133.699 99.6484C134.48 100.133 135.078 100.812 135.492 101.688C135.906 102.555 136.113 103.57 136.113 104.734V105.941H127.242C127.266 107.449 127.641 108.598 128.367 109.387C129.094 110.176 130.117 110.57 131.438 110.57C132.25 110.57 132.969 110.496 133.594 110.348C134.219 110.199 134.867 109.98 135.539 109.691V111.402C134.891 111.691 134.246 111.902 133.605 112.035C132.973 112.168 132.223 112.234 131.355 112.234C130.121 112.234 129.043 111.984 128.121 111.484C127.207 110.977 126.496 110.234 125.988 109.258C125.48 108.281 125.227 107.086 125.227 105.672C125.227 104.289 125.457 103.094 125.918 102.086C126.387 101.07 127.043 100.289 127.887 99.7422C128.738 99.1953 129.738 98.9219 130.887 98.9219ZM130.863 100.516C129.824 100.516 128.996 100.855 128.379 101.535C127.762 102.215 127.395 103.164 127.277 104.383H134.074C134.066 103.617 133.945 102.945 133.711 102.367C133.484 101.781 133.137 101.328 132.668 101.008C132.199 100.68 131.598 100.516 130.863 100.516ZM153.27 96.3789C152.324 96.3789 151.473 96.543 150.715 96.8711C149.965 97.1914 149.324 97.6602 148.793 98.2773C148.27 98.8867 147.867 99.625 147.586 100.492C147.305 101.359 147.164 102.336 147.164 103.422C147.164 104.859 147.387 106.109 147.832 107.172C148.285 108.227 148.957 109.043 149.848 109.621C150.746 110.199 151.867 110.488 153.211 110.488C153.977 110.488 154.695 110.426 155.367 110.301C156.047 110.168 156.707 110.004 157.348 109.809V111.543C156.723 111.777 156.066 111.949 155.379 112.059C154.691 112.176 153.875 112.234 152.93 112.234C151.188 112.234 149.73 111.875 148.559 111.156C147.395 110.43 146.52 109.406 145.934 108.086C145.355 106.766 145.066 105.207 145.066 103.41C145.066 102.113 145.246 100.93 145.605 99.8594C145.973 98.7812 146.504 97.8516 147.199 97.0703C147.902 96.2891 148.762 95.6875 149.777 95.2656C150.801 94.8359 151.973 94.6211 153.293 94.6211C154.16 94.6211 154.996 94.707 155.801 94.8789C156.605 95.0508 157.332 95.2969 157.98 95.6172L157.184 97.3047C156.637 97.0547 156.035 96.8398 155.379 96.6602C154.73 96.4727 154.027 96.3789 153.27 96.3789ZM166.605 98.9219C166.863 98.9219 167.133 98.9375 167.414 98.9688C167.695 98.9922 167.945 99.0273 168.164 99.0742L167.918 100.879C167.707 100.824 167.473 100.781 167.215 100.75C166.957 100.719 166.715 100.703 166.488 100.703C165.973 100.703 165.484 100.809 165.023 101.02C164.57 101.223 164.172 101.52 163.828 101.91C163.484 102.293 163.215 102.758 163.02 103.305C162.824 103.844 162.727 104.445 162.727 105.109V112H160.77V99.1562H162.387L162.598 101.523H162.68C162.945 101.047 163.266 100.613 163.641 100.223C164.016 99.8242 164.449 99.5078 164.941 99.2734C165.441 99.0391 165.996 98.9219 166.605 98.9219ZM175.535 98.9219C176.629 98.9219 177.566 99.1641 178.348 99.6484C179.129 100.133 179.727 100.812 180.141 101.688C180.555 102.555 180.762 103.57 180.762 104.734V105.941H171.891C171.914 107.449 172.289 108.598 173.016 109.387C173.742 110.176 174.766 110.57 176.086 110.57C176.898 110.57 177.617 110.496 178.242 110.348C178.867 110.199 179.516 109.98 180.188 109.691V111.402C179.539 111.691 178.895 111.902 178.254 112.035C177.621 112.168 176.871 112.234 176.004 112.234C174.77 112.234 173.691 111.984 172.77 111.484C171.855 110.977 171.145 110.234 170.637 109.258C170.129 108.281 169.875 107.086 169.875 105.672C169.875 104.289 170.105 103.094 170.566 102.086C171.035 101.07 171.691 100.289 172.535 99.7422C173.387 99.1953 174.387 98.9219 175.535 98.9219ZM175.512 100.516C174.473 100.516 173.645 100.855 173.027 101.535C172.41 102.215 172.043 103.164 171.926 104.383H178.723C178.715 103.617 178.594 102.945 178.359 102.367C178.133 101.781 177.785 101.328 177.316 101.008C176.848 100.68 176.246 100.516 175.512 100.516ZM188.871 98.9453C190.402 98.9453 191.539 99.2891 192.281 99.9766C193.023 100.664 193.395 101.762 193.395 103.27V112H191.977L191.602 110.102H191.508C191.148 110.57 190.773 110.965 190.383 111.285C189.992 111.598 189.539 111.836 189.023 112C188.516 112.156 187.891 112.234 187.148 112.234C186.367 112.234 185.672 112.098 185.062 111.824C184.461 111.551 183.984 111.137 183.633 110.582C183.289 110.027 183.117 109.324 183.117 108.473C183.117 107.191 183.625 106.207 184.641 105.52C185.656 104.832 187.203 104.457 189.281 104.395L191.496 104.301V103.516C191.496 102.406 191.258 101.629 190.781 101.184C190.305 100.738 189.633 100.516 188.766 100.516C188.094 100.516 187.453 100.613 186.844 100.809C186.234 101.004 185.656 101.234 185.109 101.5L184.512 100.023C185.09 99.7266 185.754 99.4727 186.504 99.2617C187.254 99.0508 188.043 98.9453 188.871 98.9453ZM191.473 105.672L189.516 105.754C187.914 105.816 186.785 106.078 186.129 106.539C185.473 107 185.145 107.652 185.145 108.496C185.145 109.23 185.367 109.773 185.812 110.125C186.258 110.477 186.848 110.652 187.582 110.652C188.723 110.652 189.656 110.336 190.383 109.703C191.109 109.07 191.473 108.121 191.473 106.855V105.672ZM201.551 110.641C201.871 110.641 202.199 110.613 202.535 110.559C202.871 110.504 203.145 110.438 203.355 110.359V111.871C203.129 111.973 202.812 112.059 202.406 112.129C202.008 112.199 201.617 112.234 201.234 112.234C200.555 112.234 199.938 112.117 199.383 111.883C198.828 111.641 198.383 111.234 198.047 110.664C197.719 110.094 197.555 109.305 197.555 108.297V100.68H195.727V99.7305L197.566 98.9688L198.34 96.1797H199.512V99.1562H203.273V100.68H199.512V108.238C199.512 109.043 199.695 109.645 200.062 110.043C200.438 110.441 200.934 110.641 201.551 110.641ZM210.902 98.9219C211.996 98.9219 212.934 99.1641 213.715 99.6484C214.496 100.133 215.094 100.812 215.508 101.688C215.922 102.555 216.129 103.57 216.129 104.734V105.941H207.258C207.281 107.449 207.656 108.598 208.383 109.387C209.109 110.176 210.133 110.57 211.453 110.57C212.266 110.57 212.984 110.496 213.609 110.348C214.234 110.199 214.883 109.98 215.555 109.691V111.402C214.906 111.691 214.262 111.902 213.621 112.035C212.988 112.168 212.238 112.234 211.371 112.234C210.137 112.234 209.059 111.984 208.137 111.484C207.223 110.977 206.512 110.234 206.004 109.258C205.496 108.281 205.242 107.086 205.242 105.672C205.242 104.289 205.473 103.094 205.934 102.086C206.402 101.07 207.059 100.289 207.902 99.7422C208.754 99.1953 209.754 98.9219 210.902 98.9219ZM210.879 100.516C209.84 100.516 209.012 100.855 208.395 101.535C207.777 102.215 207.41 103.164 207.293 104.383H214.09C214.082 103.617 213.961 102.945 213.727 102.367C213.5 101.781 213.152 101.328 212.684 101.008C212.215 100.68 211.613 100.516 210.879 100.516ZM224.004 112.234C222.379 112.234 221.09 111.68 220.137 110.57C219.191 109.461 218.719 107.812 218.719 105.625C218.719 103.414 219.203 101.746 220.172 100.621C221.141 99.4883 222.43 98.9219 224.039 98.9219C224.719 98.9219 225.312 99.0117 225.82 99.1914C226.328 99.3711 226.766 99.6133 227.133 99.918C227.5 100.215 227.809 100.555 228.059 100.938H228.199C228.168 100.695 228.137 100.363 228.105 99.9414C228.074 99.5195 228.059 99.1758 228.059 98.9102V93.7656H230.004V112H228.434L228.141 110.172H228.059C227.816 110.555 227.508 110.902 227.133 111.215C226.766 111.527 226.324 111.777 225.809 111.965C225.301 112.145 224.699 112.234 224.004 112.234ZM224.309 110.617C225.684 110.617 226.656 110.227 227.227 109.445C227.797 108.664 228.082 107.504 228.082 105.965V105.613C228.082 103.98 227.809 102.727 227.262 101.852C226.723 100.977 225.738 100.539 224.309 100.539C223.113 100.539 222.219 101 221.625 101.922C221.031 102.836 220.734 104.086 220.734 105.672C220.734 107.25 221.027 108.469 221.613 109.328C222.207 110.188 223.105 110.617 224.309 110.617Z" fill="white"/>
<path d="M56.8789 53L51.125 37.8359H51.0312C51.0625 38.1562 51.0898 38.5469 51.1133 39.0078C51.1367 39.4688 51.1562 39.9727 51.1719 40.5195C51.1875 41.0586 51.1953 41.6094 51.1953 42.1719V53H49.3438V35.8672H52.2969L57.7227 50.1172H57.8047L63.3125 35.8672H66.2422V53H64.2734V42.0312C64.2734 41.5234 64.2812 41.0156 64.2969 40.5078C64.3125 39.9922 64.332 39.5078 64.3555 39.0547C64.3789 38.5938 64.4023 38.1953 64.4258 37.8594H64.332L58.5078 53H56.8789ZM68.6094 40.1562H70.6953L73.5312 47.6094C73.6953 48.0469 73.8477 48.4688 73.9883 48.875C74.1289 49.2734 74.2539 49.6562 74.3633 50.0234C74.4727 50.3906 74.5586 50.7461 74.6211 51.0898H74.7031C74.8125 50.6992 74.9688 50.1875 75.1719 49.5547C75.375 48.9141 75.5938 48.2617 75.8281 47.5977L78.5117 40.1562H80.6094L75.0195 54.8867C74.7227 55.6758 74.375 56.3633 73.9766 56.9492C73.5859 57.5352 73.1094 57.9844 72.5469 58.2969C71.9844 58.6172 71.3047 58.7773 70.5078 58.7773C70.1406 58.7773 69.8164 58.7539 69.5352 58.707C69.2539 58.668 69.0117 58.6211 68.8086 58.5664V57.0078C68.9805 57.0469 69.1875 57.082 69.4297 57.1133C69.6797 57.1445 69.9375 57.1602 70.2031 57.1602C70.6875 57.1602 71.1055 57.0664 71.457 56.8789C71.8164 56.6992 72.125 56.4336 72.3828 56.082C72.6406 55.7305 72.8633 55.3125 73.0508 54.8281L73.7539 53.0234L68.6094 40.1562ZM99.9336 53L97.8242 47.5625H90.957L88.8594 53H86.8438L93.5469 35.7969H95.3398L101.996 53H99.9336ZM97.2266 45.793L95.2227 40.3906C95.1758 40.25 95.0977 40.0195 94.9883 39.6992C94.8867 39.3789 94.7812 39.0469 94.6719 38.7031C94.5625 38.3594 94.4727 38.082 94.4023 37.8711C94.3242 38.1914 94.2383 38.5117 94.1445 38.832C94.0586 39.1445 93.9727 39.4375 93.8867 39.7109C93.8008 39.9766 93.7266 40.2031 93.6641 40.3906L91.625 45.793H97.2266ZM110.117 39.9219C111.719 39.9219 112.996 40.4727 113.949 41.5742C114.902 42.6758 115.379 44.332 115.379 46.543C115.379 48.0039 115.16 49.2305 114.723 50.2227C114.285 51.2148 113.668 51.9648 112.871 52.4727C112.082 52.9805 111.148 53.2344 110.07 53.2344C109.391 53.2344 108.793 53.1445 108.277 52.9648C107.762 52.7852 107.32 52.543 106.953 52.2383C106.586 51.9336 106.281 51.6016 106.039 51.2422H105.898C105.922 51.5469 105.949 51.9141 105.98 52.3438C106.02 52.7734 106.039 53.1484 106.039 53.4688V58.7422H104.082V40.1562H105.688L105.945 42.0547H106.039C106.289 41.6641 106.594 41.3086 106.953 40.9883C107.312 40.6602 107.75 40.4023 108.266 40.2148C108.789 40.0195 109.406 39.9219 110.117 39.9219ZM109.777 41.5625C108.887 41.5625 108.168 41.7344 107.621 42.0781C107.082 42.4219 106.688 42.9375 106.438 43.625C106.188 44.3047 106.055 45.1602 106.039 46.1914V46.5664C106.039 47.6523 106.156 48.5703 106.391 49.3203C106.633 50.0703 107.027 50.6406 107.574 51.0312C108.129 51.4219 108.871 51.6172 109.801 51.6172C110.598 51.6172 111.262 51.4023 111.793 50.9727C112.324 50.543 112.719 49.9453 112.977 49.1797C113.242 48.4062 113.375 47.5195 113.375 46.5195C113.375 45.0039 113.078 43.8008 112.484 42.9102C111.898 42.0117 110.996 41.5625 109.777 41.5625ZM124.812 39.9219C126.414 39.9219 127.691 40.4727 128.645 41.5742C129.598 42.6758 130.074 44.332 130.074 46.543C130.074 48.0039 129.855 49.2305 129.418 50.2227C128.98 51.2148 128.363 51.9648 127.566 52.4727C126.777 52.9805 125.844 53.2344 124.766 53.2344C124.086 53.2344 123.488 53.1445 122.973 52.9648C122.457 52.7852 122.016 52.543 121.648 52.2383C121.281 51.9336 120.977 51.6016 120.734 51.2422H120.594C120.617 51.5469 120.645 51.9141 120.676 52.3438C120.715 52.7734 120.734 53.1484 120.734 53.4688V58.7422H118.777V40.1562H120.383L120.641 42.0547H120.734C120.984 41.6641 121.289 41.3086 121.648 40.9883C122.008 40.6602 122.445 40.4023 122.961 40.2148C123.484 40.0195 124.102 39.9219 124.812 39.9219ZM124.473 41.5625C123.582 41.5625 122.863 41.7344 122.316 42.0781C121.777 42.4219 121.383 42.9375 121.133 43.625C120.883 44.3047 120.75 45.1602 120.734 46.1914V46.5664C120.734 47.6523 120.852 48.5703 121.086 49.3203C121.328 50.0703 121.723 50.6406 122.27 51.0312C122.824 51.4219 123.566 51.6172 124.496 51.6172C125.293 51.6172 125.957 51.4023 126.488 50.9727C127.02 50.543 127.414 49.9453 127.672 49.1797C127.938 48.4062 128.07 47.5195 128.07 46.5195C128.07 45.0039 127.773 43.8008 127.18 42.9102C126.594 42.0117 125.691 41.5625 124.473 41.5625Z" fill="white"/>
<line x1="57.5" y1="219.017" x2="57.5" y2="103" stroke="#8EAF20" stroke-width="5"/>
<line x1="57.5" y1="334.017" x2="57.5" y2="218" stroke="#8EAF20" stroke-width="5"/>
<circle cx="57" cy="103" r="10" fill="#8EAF20"/>
<circle cx="57" cy="161" r="10" fill="#8EAF20"/>
<circle cx="57" cy="218" r="10" fill="#8EAF20"/>
<circle cx="57" cy="273" r="10" fill="#8EAF20"/>
<circle cx="57" cy="326" r="10" fill="#8EAF20"/>
<path d="M99.9492 161.27C99.9492 163.199 99.5977 164.812 98.8945 166.109C98.1914 167.398 97.1719 168.371 95.8359 169.027C94.5078 169.676 92.8945 170 90.9961 170H86.3438V152.867H91.5117C93.2539 152.867 94.7539 153.188 96.0117 153.828C97.2695 154.461 98.2383 155.402 98.918 156.652C99.6055 157.895 99.9492 159.434 99.9492 161.27ZM97.8516 161.34C97.8516 159.801 97.5938 158.531 97.0781 157.531C96.5703 156.531 95.8203 155.789 94.8281 155.305C93.8438 154.812 92.6367 154.566 91.207 154.566H88.3359V168.289H90.7617C93.1211 168.289 94.8906 167.707 96.0703 166.543C97.2578 165.379 97.8516 163.645 97.8516 161.34ZM108.41 156.922C109.504 156.922 110.441 157.164 111.223 157.648C112.004 158.133 112.602 158.812 113.016 159.688C113.43 160.555 113.637 161.57 113.637 162.734V163.941H104.766C104.789 165.449 105.164 166.598 105.891 167.387C106.617 168.176 107.641 168.57 108.961 168.57C109.773 168.57 110.492 168.496 111.117 168.348C111.742 168.199 112.391 167.98 113.062 167.691V169.402C112.414 169.691 111.77 169.902 111.129 170.035C110.496 170.168 109.746 170.234 108.879 170.234C107.645 170.234 106.566 169.984 105.645 169.484C104.73 168.977 104.02 168.234 103.512 167.258C103.004 166.281 102.75 165.086 102.75 163.672C102.75 162.289 102.98 161.094 103.441 160.086C103.91 159.07 104.566 158.289 105.41 157.742C106.262 157.195 107.262 156.922 108.41 156.922ZM108.387 158.516C107.348 158.516 106.52 158.855 105.902 159.535C105.285 160.215 104.918 161.164 104.801 162.383H111.598C111.59 161.617 111.469 160.945 111.234 160.367C111.008 159.781 110.66 159.328 110.191 159.008C109.723 158.68 109.121 158.516 108.387 158.516ZM125.25 166.484C125.25 167.305 125.043 167.996 124.629 168.559C124.223 169.113 123.637 169.531 122.871 169.812C122.113 170.094 121.207 170.234 120.152 170.234C119.254 170.234 118.477 170.164 117.82 170.023C117.164 169.883 116.59 169.684 116.098 169.426V167.633C116.621 167.891 117.246 168.125 117.973 168.336C118.699 168.547 119.441 168.652 120.199 168.652C121.309 168.652 122.113 168.473 122.613 168.113C123.113 167.754 123.363 167.266 123.363 166.648C123.363 166.297 123.262 165.988 123.059 165.723C122.863 165.449 122.531 165.188 122.062 164.938C121.594 164.68 120.945 164.398 120.117 164.094C119.297 163.781 118.586 163.473 117.984 163.168C117.391 162.855 116.93 162.477 116.602 162.031C116.281 161.586 116.121 161.008 116.121 160.297C116.121 159.211 116.559 158.379 117.434 157.801C118.316 157.215 119.473 156.922 120.902 156.922C121.676 156.922 122.398 157 123.07 157.156C123.75 157.305 124.383 157.508 124.969 157.766L124.312 159.324C123.781 159.098 123.215 158.906 122.613 158.75C122.012 158.594 121.398 158.516 120.773 158.516C119.875 158.516 119.184 158.664 118.699 158.961C118.223 159.258 117.984 159.664 117.984 160.18C117.984 160.578 118.094 160.906 118.312 161.164C118.539 161.422 118.898 161.664 119.391 161.891C119.883 162.117 120.531 162.383 121.336 162.688C122.141 162.984 122.836 163.293 123.422 163.613C124.008 163.926 124.457 164.309 124.77 164.762C125.09 165.207 125.25 165.781 125.25 166.484ZM130.324 157.156V170H128.379V157.156H130.324ZM129.375 152.352C129.695 152.352 129.969 152.457 130.195 152.668C130.43 152.871 130.547 153.191 130.547 153.629C130.547 154.059 130.43 154.379 130.195 154.59C129.969 154.801 129.695 154.906 129.375 154.906C129.039 154.906 128.758 154.801 128.531 154.59C128.312 154.379 128.203 154.059 128.203 153.629C128.203 153.191 128.312 152.871 128.531 152.668C128.758 152.457 129.039 152.352 129.375 152.352ZM138.035 175.766C136.348 175.766 135.047 175.449 134.133 174.816C133.219 174.191 132.762 173.312 132.762 172.18C132.762 171.375 133.016 170.688 133.523 170.117C134.039 169.547 134.75 169.168 135.656 168.98C135.32 168.824 135.031 168.59 134.789 168.277C134.555 167.965 134.438 167.605 134.438 167.199C134.438 166.73 134.566 166.32 134.824 165.969C135.09 165.609 135.492 165.266 136.031 164.938C135.359 164.664 134.812 164.203 134.391 163.555C133.977 162.898 133.77 162.137 133.77 161.27C133.77 160.348 133.961 159.562 134.344 158.914C134.727 158.258 135.281 157.758 136.008 157.414C136.734 157.07 137.613 156.898 138.645 156.898C138.871 156.898 139.098 156.91 139.324 156.934C139.559 156.949 139.781 156.977 139.992 157.016C140.203 157.047 140.387 157.086 140.543 157.133H144.949V158.387L142.582 158.68C142.816 158.984 143.012 159.352 143.168 159.781C143.324 160.211 143.402 160.688 143.402 161.211C143.402 162.492 142.969 163.512 142.102 164.27C141.234 165.02 140.043 165.395 138.527 165.395C138.168 165.395 137.801 165.363 137.426 165.301C137.043 165.512 136.75 165.746 136.547 166.004C136.352 166.262 136.254 166.559 136.254 166.895C136.254 167.145 136.328 167.344 136.477 167.492C136.633 167.641 136.855 167.75 137.145 167.82C137.434 167.883 137.781 167.914 138.188 167.914H140.449C141.848 167.914 142.918 168.207 143.66 168.793C144.41 169.379 144.785 170.234 144.785 171.359C144.785 172.781 144.207 173.871 143.051 174.629C141.895 175.387 140.223 175.766 138.035 175.766ZM138.094 174.242C139.156 174.242 140.035 174.133 140.73 173.914C141.434 173.703 141.957 173.395 142.301 172.988C142.652 172.59 142.828 172.113 142.828 171.559C142.828 171.043 142.711 170.652 142.477 170.387C142.242 170.129 141.898 169.957 141.445 169.871C140.992 169.777 140.438 169.73 139.781 169.73H137.555C136.977 169.73 136.473 169.82 136.043 170C135.613 170.18 135.281 170.445 135.047 170.797C134.82 171.148 134.707 171.586 134.707 172.109C134.707 172.805 135 173.332 135.586 173.691C136.172 174.059 137.008 174.242 138.094 174.242ZM138.598 163.977C139.527 163.977 140.227 163.742 140.695 163.273C141.164 162.805 141.398 162.121 141.398 161.223C141.398 160.262 141.16 159.543 140.684 159.066C140.207 158.582 139.504 158.34 138.574 158.34C137.684 158.34 136.996 158.59 136.512 159.09C136.035 159.582 135.797 160.305 135.797 161.258C135.797 162.133 136.039 162.805 136.523 163.273C137.008 163.742 137.699 163.977 138.598 163.977ZM153.562 156.922C155.086 156.922 156.238 157.297 157.02 158.047C157.801 158.789 158.191 159.984 158.191 161.633V170H156.27V161.762C156.27 160.691 156.023 159.891 155.531 159.359C155.047 158.828 154.301 158.562 153.293 158.562C151.871 158.562 150.871 158.965 150.293 159.77C149.715 160.574 149.426 161.742 149.426 163.273V170H147.48V157.156H149.051L149.344 159.008H149.449C149.723 158.555 150.07 158.176 150.492 157.871C150.914 157.559 151.387 157.324 151.91 157.168C152.434 157.004 152.984 156.922 153.562 156.922ZM167.145 156.922C168.238 156.922 169.176 157.164 169.957 157.648C170.738 158.133 171.336 158.812 171.75 159.688C172.164 160.555 172.371 161.57 172.371 162.734V163.941H163.5C163.523 165.449 163.898 166.598 164.625 167.387C165.352 168.176 166.375 168.57 167.695 168.57C168.508 168.57 169.227 168.496 169.852 168.348C170.477 168.199 171.125 167.98 171.797 167.691V169.402C171.148 169.691 170.504 169.902 169.863 170.035C169.23 170.168 168.48 170.234 167.613 170.234C166.379 170.234 165.301 169.984 164.379 169.484C163.465 168.977 162.754 168.234 162.246 167.258C161.738 166.281 161.484 165.086 161.484 163.672C161.484 162.289 161.715 161.094 162.176 160.086C162.645 159.07 163.301 158.289 164.145 157.742C164.996 157.195 165.996 156.922 167.145 156.922ZM167.121 158.516C166.082 158.516 165.254 158.855 164.637 159.535C164.02 160.215 163.652 161.164 163.535 162.383H170.332C170.324 161.617 170.203 160.945 169.969 160.367C169.742 159.781 169.395 159.328 168.926 159.008C168.457 158.68 167.855 158.516 167.121 158.516ZM180.246 170.234C178.621 170.234 177.332 169.68 176.379 168.57C175.434 167.461 174.961 165.812 174.961 163.625C174.961 161.414 175.445 159.746 176.414 158.621C177.383 157.488 178.672 156.922 180.281 156.922C180.961 156.922 181.555 157.012 182.062 157.191C182.57 157.371 183.008 157.613 183.375 157.918C183.742 158.215 184.051 158.555 184.301 158.938H184.441C184.41 158.695 184.379 158.363 184.348 157.941C184.316 157.52 184.301 157.176 184.301 156.91V151.766H186.246V170H184.676L184.383 168.172H184.301C184.059 168.555 183.75 168.902 183.375 169.215C183.008 169.527 182.566 169.777 182.051 169.965C181.543 170.145 180.941 170.234 180.246 170.234ZM180.551 168.617C181.926 168.617 182.898 168.227 183.469 167.445C184.039 166.664 184.324 165.504 184.324 163.965V163.613C184.324 161.98 184.051 160.727 183.504 159.852C182.965 158.977 181.98 158.539 180.551 158.539C179.355 158.539 178.461 159 177.867 159.922C177.273 160.836 176.977 162.086 176.977 163.672C176.977 165.25 177.27 166.469 177.855 167.328C178.449 168.188 179.348 168.617 180.551 168.617Z" fill="white"/>
<rect x="280" y="256" width="350" height="225" rx="20" fill="#9A82C2"/>
<path d="M324.82 360.867C327.031 360.867 328.645 361.301 329.66 362.168C330.684 363.027 331.195 364.262 331.195 365.871C331.195 366.598 331.074 367.289 330.832 367.945C330.598 368.594 330.215 369.168 329.684 369.668C329.152 370.16 328.453 370.551 327.586 370.84C326.727 371.121 325.672 371.262 324.422 371.262H322.336V378H320.344V360.867H324.82ZM324.633 362.566H322.336V369.551H324.199C325.293 369.551 326.203 369.434 326.93 369.199C327.664 368.965 328.215 368.586 328.582 368.062C328.949 367.531 329.133 366.828 329.133 365.953C329.133 364.812 328.77 363.965 328.043 363.41C327.316 362.848 326.18 362.566 324.633 362.566ZM340.324 364.922C340.582 364.922 340.852 364.938 341.133 364.969C341.414 364.992 341.664 365.027 341.883 365.074L341.637 366.879C341.426 366.824 341.191 366.781 340.934 366.75C340.676 366.719 340.434 366.703 340.207 366.703C339.691 366.703 339.203 366.809 338.742 367.02C338.289 367.223 337.891 367.52 337.547 367.91C337.203 368.293 336.934 368.758 336.738 369.305C336.543 369.844 336.445 370.445 336.445 371.109V378H334.488V365.156H336.105L336.316 367.523H336.398C336.664 367.047 336.984 366.613 337.359 366.223C337.734 365.824 338.168 365.508 338.66 365.273C339.16 365.039 339.715 364.922 340.324 364.922ZM355.383 371.555C355.383 372.609 355.246 373.551 354.973 374.379C354.699 375.207 354.305 375.906 353.789 376.477C353.273 377.047 352.648 377.484 351.914 377.789C351.188 378.086 350.363 378.234 349.441 378.234C348.582 378.234 347.793 378.086 347.074 377.789C346.363 377.484 345.746 377.047 345.223 376.477C344.707 375.906 344.305 375.207 344.016 374.379C343.734 373.551 343.594 372.609 343.594 371.555C343.594 370.148 343.832 368.953 344.309 367.969C344.785 366.977 345.465 366.223 346.348 365.707C347.238 365.184 348.297 364.922 349.523 364.922C350.695 364.922 351.719 365.184 352.594 365.707C353.477 366.23 354.16 366.988 354.645 367.98C355.137 368.965 355.383 370.156 355.383 371.555ZM345.609 371.555C345.609 372.586 345.746 373.48 346.02 374.238C346.293 374.996 346.715 375.582 347.285 375.996C347.855 376.41 348.59 376.617 349.488 376.617C350.379 376.617 351.109 376.41 351.68 375.996C352.258 375.582 352.684 374.996 352.957 374.238C353.23 373.48 353.367 372.586 353.367 371.555C353.367 370.531 353.23 369.648 352.957 368.906C352.684 368.156 352.262 367.578 351.691 367.172C351.121 366.766 350.383 366.562 349.477 366.562C348.141 366.562 347.16 367.004 346.535 367.887C345.918 368.77 345.609 369.992 345.609 371.555ZM362.332 383.766C360.645 383.766 359.344 383.449 358.43 382.816C357.516 382.191 357.059 381.312 357.059 380.18C357.059 379.375 357.312 378.688 357.82 378.117C358.336 377.547 359.047 377.168 359.953 376.98C359.617 376.824 359.328 376.59 359.086 376.277C358.852 375.965 358.734 375.605 358.734 375.199C358.734 374.73 358.863 374.32 359.121 373.969C359.387 373.609 359.789 373.266 360.328 372.938C359.656 372.664 359.109 372.203 358.688 371.555C358.273 370.898 358.066 370.137 358.066 369.27C358.066 368.348 358.258 367.562 358.641 366.914C359.023 366.258 359.578 365.758 360.305 365.414C361.031 365.07 361.91 364.898 362.941 364.898C363.168 364.898 363.395 364.91 363.621 364.934C363.855 364.949 364.078 364.977 364.289 365.016C364.5 365.047 364.684 365.086 364.84 365.133H369.246V366.387L366.879 366.68C367.113 366.984 367.309 367.352 367.465 367.781C367.621 368.211 367.699 368.688 367.699 369.211C367.699 370.492 367.266 371.512 366.398 372.27C365.531 373.02 364.34 373.395 362.824 373.395C362.465 373.395 362.098 373.363 361.723 373.301C361.34 373.512 361.047 373.746 360.844 374.004C360.648 374.262 360.551 374.559 360.551 374.895C360.551 375.145 360.625 375.344 360.773 375.492C360.93 375.641 361.152 375.75 361.441 375.82C361.73 375.883 362.078 375.914 362.484 375.914H364.746C366.145 375.914 367.215 376.207 367.957 376.793C368.707 377.379 369.082 378.234 369.082 379.359C369.082 380.781 368.504 381.871 367.348 382.629C366.191 383.387 364.52 383.766 362.332 383.766ZM362.391 382.242C363.453 382.242 364.332 382.133 365.027 381.914C365.73 381.703 366.254 381.395 366.598 380.988C366.949 380.59 367.125 380.113 367.125 379.559C367.125 379.043 367.008 378.652 366.773 378.387C366.539 378.129 366.195 377.957 365.742 377.871C365.289 377.777 364.734 377.73 364.078 377.73H361.852C361.273 377.73 360.77 377.82 360.34 378C359.91 378.18 359.578 378.445 359.344 378.797C359.117 379.148 359.004 379.586 359.004 380.109C359.004 380.805 359.297 381.332 359.883 381.691C360.469 382.059 361.305 382.242 362.391 382.242ZM362.895 371.977C363.824 371.977 364.523 371.742 364.992 371.273C365.461 370.805 365.695 370.121 365.695 369.223C365.695 368.262 365.457 367.543 364.98 367.066C364.504 366.582 363.801 366.34 362.871 366.34C361.98 366.34 361.293 366.59 360.809 367.09C360.332 367.582 360.094 368.305 360.094 369.258C360.094 370.133 360.336 370.805 360.82 371.273C361.305 371.742 361.996 371.977 362.895 371.977ZM377.613 364.922C377.871 364.922 378.141 364.938 378.422 364.969C378.703 364.992 378.953 365.027 379.172 365.074L378.926 366.879C378.715 366.824 378.48 366.781 378.223 366.75C377.965 366.719 377.723 366.703 377.496 366.703C376.98 366.703 376.492 366.809 376.031 367.02C375.578 367.223 375.18 367.52 374.836 367.91C374.492 368.293 374.223 368.758 374.027 369.305C373.832 369.844 373.734 370.445 373.734 371.109V378H371.777V365.156H373.395L373.605 367.523H373.688C373.953 367.047 374.273 366.613 374.648 366.223C375.023 365.824 375.457 365.508 375.949 365.273C376.449 365.039 377.004 364.922 377.613 364.922ZM386.543 364.922C387.637 364.922 388.574 365.164 389.355 365.648C390.137 366.133 390.734 366.812 391.148 367.688C391.562 368.555 391.77 369.57 391.77 370.734V371.941H382.898C382.922 373.449 383.297 374.598 384.023 375.387C384.75 376.176 385.773 376.57 387.094 376.57C387.906 376.57 388.625 376.496 389.25 376.348C389.875 376.199 390.523 375.98 391.195 375.691V377.402C390.547 377.691 389.902 377.902 389.262 378.035C388.629 378.168 387.879 378.234 387.012 378.234C385.777 378.234 384.699 377.984 383.777 377.484C382.863 376.977 382.152 376.234 381.645 375.258C381.137 374.281 380.883 373.086 380.883 371.672C380.883 370.289 381.113 369.094 381.574 368.086C382.043 367.07 382.699 366.289 383.543 365.742C384.395 365.195 385.395 364.922 386.543 364.922ZM386.52 366.516C385.48 366.516 384.652 366.855 384.035 367.535C383.418 368.215 383.051 369.164 382.934 370.383H389.73C389.723 369.617 389.602 368.945 389.367 368.367C389.141 367.781 388.793 367.328 388.324 367.008C387.855 366.68 387.254 366.516 386.52 366.516ZM403.383 374.484C403.383 375.305 403.176 375.996 402.762 376.559C402.355 377.113 401.77 377.531 401.004 377.812C400.246 378.094 399.34 378.234 398.285 378.234C397.387 378.234 396.609 378.164 395.953 378.023C395.297 377.883 394.723 377.684 394.23 377.426V375.633C394.754 375.891 395.379 376.125 396.105 376.336C396.832 376.547 397.574 376.652 398.332 376.652C399.441 376.652 400.246 376.473 400.746 376.113C401.246 375.754 401.496 375.266 401.496 374.648C401.496 374.297 401.395 373.988 401.191 373.723C400.996 373.449 400.664 373.188 400.195 372.938C399.727 372.68 399.078 372.398 398.25 372.094C397.43 371.781 396.719 371.473 396.117 371.168C395.523 370.855 395.062 370.477 394.734 370.031C394.414 369.586 394.254 369.008 394.254 368.297C394.254 367.211 394.691 366.379 395.566 365.801C396.449 365.215 397.605 364.922 399.035 364.922C399.809 364.922 400.531 365 401.203 365.156C401.883 365.305 402.516 365.508 403.102 365.766L402.445 367.324C401.914 367.098 401.348 366.906 400.746 366.75C400.145 366.594 399.531 366.516 398.906 366.516C398.008 366.516 397.316 366.664 396.832 366.961C396.355 367.258 396.117 367.664 396.117 368.18C396.117 368.578 396.227 368.906 396.445 369.164C396.672 369.422 397.031 369.664 397.523 369.891C398.016 370.117 398.664 370.383 399.469 370.688C400.273 370.984 400.969 371.293 401.555 371.613C402.141 371.926 402.59 372.309 402.902 372.762C403.223 373.207 403.383 373.781 403.383 374.484ZM414.82 374.484C414.82 375.305 414.613 375.996 414.199 376.559C413.793 377.113 413.207 377.531 412.441 377.812C411.684 378.094 410.777 378.234 409.723 378.234C408.824 378.234 408.047 378.164 407.391 378.023C406.734 377.883 406.16 377.684 405.668 377.426V375.633C406.191 375.891 406.816 376.125 407.543 376.336C408.27 376.547 409.012 376.652 409.77 376.652C410.879 376.652 411.684 376.473 412.184 376.113C412.684 375.754 412.934 375.266 412.934 374.648C412.934 374.297 412.832 373.988 412.629 373.723C412.434 373.449 412.102 373.188 411.633 372.938C411.164 372.68 410.516 372.398 409.688 372.094C408.867 371.781 408.156 371.473 407.555 371.168C406.961 370.855 406.5 370.477 406.172 370.031C405.852 369.586 405.691 369.008 405.691 368.297C405.691 367.211 406.129 366.379 407.004 365.801C407.887 365.215 409.043 364.922 410.473 364.922C411.246 364.922 411.969 365 412.641 365.156C413.32 365.305 413.953 365.508 414.539 365.766L413.883 367.324C413.352 367.098 412.785 366.906 412.184 366.75C411.582 366.594 410.969 366.516 410.344 366.516C409.445 366.516 408.754 366.664 408.27 366.961C407.793 367.258 407.555 367.664 407.555 368.18C407.555 368.578 407.664 368.906 407.883 369.164C408.109 369.422 408.469 369.664 408.961 369.891C409.453 370.117 410.102 370.383 410.906 370.688C411.711 370.984 412.406 371.293 412.992 371.613C413.578 371.926 414.027 372.309 414.34 372.762C414.66 373.207 414.82 373.781 414.82 374.484Z" fill="white"/>
<circle cx="537" cy="369" r="55" stroke="url(#paint0_linear_145_279)" stroke-width="10"/>
<path d="M517.943 359.545V377H515.83V361.761H515.727L511.466 364.591V362.443L515.83 359.545H517.943ZM528.656 377.239C527.372 377.239 526.278 376.889 525.375 376.19C524.472 375.486 523.781 374.466 523.304 373.131C522.827 371.79 522.588 370.17 522.588 368.273C522.588 366.386 522.827 364.776 523.304 363.44C523.787 362.099 524.48 361.077 525.384 360.372C526.293 359.662 527.384 359.307 528.656 359.307C529.929 359.307 531.017 359.662 531.92 360.372C532.83 361.077 533.523 362.099 534 363.44C534.483 364.776 534.724 366.386 534.724 368.273C534.724 370.17 534.486 371.79 534.009 373.131C533.531 374.466 532.841 375.486 531.938 376.19C531.034 376.889 529.94 377.239 528.656 377.239ZM528.656 375.364C529.929 375.364 530.918 374.75 531.622 373.523C532.327 372.295 532.679 370.545 532.679 368.273C532.679 366.761 532.517 365.474 532.193 364.412C531.875 363.349 531.415 362.54 530.812 361.983C530.216 361.426 529.497 361.148 528.656 361.148C527.395 361.148 526.409 361.77 525.699 363.014C524.989 364.253 524.634 366.006 524.634 368.273C524.634 369.784 524.793 371.068 525.111 372.125C525.429 373.182 525.886 373.986 526.483 374.537C527.085 375.088 527.81 375.364 528.656 375.364ZM543.656 377.239C542.372 377.239 541.278 376.889 540.375 376.19C539.472 375.486 538.781 374.466 538.304 373.131C537.827 371.79 537.588 370.17 537.588 368.273C537.588 366.386 537.827 364.776 538.304 363.44C538.787 362.099 539.48 361.077 540.384 360.372C541.293 359.662 542.384 359.307 543.656 359.307C544.929 359.307 546.017 359.662 546.92 360.372C547.83 361.077 548.523 362.099 549 363.44C549.483 364.776 549.724 366.386 549.724 368.273C549.724 370.17 549.486 371.79 549.009 373.131C548.531 374.466 547.841 375.486 546.938 376.19C546.034 376.889 544.94 377.239 543.656 377.239ZM543.656 375.364C544.929 375.364 545.918 374.75 546.622 373.523C547.327 372.295 547.679 370.545 547.679 368.273C547.679 366.761 547.517 365.474 547.193 364.412C546.875 363.349 546.415 362.54 545.812 361.983C545.216 361.426 544.497 361.148 543.656 361.148C542.395 361.148 541.409 361.77 540.699 363.014C539.989 364.253 539.634 366.006 539.634 368.273C539.634 369.784 539.793 371.068 540.111 372.125C540.429 373.182 540.886 373.986 541.483 374.537C542.085 375.088 542.81 375.364 543.656 375.364ZM561.861 373.727V372.807C561.861 372.17 561.991 371.588 562.253 371.06C562.52 370.526 562.906 370.099 563.412 369.781C563.923 369.457 564.543 369.295 565.27 369.295C566.009 369.295 566.628 369.457 567.128 369.781C567.628 370.099 568.006 370.526 568.261 371.06C568.517 371.588 568.645 372.17 568.645 372.807V373.727C568.645 374.364 568.514 374.949 568.253 375.483C567.997 376.011 567.616 376.437 567.111 376.761C566.611 377.08 565.997 377.239 565.27 377.239C564.531 377.239 563.909 377.08 563.403 376.761C562.898 376.437 562.514 376.011 562.253 375.483C561.991 374.949 561.861 374.364 561.861 373.727ZM563.599 372.807V373.727C563.599 374.256 563.724 374.73 563.974 375.151C564.224 375.565 564.656 375.773 565.27 375.773C565.866 375.773 566.287 375.565 566.531 375.151C566.781 374.73 566.906 374.256 566.906 373.727V372.807C566.906 372.278 566.787 371.807 566.548 371.392C566.31 370.972 565.884 370.761 565.27 370.761C564.673 370.761 564.244 370.972 563.983 371.392C563.727 371.807 563.599 372.278 563.599 372.807ZM553.168 363.739V362.818C553.168 362.182 553.298 361.599 553.56 361.071C553.827 360.537 554.213 360.111 554.719 359.793C555.23 359.469 555.849 359.307 556.577 359.307C557.315 359.307 557.935 359.469 558.435 359.793C558.935 360.111 559.313 360.537 559.568 361.071C559.824 361.599 559.952 362.182 559.952 362.818V363.739C559.952 364.375 559.821 364.96 559.56 365.494C559.304 366.023 558.923 366.449 558.418 366.773C557.918 367.091 557.304 367.25 556.577 367.25C555.838 367.25 555.216 367.091 554.71 366.773C554.205 366.449 553.821 366.023 553.56 365.494C553.298 364.96 553.168 364.375 553.168 363.739ZM554.906 362.818V363.739C554.906 364.267 555.031 364.741 555.281 365.162C555.531 365.577 555.963 365.784 556.577 365.784C557.173 365.784 557.594 365.577 557.838 365.162C558.088 364.741 558.213 364.267 558.213 363.739V362.818C558.213 362.29 558.094 361.818 557.855 361.403C557.616 360.983 557.19 360.773 556.577 360.773C555.98 360.773 555.551 360.983 555.29 361.403C555.034 361.818 554.906 362.29 554.906 362.818ZM553.815 377L565.815 359.545H567.759L555.759 377H553.815Z" fill="white"/>
<defs>
<linearGradient id="paint0_linear_145_279" x1="537" y1="243" x2="537" y2="673.667" gradientUnits="userSpaceOnUse">
<stop stop-color="white"/>
<stop offset="1" stop-color="#D9D9D9" stop-opacity="0"/>
</linearGradient>
</defs>
</svg>
