<svg width="37" height="30" viewBox="0 0 37 30" fill="none" xmlns="http://www.w3.org/2000/svg">
<path d="M33.2118 7.51198C32.3874 27.368 14.4735 34.9098 0 26.7693C5.25625 26.7349 7.59198 26.0052 10.8845 23.6993C7.11126 22.7073 5.53996 21.6419 4.18636 18.3965C5.48295 18.6595 6.15297 18.6551 7.25636 18.3965C3.27904 16.5108 1.69696 14.9411 0.837272 10.582C2.10616 11.3529 2.90981 11.5153 4.46545 11.4193C1.35755 8.5215 0.810978 6.34535 2.23273 1.37199C7.72085 6.72161 11.2202 8.42977 18.1409 9.46562C17.5528 0.641822 24.0509 -2.5637 31.2582 2.20926C33.3073 2.28562 34.2497 1.67381 35.9786 0.551482L36.0027 0.53581C35.2115 2.46092 34.469 3.37239 32.6536 4.72219C34.5207 4.64537 35.4073 4.29531 36.84 3.60583C35.8993 5.23931 35.0686 6.08809 33.2118 7.51198Z" fill="white"/>
</svg>
